<svg width="115" height="115" viewBox="0 0 115 115" fill="none" xmlns="http://www.w3.org/2000/svg">
<g id="Group 134">
<path id="Vector" d="M57.25 110.5C86.6592 110.5 110.5 86.6592 110.5 57.25C110.5 27.8408 86.6592 4 57.25 4C27.8408 4 4 27.8408 4 57.25C4 86.6592 27.8408 110.5 57.25 110.5Z" stroke="#43E05A" stroke-width="8" stroke-miterlimit="10"/>
<path id="Vector_2" d="M26.4668 62.6382L26.4667 62.6383C25.3975 63.8856 25.5406 65.7638 26.7892 66.8334L45.221 82.6328C45.7632 83.0982 46.4511 83.3495 47.1576 83.3495C47.2545 83.3495 47.3535 83.345 47.4535 83.3353L47.4585 83.3347C48.2664 83.2521 49.0067 82.8431 49.5064 82.2012L49.5066 82.2009L86.3735 34.8008C86.3736 34.8008 86.3736 34.8007 86.3737 34.8006C87.3828 33.5038 87.1472 31.6348 85.8515 30.6261L85.8511 30.6258C84.5559 29.6186 82.6859 29.8516 81.6766 31.1481L81.6764 31.1484L46.7249 76.085L30.6618 62.3161C30.6617 62.316 30.6616 62.3159 30.6614 62.3158C29.4158 61.2474 27.5358 61.3917 26.4668 62.6382Z" fill="#43E05A" stroke="#43E05A" stroke-width="2"/>
</g>
</svg>
