<svg width="24" height="24" viewBox="0 0 24 24" fill="none" xmlns="http://www.w3.org/2000/svg">
<g id="Icon">
<path id="Vector" d="M21.0004 4.5V19.5C21.0004 19.8978 20.8424 20.2794 20.5611 20.5607C20.2798 20.842 19.8982 21 19.5004 21H12.7504C12.5515 21 12.3607 20.921 12.2201 20.7803C12.0794 20.6397 12.0004 20.4489 12.0004 20.25C12.0004 20.0511 12.0794 19.8603 12.2201 19.7197C12.3607 19.579 12.5515 19.5 12.7504 19.5H19.5004V4.5H4.50042V13.5C4.50042 13.6989 4.4214 13.8897 4.28075 14.0303C4.14009 14.171 3.94933 14.25 3.75042 14.25C3.5515 14.25 3.36074 14.171 3.22009 14.0303C3.07943 13.8897 3.00042 13.6989 3.00042 13.5V4.5C3.00042 4.10218 3.15845 3.72064 3.43976 3.43934C3.72106 3.15804 4.10259 3 4.50042 3H19.5004C19.8982 3 20.2798 3.15804 20.5611 3.43934C20.8424 3.72064 21.0004 4.10218 21.0004 4.5ZM11.781 14.4694C11.7114 14.3996 11.6287 14.3443 11.5376 14.3066C11.4466 14.2688 11.349 14.2494 11.2504 14.2494C11.1519 14.2494 11.0543 14.2688 10.9632 14.3066C10.8722 14.3443 10.7894 14.3996 10.7198 14.4694L6.00042 19.1897L4.28104 17.4694C4.21136 17.3997 4.12863 17.3444 4.03759 17.3067C3.94654 17.269 3.84896 17.2496 3.75042 17.2496C3.65187 17.2496 3.55429 17.269 3.46324 17.3067C3.3722 17.3444 3.28947 17.3997 3.21979 17.4694C3.15011 17.5391 3.09483 17.6218 3.05712 17.7128C3.01941 17.8039 3 17.9015 3 18C3 18.0985 3.01941 18.1961 3.05712 18.2872C3.09483 18.3782 3.15011 18.4609 3.21979 18.5306L5.46979 20.7806C5.53945 20.8504 5.62216 20.9057 5.71321 20.9434C5.80426 20.9812 5.90186 21.0006 6.00042 21.0006C6.09898 21.0006 6.19657 20.9812 6.28762 20.9434C6.37867 20.9057 6.46139 20.8504 6.53104 20.7806L11.781 15.5306C11.8508 15.461 11.9061 15.3783 11.9438 15.2872C11.9816 15.1962 12.001 15.0986 12.001 15C12.001 14.9014 11.9816 14.8038 11.9438 14.7128C11.9061 14.6217 11.8508 14.539 11.781 14.4694Z" fill="#614298"/>
</g>
</svg>
