<svg width="57" height="57" viewBox="0 0 57 57" fill="none" xmlns="http://www.w3.org/2000/svg">
<g id="User_add_light">
<rect width="57" height="57" fill="#7355A8"/>
<circle id="Ellipse 46" cx="26.8535" cy="20.5" r="9.5" stroke="white" stroke-width="2" stroke-linecap="round"/>
<g id="Subtract">
<path fill-rule="evenodd" clip-rule="evenodd" d="M39.0721 33.25C37.9514 32.5691 36.7304 31.9817 35.4297 31.5006C31.9853 30.2267 28.1214 29.7493 24.3236 30.1243C20.5261 30.4993 16.9503 31.7112 14.0504 33.6186C11.1503 35.526 9.04437 38.0524 8.02928 40.8936C7.93638 41.1537 8.07187 41.4398 8.33192 41.5327C8.59196 41.6256 8.87808 41.4901 8.97099 41.2301C9.90111 38.6266 11.8494 36.2632 14.5999 34.454C17.3506 32.6448 20.7679 31.4803 24.4219 31.1195C28.0754 30.7588 31.7865 31.2194 35.0828 32.4385C35.7408 32.6819 36.3758 32.9531 36.9852 33.25L39.0721 33.25ZM43.1027 38.0814C43.2652 38.154 43.4613 38.1374 43.6122 38.0212C43.831 37.8528 43.8719 37.5388 43.7034 37.32C43.6854 37.2966 43.6673 37.2733 43.6492 37.25H43.1027V38.0814Z" fill="white"/>
<path d="M35.4297 31.5006L35.6031 31.0317L35.4297 31.5006ZM39.0721 33.25V33.75L40.858 33.75L39.3317 32.8227L39.0721 33.25ZM24.3236 30.1243L24.2745 29.6268L24.3236 30.1243ZM14.0504 33.6186L14.3252 34.0363H14.3252L14.0504 33.6186ZM8.02928 40.8936L7.55843 40.7254H7.55843L8.02928 40.8936ZM8.33192 41.5327L8.50014 41.0618L8.33192 41.5327ZM8.97099 41.2301L9.44184 41.3983H9.44184L8.97099 41.2301ZM14.5999 34.454L14.3252 34.0363L14.5999 34.454ZM24.4219 31.1195L24.471 31.6171L24.4219 31.1195ZM35.0828 32.4385L34.9093 32.9075L35.0828 32.4385ZM36.9852 33.25L36.7661 33.6995L36.8698 33.75H36.9852V33.25ZM43.6122 38.0212L43.9172 38.4174L43.9172 38.4174L43.6122 38.0212ZM43.1027 38.0814H42.6027V38.4056L42.8987 38.5379L43.1027 38.0814ZM43.7034 37.32L43.3072 37.625L43.3072 37.625L43.7034 37.32ZM43.6492 37.25L44.0435 36.9426L43.8934 36.75H43.6492V37.25ZM43.1027 37.25V36.75H42.6027V37.25H43.1027ZM35.2562 31.9696C36.5283 32.4401 37.7203 33.0138 38.8125 33.6773L39.3317 32.8227C38.1824 32.1244 36.9324 31.5233 35.6031 31.0317L35.2562 31.9696ZM24.3727 30.6219C28.0984 30.254 31.8859 30.723 35.2562 31.9696L35.6031 31.0317C32.0847 29.7303 28.1445 29.2446 24.2745 29.6268L24.3727 30.6219ZM14.3252 34.0363C17.1504 32.178 20.647 30.9898 24.3727 30.6219L24.2745 29.6268C20.4052 30.0088 16.7502 31.2443 13.7756 33.2008L14.3252 34.0363ZM8.50014 41.0618C9.47273 38.3395 11.4998 35.8946 14.3252 34.0363L13.7756 33.2008C10.8009 35.1574 8.616 37.7652 7.55843 40.7254L8.50014 41.0618ZM8.50014 41.0618L8.50014 41.0618L7.55843 40.7254C7.37262 41.2455 7.64361 41.8177 8.1637 42.0035L8.50014 41.0618ZM8.50014 41.0618H8.50014L8.1637 42.0035C8.68379 42.1894 9.25603 41.9184 9.44184 41.3983L8.50014 41.0618ZM14.3252 34.0363C11.4998 35.8946 9.47273 38.3395 8.50014 41.0618L9.44184 41.3983C10.3295 38.9137 12.1989 36.6317 14.8747 34.8718L14.3252 34.0363ZM24.3727 30.6219C20.647 30.9898 17.1504 32.178 14.3252 34.0363L14.8747 34.8718C17.5507 33.1117 20.8889 31.9708 24.471 31.6171L24.3727 30.6219ZM35.2562 31.9696C31.8859 30.723 28.0984 30.254 24.3727 30.6219L24.471 31.6171C28.0524 31.2635 31.6871 31.7157 34.9093 32.9075L35.2562 31.9696ZM37.2042 32.8005C36.5796 32.4962 35.9294 32.2186 35.2562 31.9696L34.9093 32.9075C35.5522 33.1452 36.172 33.41 36.7661 33.6995L37.2042 32.8005ZM36.9852 33.75L39.0721 33.75V32.75L36.9852 32.75V33.75ZM43.3072 37.625L43.3068 37.6249L42.8987 38.5379C43.2223 38.6825 43.6149 38.6501 43.9172 38.4174L43.3072 37.625ZM43.3072 37.625L43.3072 37.625L43.9172 38.4174C44.3548 38.0805 44.4365 37.4526 44.0996 37.015L43.3072 37.625ZM43.2549 37.5574C43.2724 37.5799 43.2898 37.6024 43.3072 37.625L44.0996 37.015C44.081 36.9908 44.0623 36.9667 44.0435 36.9426L43.2549 37.5574ZM43.6492 36.75H43.1027V37.75H43.6492V36.75ZM42.6027 37.25V38.0814H43.6027V37.25H42.6027Z" fill="white"/>
</g>
<path id="Vector 52" d="M41.1035 25.75L41.1035 44.75" stroke="white" stroke-width="2" stroke-linecap="round"/>
<path id="Vector 53" d="M50.6035 35.25L31.6035 35.25" stroke="white" stroke-width="2" stroke-linecap="round"/>
</g>
</svg>
