<svg width="24" height="24" viewBox="0 0 24 24" fill="none" xmlns="http://www.w3.org/2000/svg">
<g id="ClipboardText">
<path id="Vector" d="M16 14.7499C16 14.9488 15.921 15.1395 15.7803 15.2802C15.6397 15.4208 15.4489 15.4999 15.25 15.4999H9.25C9.05109 15.4999 8.86032 15.4208 8.71967 15.2802C8.57902 15.1395 8.5 14.9488 8.5 14.7499C8.5 14.551 8.57902 14.3602 8.71967 14.2195C8.86032 14.0789 9.05109 13.9999 9.25 13.9999H15.25C15.4489 13.9999 15.6397 14.0789 15.7803 14.2195C15.921 14.3602 16 14.551 16 14.7499ZM15.25 10.9999H9.25C9.05109 10.9999 8.86032 11.0789 8.71967 11.2195C8.57902 11.3602 8.5 11.551 8.5 11.7499C8.5 11.9488 8.57902 12.1395 8.71967 12.2802C8.86032 12.4208 9.05109 12.4999 9.25 12.4999H15.25C15.4489 12.4999 15.6397 12.4208 15.7803 12.2802C15.921 12.1395 16 11.9488 16 11.7499C16 11.551 15.921 11.3602 15.7803 11.2195C15.6397 11.0789 15.4489 10.9999 15.25 10.9999ZM20.5 4.99986V20.7499C20.5 21.1477 20.342 21.5292 20.0607 21.8105C19.7794 22.0918 19.3978 22.2499 19 22.2499H5.5C5.10218 22.2499 4.72064 22.0918 4.43934 21.8105C4.15804 21.5292 4 21.1477 4 20.7499V4.99986C4 4.60204 4.15804 4.22051 4.43934 3.9392C4.72064 3.6579 5.10218 3.49986 5.5 3.49986H8.89937C9.32079 3.02804 9.83709 2.65054 10.4145 2.39207C10.9919 2.13361 11.6174 2 12.25 2C12.8826 2 13.5081 2.13361 14.0855 2.39207C14.6629 2.65054 15.1792 3.02804 15.6006 3.49986H19C19.3978 3.49986 19.7794 3.6579 20.0607 3.9392C20.342 4.22051 20.5 4.60204 20.5 4.99986ZM9.25 6.49986H15.25C15.25 5.70421 14.9339 4.94115 14.3713 4.37854C13.8087 3.81593 13.0456 3.49986 12.25 3.49986C11.4544 3.49986 10.6913 3.81593 10.1287 4.37854C9.56607 4.94115 9.25 5.70421 9.25 6.49986ZM19 4.99986H16.4922C16.6628 5.48157 16.75 5.98884 16.75 6.49986V7.24986C16.75 7.44878 16.671 7.63954 16.5303 7.78019C16.3897 7.92085 16.1989 7.99986 16 7.99986H8.5C8.30109 7.99986 8.11032 7.92085 7.96967 7.78019C7.82902 7.63954 7.75 7.44878 7.75 7.24986V6.49986C7.75002 5.98884 7.83721 5.48157 8.00781 4.99986H5.5V20.7499H19V4.99986Z" fill="#7355A8"/>
</g>
</svg>
