<svg width="24" height="25" viewBox="0 0 24 25" fill="none" xmlns="http://www.w3.org/2000/svg">
<g id="Briefcase">
<path id="Vector" d="M20.25 5.75H16.5V5C16.5 4.40326 16.2629 3.83097 15.841 3.40901C15.419 2.98705 14.8467 2.75 14.25 2.75H9.75C9.15326 2.75 8.58097 2.98705 8.15901 3.40901C7.73705 3.83097 7.5 4.40326 7.5 5V5.75H3.75C3.35218 5.75 2.97064 5.90804 2.68934 6.18934C2.40804 6.47064 2.25 6.85218 2.25 7.25V19.25C2.25 19.6478 2.40804 20.0294 2.68934 20.3107C2.97064 20.592 3.35218 20.75 3.75 20.75H20.25C20.6478 20.75 21.0294 20.592 21.3107 20.3107C21.592 20.0294 21.75 19.6478 21.75 19.25V7.25C21.75 6.85218 21.592 6.47064 21.3107 6.18934C21.0294 5.90804 20.6478 5.75 20.25 5.75ZM9 5C9 4.80109 9.07902 4.61032 9.21967 4.46967C9.36032 4.32902 9.55109 4.25 9.75 4.25H14.25C14.4489 4.25 14.6397 4.32902 14.7803 4.46967C14.921 4.61032 15 4.80109 15 5V5.75H9V5ZM20.25 7.25V11.1509C17.7185 12.5289 14.8822 13.2505 12 13.25C9.11794 13.2505 6.28165 12.5292 3.75 11.1519V7.25H20.25ZM20.25 19.25H3.75V12.8412C6.31868 14.0977 9.1405 14.7506 12 14.75C14.8596 14.7501 17.6813 14.0969 20.25 12.8403V19.25ZM9.75 11C9.75 10.8011 9.82902 10.6103 9.96967 10.4697C10.1103 10.329 10.3011 10.25 10.5 10.25H13.5C13.6989 10.25 13.8897 10.329 14.0303 10.4697C14.171 10.6103 14.25 10.8011 14.25 11C14.25 11.1989 14.171 11.3897 14.0303 11.5303C13.8897 11.671 13.6989 11.75 13.5 11.75H10.5C10.3011 11.75 10.1103 11.671 9.96967 11.5303C9.82902 11.3897 9.75 11.1989 9.75 11Z" fill="#06030D"/>
</g>
</svg>
