<svg width="16" height="17" viewBox="0 0 16 17" fill="none" xmlns="http://www.w3.org/2000/svg">
<g id="CalendarCheck">
<path id="Vector" d="M13 2.5H11.5V2C11.5 1.86739 11.4473 1.74021 11.3536 1.64645C11.2598 1.55268 11.1326 1.5 11 1.5C10.8674 1.5 10.7402 1.55268 10.6464 1.64645C10.5527 1.74021 10.5 1.86739 10.5 2V2.5H5.5V2C5.5 1.86739 5.44732 1.74021 5.35355 1.64645C5.25979 1.55268 5.13261 1.5 5 1.5C4.86739 1.5 4.74021 1.55268 4.64645 1.64645C4.55268 1.74021 4.5 1.86739 4.5 2V2.5H3C2.73478 2.5 2.48043 2.60536 2.29289 2.79289C2.10536 2.98043 2 3.23478 2 3.5V13.5C2 13.7652 2.10536 14.0196 2.29289 14.2071C2.48043 14.3946 2.73478 14.5 3 14.5H13C13.2652 14.5 13.5196 14.3946 13.7071 14.2071C13.8946 14.0196 14 13.7652 14 13.5V3.5C14 3.23478 13.8946 2.98043 13.7071 2.79289C13.5196 2.60536 13.2652 2.5 13 2.5ZM4.5 3.5V4C4.5 4.13261 4.55268 4.25979 4.64645 4.35355C4.74021 4.44732 4.86739 4.5 5 4.5C5.13261 4.5 5.25979 4.44732 5.35355 4.35355C5.44732 4.25979 5.5 4.13261 5.5 4V3.5H10.5V4C10.5 4.13261 10.5527 4.25979 10.6464 4.35355C10.7402 4.44732 10.8674 4.5 11 4.5C11.1326 4.5 11.2598 4.44732 11.3536 4.35355C11.4473 4.25979 11.5 4.13261 11.5 4V3.5H13V5.5H3V3.5H4.5ZM13 13.5H3V6.5H13V13.5ZM10.6038 8.14625C10.6502 8.19269 10.6871 8.24783 10.7123 8.30853C10.7374 8.36923 10.7504 8.43429 10.7504 8.5C10.7504 8.56571 10.7374 8.63077 10.7123 8.69147C10.6871 8.75217 10.6502 8.80731 10.6038 8.85375L7.60375 11.8538C7.55731 11.9002 7.50217 11.9371 7.44147 11.9623C7.38077 11.9874 7.31571 12.0004 7.25 12.0004C7.18429 12.0004 7.11923 11.9874 7.05853 11.9623C6.99783 11.9371 6.94269 11.9002 6.89625 11.8538L5.39625 10.3538C5.30243 10.2599 5.24972 10.1327 5.24972 10C5.24972 9.86732 5.30243 9.74007 5.39625 9.64625C5.49007 9.55243 5.61732 9.49972 5.75 9.49972C5.88268 9.49972 6.00993 9.55243 6.10375 9.64625L7.25 10.7931L9.89625 8.14625C9.94269 8.09976 9.99783 8.06288 10.0585 8.03772C10.1192 8.01256 10.1843 7.99961 10.25 7.99961C10.3157 7.99961 10.3808 8.01256 10.4415 8.03772C10.5022 8.06288 10.5573 8.09976 10.6038 8.14625Z" fill="#06030D"/>
</g>
</svg>
