<svg width="24" height="25" viewBox="0 0 24 25" fill="none" xmlns="http://www.w3.org/2000/svg">
<g id="VideoCamera">
<path id="Vector" d="M23.6034 7.34375C23.4838 7.27964 23.3491 7.24919 23.2135 7.25563C23.078 7.26207 22.9467 7.30516 22.8337 7.38031L19.5 9.59844V7.25C19.5 6.85218 19.342 6.47064 19.0607 6.18934C18.7794 5.90804 18.3978 5.75 18 5.75H3C2.60218 5.75 2.22064 5.90804 1.93934 6.18934C1.65804 6.47064 1.5 6.85218 1.5 7.25V17.75C1.5 18.1478 1.65804 18.5294 1.93934 18.8107C2.22064 19.092 2.60218 19.25 3 19.25H18C18.3978 19.25 18.7794 19.092 19.0607 18.8107C19.342 18.5294 19.5 18.1478 19.5 17.75V15.4062L22.8337 17.6291C22.9576 17.7095 23.1024 17.7515 23.25 17.75C23.4489 17.75 23.6397 17.671 23.7803 17.5303C23.921 17.3897 24 17.1989 24 17V8C23.9991 7.86506 23.9617 7.73287 23.8919 7.61737C23.8221 7.50187 23.7225 7.40734 23.6034 7.34375ZM18 17.75H3V7.25H18V17.75ZM22.5 15.5984L19.5 13.5988V11.4012L22.5 9.40625V15.5984Z" fill="black"/>
</g>
</svg>
