<svg width="143" height="142" viewBox="0 0 143 142" fill="none" xmlns="http://www.w3.org/2000/svg">
<g id="Frame" clip-path="url(#clip0_2349_11540)">
<path id="Vector" d="M71.5 124.25C100.909 124.25 124.75 100.409 124.75 71C124.75 41.5908 100.909 17.75 71.5 17.75C42.0908 17.75 18.25 41.5908 18.25 71C18.25 100.409 42.0908 124.25 71.5 124.25Z" stroke="#F7A749" stroke-width="8" stroke-miterlimit="10"/>
<path id="Vector_2" d="M71.5 75.4375V44.375" stroke="#F7A749" stroke-width="12" stroke-linecap="round" stroke-linejoin="round"/>
<path id="Vector_3" d="M71.5 102.062C75.1761 102.062 78.1562 99.0824 78.1562 95.4062C78.1562 91.7301 75.1761 88.75 71.5 88.75C67.8239 88.75 64.8438 91.7301 64.8438 95.4062C64.8438 99.0824 67.8239 102.062 71.5 102.062Z" fill="#F7A749"/>
</g>
<defs>
<clipPath id="clip0_2349_11540">
<rect width="142" height="142" fill="white" transform="translate(0.5)"/>
</clipPath>
</defs>
</svg>
