<svg width="17" height="16" viewBox="0 0 17 16" fill="none" xmlns="http://www.w3.org/2000/svg">
<path id="Vector" d="M8.5 0C6.97338 0 5.48104 0.452697 4.2117 1.30084C2.94235 2.14899 1.95302 3.35449 1.36881 4.76491C0.784594 6.17533 0.631737 7.72731 0.929567 9.2246C1.2274 10.7219 1.96254 12.0972 3.04202 13.1767C4.12151 14.2562 5.49686 14.9914 6.99415 15.2892C8.49144 15.587 10.0434 15.4342 11.4538 14.8499C12.8643 14.2657 14.0698 13.2764 14.9179 12.0071C15.7661 10.7377 16.2188 9.24537 16.2188 7.71875C16.2166 5.67227 15.4027 3.71023 13.9556 2.26316C12.5085 0.816078 10.5465 0.00216112 8.5 0ZM15.0313 7.71875C15.0328 9.24583 14.4965 10.7247 13.5164 11.8958L4.32297 2.70156C5.27668 1.90815 6.43664 1.40277 7.6671 1.24456C8.89756 1.08635 10.1476 1.28186 11.271 1.80821C12.3944 2.33456 13.3447 3.16998 14.0106 4.2167C14.6765 5.26343 15.0305 6.47816 15.0313 7.71875ZM1.96875 7.71875C1.96723 6.19167 2.50354 4.71284 3.48356 3.54172L12.677 12.7359C11.7233 13.5294 10.5634 14.0347 9.33291 14.1929C8.10244 14.3512 6.85237 14.1556 5.72897 13.6293C4.60557 13.1029 3.65531 12.2675 2.9894 11.2208C2.32349 10.1741 1.96946 8.95934 1.96875 7.71875Z" fill="#E83F40"/>
</svg>
