<svg width="20" height="21" viewBox="0 0 20 21" fill="none" xmlns="http://www.w3.org/2000/svg">
<g id="Heading 6">
<path id="Vector" d="M8.125 2.67505C6.66667 2.67505 5.3125 3.03963 4.0625 3.7688C2.8125 4.49797 1.82292 5.48755 1.09375 6.73755C0.364583 7.98755 0 9.34172 0 10.8C0 12.2584 0.364583 13.6125 1.09375 14.8625C1.82292 16.1125 2.8125 17.1021 4.0625 17.8313C5.3125 18.5605 6.66667 18.925 8.125 18.925C9.58333 18.925 10.9375 18.5605 12.1875 17.8313C13.4375 17.1021 14.4271 16.1125 15.1562 14.8625C15.8854 13.6125 16.25 12.2584 16.25 10.8C16.25 9.34172 15.8854 7.98755 15.1562 6.73755C14.4271 5.48755 13.4375 4.49797 12.1875 3.7688C10.9375 3.03963 9.58333 2.67505 8.125 2.67505ZM8.125 17.675C6.875 17.675 5.72917 17.3625 4.6875 16.7375C3.64583 16.1125 2.8125 15.2792 2.1875 14.2375C1.5625 13.1959 1.25 12.05 1.25 10.8C1.25 9.55005 1.5625 8.40422 2.1875 7.36255C2.8125 6.32088 3.64583 5.48755 4.6875 4.86255C5.72917 4.23755 6.875 3.92505 8.125 3.92505C9.375 3.92505 10.5208 4.23755 11.5625 4.86255C12.6042 5.48755 13.4375 6.32088 14.0625 7.36255C14.6875 8.40422 15 9.55005 15 10.8C15 12.05 14.6875 13.1959 14.0625 14.2375C13.4375 15.2792 12.6042 16.1125 11.5625 16.7375C10.5208 17.3625 9.375 17.675 8.125 17.675ZM13.125 10.8C13.125 10.9563 13.0599 11.0995 12.9297 11.2297C12.7995 11.3599 12.6562 11.425 12.5 11.425H8.125C7.96875 11.425 7.82552 11.3599 7.69531 11.2297C7.5651 11.0995 7.5 10.9563 7.5 10.8V6.42505C7.5 6.2688 7.5651 6.12557 7.69531 5.99536C7.82552 5.86515 7.96875 5.80005 8.125 5.80005C8.28125 5.80005 8.42448 5.86515 8.55469 5.99536C8.6849 6.12557 8.75 6.2688 8.75 6.42505V10.175H12.5C12.6562 10.175 12.7995 10.2402 12.9297 10.3704C13.0599 10.5006 13.125 10.6438 13.125 10.8Z" fill="#635B73"/>
</g>
</svg>
