<svg width="308" height="240" viewBox="0 0 308 240" fill="none" xmlns="http://www.w3.org/2000/svg">
<g clip-path="url(#clip0_661_1193)">
<path d="M156.287 240C239.799 240 307.5 209.977 307.5 172.943C307.5 135.908 239.799 105.886 156.287 105.886C72.7738 105.886 5.07324 135.908 5.07324 172.943C5.07324 209.977 72.7738 240 156.287 240Z" fill="url(#paint0_radial_661_1193)" fill-opacity="0.2"/>
<path d="M221.36 176.132C256.236 141.252 256.236 84.6994 221.36 49.8189C186.484 14.9385 129.938 14.9385 95.062 49.8189C60.1858 84.6994 60.1858 141.252 95.062 176.132C129.938 211.013 186.484 211.013 221.36 176.132Z" fill="#FFD52D" fill-opacity="0.1"/>
<path d="M177.485 203.017C155.403 203.017 134.107 194.968 117.541 180.344L118.503 179.264C134.814 193.653 155.757 201.584 177.485 201.584C226.692 201.584 266.713 161.557 266.713 112.344C266.713 63.1311 226.692 23.1049 177.485 23.1049C155.757 23.1049 134.794 31.0355 118.503 45.4245L117.541 44.3449C134.107 29.7203 155.403 21.6719 177.485 21.6719C227.477 21.6719 268.166 62.3459 268.166 112.364C268.166 162.343 227.497 203.017 177.485 203.017Z" fill="#C6B5E2"/>
<path d="M2.40398 111.461C0.500072 108.379 0.029002 103.942 0.990769 98.1319L4.19012 78.8353C5.17151 72.8873 7.11467 68.4116 10.0196 65.3689C12.9245 62.3262 17.2819 60.8147 23.0918 60.8147C28.6465 60.8147 32.3562 62.1496 34.2208 64.8389C36.0855 67.5283 36.5958 71.3758 35.7714 76.3815L35.0255 80.8965H24.2498L25.0742 75.9104C25.3294 74.3203 25.4668 73.0247 25.4864 72.0432C25.4864 71.0617 25.2312 70.2569 24.6816 69.6091C24.1321 68.9613 23.1899 68.6472 21.8552 68.6472C19.8336 68.6472 18.44 69.295 17.6352 70.571C16.8305 71.8666 16.2416 73.7511 15.8295 76.2245L11.7665 100.723C11.3543 103.255 11.3739 105.14 11.845 106.377C12.3161 107.613 13.4545 108.242 15.2995 108.242C17.1838 108.242 18.4989 107.613 19.2447 106.337C19.9906 105.081 20.5794 103.197 20.972 100.723L21.8356 95.4622H32.5917L31.8458 99.9183C31.0018 105.061 29.1961 109.046 26.4482 111.853C23.7002 114.661 19.5195 116.074 13.9256 116.074C8.15495 116.094 4.30788 114.543 2.40398 111.461Z" fill="#FFD52D" fill-opacity="0.1"/>
<path d="M39.5988 111.598C37.636 108.614 37.1257 104.198 38.0874 98.3871L41.4045 78.3053C42.3663 72.4947 44.3291 68.1368 47.2733 65.2119C50.2175 62.287 54.5749 60.8147 60.3651 60.8147C66.0964 60.8147 69.9631 62.287 71.9652 65.2315C73.9672 68.1761 74.4776 72.534 73.5354 78.3053L70.1987 98.4656C69.2369 104.237 67.2741 108.614 64.2907 111.598C61.3072 114.582 56.9498 116.094 51.2185 116.094C45.4283 116.094 41.5616 114.582 39.5988 111.598ZM56.6162 106.337C57.4798 105.081 58.0883 103.334 58.4612 101.116L62.6812 75.6356C63.0541 73.4173 63.0149 71.7095 62.5634 70.4728C62.112 69.2557 60.9539 68.6472 59.0697 68.6472C57.1854 68.6472 55.8311 69.2557 54.9674 70.4728C54.1234 71.6899 53.515 73.4173 53.142 75.6356L48.922 101.116C48.5491 103.373 48.5687 105.12 49.0005 106.377C49.4127 107.613 50.5904 108.242 52.5139 108.242C54.3982 108.242 55.7525 107.613 56.6162 106.337Z" fill="#FFD52D" fill-opacity="0.1"/>
<path d="M84.4289 61.4822H96.186L97.2852 95.4622L110.024 61.4822H121.369L113.459 115.348H105.391L110.573 78.7568L97.5403 115.348H90.6902L89.591 78.5605L82.7016 115.348H74.5757L84.4289 61.4822Z" fill="#FFD52D" fill-opacity="0.1"/>
<path d="M130.515 61.4822H141.527L132.615 115.348H121.604L130.515 61.4822Z" fill="#FFD52D" fill-opacity="0.1"/>
<path d="M149.79 61.4822H157.523L164.982 89.475L169.614 61.4822H178.819L169.889 115.348H162.43L155.266 85.5489L150.339 115.348H140.859L149.79 61.4822Z" fill="#FFD52D" fill-opacity="0.1"/>
<path d="M181.332 111.323C179.605 108.104 179.232 103.511 180.233 97.5234L183.216 79.5027C184.237 73.3781 186.2 68.7453 189.124 65.5652C192.049 62.4048 196.406 60.8147 202.236 60.8147C207.83 60.8147 211.598 62.1692 213.522 64.8782C215.445 67.5872 215.995 71.4936 215.151 76.5778L214.64 79.699H203.884L204.512 75.9104C204.925 73.437 204.944 71.5917 204.571 70.4139C204.198 69.2361 203.04 68.6472 201.058 68.6472C199.036 68.6472 197.643 69.3146 196.838 70.6495C196.033 71.9843 195.425 73.9081 195.013 76.4404L191.048 100.389C190.636 102.922 190.675 104.865 191.165 106.2C191.656 107.554 192.893 108.222 194.856 108.222C196.779 108.222 198.251 107.496 199.272 106.063C200.292 104.63 201.019 102.608 201.451 100.036L202.393 94.3236H197.093L198.192 87.6689H213.502L208.929 115.348H201.666L201.725 110.558C199.448 114.288 196.171 116.153 191.872 116.153C186.573 116.153 183.059 114.543 181.332 111.323Z" fill="#FFD52D" fill-opacity="0.1"/>
<path d="M89.1003 175.809C87.0394 173.081 86.3721 168.86 87.0983 163.148L96.8926 161.558C96.4215 164.973 96.4804 167.486 97.0889 169.115C97.6974 170.745 98.875 171.549 100.622 171.549C101.917 171.549 102.938 171.137 103.645 170.313C104.371 169.488 104.822 168.448 105.038 167.152C105.391 165.032 105.215 163.226 104.489 161.734C103.762 160.242 102.526 158.613 100.759 156.846L95.9112 151.998C93.9877 150.133 92.5941 148.13 91.7697 146.01C90.9257 143.89 90.7687 141.338 91.2594 138.355C91.9856 133.957 93.8503 130.581 96.873 128.206C99.8957 125.83 103.703 124.653 108.316 124.653C113.243 124.653 116.442 126.066 117.894 128.873C119.347 131.68 119.857 135.273 119.406 139.611L109.572 141.005C109.945 138.158 109.965 136.077 109.631 134.723C109.297 133.368 108.296 132.701 106.648 132.701C105.431 132.701 104.43 133.153 103.605 134.056C102.781 134.958 102.271 136.038 102.055 137.275C101.76 139.042 101.898 140.553 102.487 141.77C103.075 142.987 104.096 144.322 105.549 145.794L110.259 150.584C112.477 152.842 114.126 155.237 115.186 157.73C116.246 160.242 116.501 163.167 115.951 166.544C115.519 169.115 114.558 171.412 113.066 173.434C111.574 175.456 109.651 177.046 107.335 178.184C105.019 179.343 102.467 179.912 99.6994 179.912C94.6943 179.892 91.1613 178.538 89.1003 175.809Z" fill="#FFD52D" fill-opacity="0.1"/>
<path d="M123.233 175.397C121.271 172.413 120.76 167.996 121.722 162.186L125.039 142.123C126.001 136.313 127.964 131.955 130.908 129.03C133.852 126.105 138.209 124.633 144 124.633C149.731 124.633 153.598 126.105 155.6 129.05C157.602 131.994 158.112 136.352 157.17 142.123L153.833 162.284C152.871 168.055 150.909 172.433 147.925 175.416C144.942 178.4 140.584 179.912 134.853 179.912C129.063 179.892 125.196 178.4 123.233 175.397ZM140.251 170.155C141.114 168.899 141.723 167.152 142.096 164.934L146.316 139.454C146.689 137.235 146.649 135.528 146.198 134.291C145.747 133.074 144.588 132.465 142.704 132.465C140.82 132.465 139.466 133.074 138.602 134.291C137.758 135.508 137.149 137.235 136.777 139.454L132.557 164.934C132.184 167.191 132.203 168.938 132.635 170.195C133.047 171.431 134.225 172.06 136.148 172.06C138.013 172.04 139.387 171.412 140.251 170.155Z" fill="#FFD52D" fill-opacity="0.1"/>
<path d="M161.92 175.397C159.957 172.413 159.447 167.996 160.408 162.186L163.726 142.123C164.687 136.313 166.631 131.955 169.594 129.03C172.539 126.105 176.896 124.633 182.686 124.633C188.417 124.633 192.284 126.105 194.286 129.05C196.288 131.994 196.799 136.352 195.856 142.123L192.52 162.284C191.558 168.055 189.595 172.433 186.612 175.416C183.628 178.4 179.271 179.912 173.54 179.912C167.749 179.892 163.883 178.4 161.92 175.397ZM178.937 170.155C179.801 168.899 180.409 167.152 180.782 164.934L185.002 139.454C185.375 137.235 185.336 135.528 184.884 134.291C184.433 133.074 183.275 132.465 181.391 132.465C179.506 132.465 178.152 133.074 177.288 134.291C176.444 135.508 175.836 137.235 175.463 139.454L171.243 164.934C170.87 167.191 170.89 168.938 171.322 170.195C171.734 171.431 172.911 172.06 174.835 172.06C176.719 172.04 178.074 171.412 178.937 170.155Z" fill="#FFD52D" fill-opacity="0.1"/>
<path d="M206.004 125.281H213.737L221.196 153.273L225.828 125.281H235.034L226.123 179.146H218.664L211.5 149.367L206.573 179.166H197.093L206.004 125.281Z" fill="#FFD52D" fill-opacity="0.1"/>
<path d="M9.15593 104.708C7.25202 101.626 6.78096 97.1895 7.74272 91.379L10.9421 72.0824C11.9235 66.1344 13.8666 61.6587 16.7716 58.616C19.6765 55.5733 24.0339 54.0618 29.8437 54.0618C35.3984 54.0618 39.1081 55.3966 40.9728 58.086C42.8374 60.7753 43.3477 64.6229 42.5234 69.6286L41.7775 74.1436H31.0214L31.8458 69.1575C32.1009 67.5674 32.2383 66.2718 32.258 65.2903C32.258 64.3088 32.0028 63.5039 31.4532 62.8561C30.9036 62.2083 29.9615 61.8943 28.6268 61.8943C26.6051 61.8943 25.2116 62.5421 24.4068 63.818C23.6021 65.1136 23.0132 66.9981 22.601 69.4715L18.5184 93.9702C18.1063 96.5025 18.1259 98.387 18.597 99.6237C19.068 100.86 20.2064 101.489 22.0515 101.489C23.9357 101.489 25.2508 100.86 25.9967 99.5844C26.7425 98.3281 27.3314 96.4436 27.7239 93.9702L28.5876 88.7092H39.3436L38.5978 93.1653C37.7538 98.3085 35.948 102.293 33.2001 105.101C30.4522 107.908 26.2715 109.321 20.6775 109.321C14.9069 109.341 11.0598 107.79 9.15593 104.708Z" fill="#C6B5E2"/>
<path d="M46.3312 104.845C44.3684 101.862 43.8581 97.4447 44.8199 91.6342L48.137 71.5524C49.0987 65.7418 51.0615 61.3839 54.0057 58.459C56.9499 55.534 61.3073 54.0618 67.0975 54.0618C72.8289 54.0618 76.6956 55.534 78.6976 58.4786C80.6997 61.4231 81.21 65.7811 80.2678 71.5524L76.9311 91.7127C75.9693 97.484 74.0065 101.862 71.0231 104.845C68.0397 107.829 63.6823 109.341 57.9509 109.341C52.1803 109.341 48.3136 107.849 46.3312 104.845ZM63.3682 99.6041C64.2318 98.3477 64.8403 96.6006 65.2132 94.3824L69.4136 68.9023C69.7865 66.684 69.7473 64.9762 69.2958 63.7395C68.8444 62.5224 67.6864 61.9139 65.8021 61.9139C63.9178 61.9139 62.5635 62.5224 61.6998 63.7395C60.8558 64.9566 60.2474 66.684 59.8745 68.9023L55.6545 94.3824C55.2815 96.6399 55.3012 98.387 55.733 99.6433C56.1452 100.88 57.3228 101.508 59.2464 101.508C61.1306 101.489 62.5046 100.86 63.3682 99.6041Z" fill="#C6B5E2"/>
<path d="M91.1808 54.7292H102.938L104.037 88.7093L116.776 54.7292H128.121L120.211 108.595H112.143L117.325 72.0039L104.292 108.595H97.4421L96.343 71.8076L89.4536 108.595H81.3276L91.1808 54.7292Z" fill="#C6B5E2"/>
<path d="M137.247 54.7292H148.259L139.348 108.595H128.336L137.247 54.7292Z" fill="#C6B5E2"/>
<path d="M156.522 54.7292H164.256L171.714 82.722L176.346 54.7292H185.552L176.641 108.595H169.182L162.018 78.796L157.091 108.595H147.611L156.522 54.7292Z" fill="#C6B5E2"/>
<path d="M188.084 104.59C186.357 101.371 185.984 96.7772 186.985 90.79L189.968 72.7693C190.989 66.6447 192.952 62.0119 195.876 58.8318C198.801 55.6714 203.158 54.0813 208.988 54.0813C214.582 54.0813 218.35 55.4358 220.274 58.1448C222.197 60.8538 222.747 64.7602 221.903 69.8444L221.392 72.9656H210.636L211.264 69.177C211.677 66.7036 211.696 64.8583 211.323 63.6805C210.95 62.5027 209.792 61.9138 207.83 61.9138C205.808 61.9138 204.414 62.5812 203.61 63.9161C202.805 65.2509 202.196 67.1747 201.784 69.707L197.819 93.656C197.407 96.1883 197.446 98.1317 197.937 99.4665C198.428 100.821 199.664 101.488 201.627 101.488C203.551 101.488 205.023 100.762 206.043 99.3291C207.064 97.8961 207.79 95.8742 208.222 93.3026L209.164 87.5902H203.865L204.964 80.9355H220.274L215.7 108.614H208.438L208.497 103.824C206.22 107.554 202.942 109.419 198.644 109.419C193.305 109.399 189.811 107.79 188.084 104.59Z" fill="#C6B5E2"/>
<path d="M95.8523 169.056C93.7914 166.328 93.124 162.107 93.8503 156.395L103.645 154.805C103.174 158.22 103.232 160.733 103.841 162.362C104.449 163.992 105.627 164.796 107.374 164.796C108.669 164.796 109.69 164.384 110.397 163.56C111.123 162.735 111.574 161.695 111.79 160.399C112.143 158.279 111.967 156.473 111.241 154.981C110.514 153.489 109.278 151.86 107.511 150.093L102.663 145.245C100.74 143.38 99.3461 141.378 98.5217 139.257C97.6777 137.137 97.5207 134.585 98.0114 131.602C98.7376 127.204 100.602 123.828 103.625 121.453C106.648 119.077 110.455 117.9 115.068 117.9C119.995 117.9 123.194 119.313 124.646 122.12C126.099 124.927 126.609 128.52 126.158 132.858L116.324 134.252C116.697 131.405 116.717 129.325 116.383 127.97C116.049 126.616 115.048 125.948 113.4 125.948C112.183 125.948 111.182 126.4 110.357 127.303C109.533 128.206 109.023 129.285 108.807 130.522C108.512 132.289 108.65 133.8 109.239 135.017C109.827 136.234 110.848 137.569 112.3 139.041L117.011 143.831C119.229 146.089 120.878 148.484 121.938 150.977C122.998 153.489 123.253 156.414 122.703 159.791C122.271 162.362 121.31 164.659 119.818 166.681C118.326 168.703 116.403 170.293 114.087 171.431C111.771 172.59 109.219 173.159 106.451 173.159C101.446 173.139 97.9132 171.785 95.8523 169.056Z" fill="#C6B5E2"/>
<path d="M129.965 168.663C128.003 165.68 127.492 161.263 128.454 155.452L131.771 135.37C132.733 129.56 134.696 125.202 137.64 122.277C140.584 119.352 144.942 117.88 150.732 117.88C156.463 117.88 160.33 119.352 162.332 122.297C164.334 125.241 164.844 129.599 163.902 135.37L160.565 155.531C159.604 161.302 157.641 165.68 154.657 168.663C151.674 171.647 147.317 173.139 141.585 173.139C135.815 173.139 131.948 171.647 129.965 168.663ZM147.002 163.403C147.866 162.146 148.475 160.399 148.848 158.181L153.048 132.701C153.421 130.483 153.382 128.775 152.93 127.538C152.479 126.321 151.321 125.712 149.436 125.712C147.552 125.712 146.198 126.321 145.334 127.538C144.49 128.755 143.882 130.483 143.509 132.701L139.289 158.181C138.916 160.438 138.935 162.185 139.367 163.442C139.779 164.679 140.957 165.307 142.881 165.307C144.765 165.307 146.139 164.679 147.002 163.403Z" fill="#C6B5E2"/>
<path d="M168.652 168.663C166.689 165.68 166.179 161.263 167.141 155.452L170.478 135.37C171.439 129.56 173.383 125.202 176.346 122.277C179.291 119.352 183.648 117.88 189.438 117.88C195.17 117.88 199.036 119.352 201.038 122.297C203.04 125.241 203.551 129.599 202.609 135.37L199.272 155.531C198.31 161.302 196.347 165.68 193.364 168.663C190.38 171.647 186.023 173.159 180.292 173.159C174.501 173.139 170.635 171.647 168.652 168.663ZM185.689 163.403C186.553 162.146 187.161 160.399 187.534 158.181L191.735 132.701C192.108 130.483 192.068 128.775 191.617 127.538C191.165 126.321 190.007 125.712 188.123 125.712C186.239 125.712 184.885 126.321 184.021 127.538C183.177 128.755 182.568 130.483 182.195 132.701L177.976 158.181C177.603 160.438 177.622 162.185 178.054 163.442C178.466 164.679 179.644 165.307 181.567 165.307C183.452 165.307 184.826 164.679 185.689 163.403Z" fill="#C6B5E2"/>
<path d="M212.756 118.547H220.489L227.948 146.54L232.58 118.547H241.786L232.875 172.413H225.416L218.252 142.614L213.325 172.413H203.845L212.756 118.547Z" fill="#C6B5E2"/>
<path d="M249.598 -0.0222225L226.459 23.1167L227.486 24.144L250.625 1.00509L249.598 -0.0222225Z" fill="#C6B5E2"/>
<path d="M103.944 201.351L91.675 213.621L92.7021 214.648L104.971 202.378L103.944 201.351Z" fill="#C6B5E2"/>
<path d="M146.576 2.78155L127.714 21.6453L128.741 22.6724L147.603 3.80871L146.576 2.78155Z" fill="#C6B5E2"/>
<path d="M287.322 74.5034L255.581 106.248L256.608 107.275L288.349 75.5306L287.322 74.5034Z" fill="#C6B5E2"/>
<path d="M19.8727 45.5227C19.3035 44.7571 19.1072 43.5793 19.3231 41.9892L22.0514 41.5377C21.914 42.48 21.9336 43.1867 22.1102 43.6382C22.2869 44.0897 22.6009 44.3056 23.0916 44.3056C23.4449 44.3056 23.7394 44.1878 23.9356 43.9719C24.1319 43.7363 24.2693 43.4419 24.3282 43.0885C24.4263 42.4996 24.3675 41.9892 24.1712 41.577C23.9749 41.1648 23.6216 40.7133 23.1309 40.2225L21.7766 38.868C21.2466 38.3576 20.8541 37.7884 20.6185 37.1994C20.383 36.6105 20.3437 35.9038 20.4811 35.0597C20.6774 33.8427 21.2074 32.9004 22.0514 32.233C22.8954 31.5655 23.9553 31.2515 25.2311 31.2515C26.605 31.2515 27.4883 31.6441 27.9005 32.4293C28.3127 33.2145 28.4501 34.2156 28.3127 35.4131L25.5648 35.8057C25.6629 35.0205 25.6825 34.4316 25.5844 34.0586C25.4862 33.6856 25.2115 33.4893 24.76 33.4893C24.4263 33.4893 24.1319 33.6071 23.916 33.8623C23.6805 34.1175 23.5431 34.4119 23.4842 34.7653C23.4057 35.256 23.4449 35.6683 23.602 36.0216C23.759 36.3553 24.0534 36.7283 24.446 37.1406L25.761 38.4754C26.3891 39.1036 26.8406 39.771 27.135 40.4581C27.4294 41.1648 27.5079 41.9696 27.3509 42.9119C27.2331 43.6382 26.9583 44.2664 26.5462 44.8356C26.134 45.4049 25.604 45.8368 24.9563 46.1509C24.3086 46.4649 23.602 46.6416 22.8365 46.6416C21.4233 46.6612 20.4419 46.2686 19.8727 45.5227Z" fill="#C6B5E2"/>
<path d="M31.9241 33.7052H29.5884L29.9613 31.4478H37.7143L37.3414 33.7052H35.0449L32.9448 46.4453H29.8435L31.9241 33.7052Z" fill="#C6B5E2"/>
<path d="M40.7174 31.4478H44.1327L44.5645 46.4453H41.7185L41.6988 43.1474H39.3042L38.1854 46.4453H35.2805L40.7174 31.4478ZM41.7185 41.2629L41.797 35.2168L39.8931 41.2629H41.7185Z" fill="#C6B5E2"/>
<path d="M48.3919 40.4973L46.9395 31.4478H49.8444L50.5902 36.7283L52.9652 31.4478H55.7916L51.3754 40.4973L50.394 46.4453H47.4105L48.3919 40.4973Z" fill="#C6B5E2"/>
<path d="M62.8186 33.7052H60.4829L60.8558 31.4478H68.6089L68.2359 33.7052H65.9395L63.8393 46.4453H60.7381L62.8186 33.7052Z" fill="#C6B5E2"/>
<path d="M69.178 46.0921C68.6088 45.7191 68.2359 45.1694 68.0985 44.4431C67.9611 43.7364 67.9807 42.8138 68.1574 41.6949L69.8453 31.4282H72.868L71.1015 42.1071C70.9838 42.8334 70.9838 43.3831 71.0819 43.7953C71.1997 44.2075 71.5137 44.4038 72.0633 44.4038C72.6129 44.4038 73.0054 44.2075 73.241 43.7953C73.4765 43.3831 73.6728 42.8334 73.7906 42.1071L75.5571 31.4282H78.5994L76.8918 41.6949C76.7151 42.8138 76.4207 43.7168 76.0478 44.4431C75.6748 45.1498 75.1253 45.6994 74.4187 46.0921C73.712 46.465 72.8092 46.6613 71.6707 46.6613C70.5912 46.6613 69.7472 46.465 69.178 46.0921Z" fill="#C6B5E2"/>
<path d="M80.778 31.4478H82.9371L85.0177 39.241L86.3131 31.4478H88.8844L86.4113 46.4453H84.3111L82.309 38.1417L80.9351 46.4453H78.3049L80.778 31.4478Z" fill="#C6B5E2"/>
<path d="M91.1417 31.4478H97.7366L97.3833 33.5678H93.8503L93.183 37.5528H95.9112L95.5579 39.6925H92.8297L92.0446 44.4037H95.6168L95.2832 46.4846H88.6489L91.1417 31.4478Z" fill="#C6B5E2"/>
<path d="M99.3462 31.4478H103.056C104.332 31.4478 105.293 31.6048 105.961 31.9385C106.628 32.2722 107.06 32.763 107.237 33.45C107.433 34.1371 107.433 35.0401 107.256 36.159L106.353 41.6162C106.157 42.7548 105.863 43.6971 105.45 44.3841C105.038 45.0908 104.449 45.6012 103.684 45.9349C102.918 46.2686 101.917 46.4453 100.661 46.4453H96.873L99.3462 31.4478ZM100.975 44.3252C101.505 44.3252 101.917 44.2467 102.212 44.07C102.487 43.913 102.703 43.6578 102.82 43.3437C102.938 43.0296 103.056 42.5585 103.154 41.95L104.175 35.7468C104.273 35.1775 104.292 34.7456 104.273 34.4512C104.234 34.1567 104.116 33.9408 103.88 33.8034C103.664 33.666 103.272 33.5875 102.742 33.5875H102.094L100.328 44.3056H100.975V44.3252Z" fill="#C6B5E2"/>
<path d="M107.766 43.7953H110.455L110.023 46.4453H107.334L107.766 43.7953ZM109.847 31.4871H112.673L109.788 42.7745H108.787L109.847 31.4871Z" fill="#C6B5E2"/>
<path d="M74.8112 146.874C75.8122 133.741 74.9093 122.297 72.7503 116.604C52.1213 129.305 29.824 134.801 24.8974 135.92L23.445 154.804C26.2518 155.707 34.9469 158.652 45.4282 163.716L45.3497 164.757C45.2319 166.347 43.8383 167.623 42.2485 167.564L20.7952 166.916C19.2053 166.877 18.008 165.522 18.1258 163.932L18.9502 153.136L20.5204 153.175L21.7373 137.314L12.1197 137.019C11.5701 137 11.099 137.608 10.6868 138.59L7.58562 138.492C5.54431 138.433 4.58255 151.075 6.62385 151.114L9.72506 151.212C9.98022 152.213 10.3531 152.841 10.9027 152.861L15.7508 152.998L14.9265 163.795C14.6713 167.171 17.2033 169.998 20.5597 170.096L42.013 170.744C45.2516 170.842 48.0976 168.388 48.5294 165.189C54.8496 168.388 61.6212 172.295 68.0984 176.947C71.1211 171.49 73.7905 160.104 74.8112 146.874Z" fill="#C6B5E2"/>
<path d="M78.2658 112.992C77.304 112.972 76.3423 113.64 75.4001 114.916C78.1284 119.725 79.3846 132.288 78.2658 146.972C77.147 161.714 73.9477 174.18 70.4932 178.753C70.5324 178.773 70.5717 178.812 70.6109 178.832C71.3372 180.069 72.1812 180.756 73.1037 180.795C77.5396 180.932 82.2895 165.856 83.7224 147.129C85.1356 128.421 82.7017 113.129 78.2658 112.992Z" fill="#C6B5E2"/>
<path d="M83.899 22.6534C80.1893 22.6534 77.1863 19.6304 77.1863 15.9399C77.1863 12.2298 80.209 9.22632 83.899 9.22632C87.6087 9.22632 90.6118 12.2494 90.6118 15.9399C90.6118 19.6304 87.6087 22.6534 83.899 22.6534ZM83.899 10.6593C80.9941 10.6593 78.6191 13.0346 78.6191 15.9399C78.6191 18.8452 80.9941 21.2204 83.899 21.2204C86.8039 21.2204 89.1789 18.8452 89.1789 15.9399C89.1593 13.0346 86.8039 10.6593 83.899 10.6593Z" fill="#C6B5E2"/>
</g>
<defs>
<radialGradient id="paint0_radial_661_1193" cx="0" cy="0" r="1" gradientUnits="userSpaceOnUse" gradientTransform="translate(156.287 172.949) scale(151.217 67.0452)">
<stop stop-color="#6B6B6B"/>
<stop offset="0.1554" stop-color="#939393"/>
<stop offset="0.3326" stop-color="#BABABA"/>
<stop offset="0.5085" stop-color="#D8D8D8"/>
<stop offset="0.6805" stop-color="#EEEEEE"/>
<stop offset="0.8465" stop-color="#FBFBFB"/>
<stop offset="1" stop-color="white"/>
</radialGradient>
<clipPath id="clip0_661_1193">
<rect width="307" height="240" fill="white" transform="translate(0.5)"/>
</clipPath>
</defs>
</svg>
