<svg width="24" height="25" viewBox="0 0 24 25" fill="none" xmlns="http://www.w3.org/2000/svg">
<g id="GraduationCap" clip-path="url(#clip0_99_11598)">
<path id="Vector" d="M23.6023 9.588L12.3523 3.588C12.2438 3.53022 12.1227 3.5 11.9998 3.5C11.8768 3.5 11.7558 3.53022 11.6473 3.588L0.397266 9.588C0.27727 9.65195 0.176916 9.74732 0.106941 9.8639C0.036965 9.98049 0 10.1139 0 10.2499C0 10.3858 0.036965 10.5193 0.106941 10.6358C0.176916 10.7524 0.27727 10.8478 0.397266 10.9118L2.99977 12.3002V16.8396C2.99899 17.208 3.13457 17.5636 3.38039 17.838C4.60852 19.2058 7.36008 21.4999 11.9998 21.4999C13.5382 21.5126 15.065 21.2339 16.4998 20.6786V23.7499C16.4998 23.9488 16.5788 24.1396 16.7194 24.2802C16.8601 24.4209 17.0509 24.4999 17.2498 24.4999C17.4487 24.4999 17.6394 24.4209 17.7801 24.2802C17.9207 24.1396 17.9998 23.9488 17.9998 23.7499V19.9539C18.9778 19.3894 19.8616 18.6754 20.6191 17.838C20.865 17.5636 21.0005 17.208 20.9998 16.8396V12.3002L23.6023 10.9118C23.7223 10.8478 23.8226 10.7524 23.8926 10.6358C23.9626 10.5193 23.9995 10.3858 23.9995 10.2499C23.9995 10.1139 23.9626 9.98049 23.8926 9.8639C23.8226 9.74732 23.7223 9.65195 23.6023 9.588ZM11.9998 19.9999C7.9432 19.9999 5.55727 18.018 4.49977 16.8396V13.0999L11.6473 16.9118C11.7558 16.9695 11.8768 16.9998 11.9998 16.9998C12.1227 16.9998 12.2438 16.9695 12.3523 16.9118L16.4998 14.7002V19.0446C15.3185 19.5958 13.8298 19.9999 11.9998 19.9999ZM19.4998 16.8358C19.0502 17.3347 18.5472 17.7827 17.9998 18.1718V13.8996L19.4998 13.0999V16.8358ZM17.6248 12.4005L17.6041 12.3883L12.3541 9.588C12.179 9.49853 11.9757 9.48145 11.7881 9.54044C11.6004 9.59943 11.4435 9.72976 11.351 9.90337C11.2586 10.077 11.238 10.2799 11.2938 10.4686C11.3495 10.6572 11.4771 10.8163 11.6491 10.9118L16.031 13.2499L11.9998 15.3996L2.34352 10.2499L11.9998 5.10019L21.656 10.2499L17.6248 12.4005Z" fill="#06030D"/>
</g>
<defs>
<clipPath id="clip0_99_11598">
<rect width="24" height="24" fill="white" transform="translate(0 0.5)"/>
</clipPath>
</defs>
</svg>
