<svg width="12" height="7" viewBox="0 0 12 7" fill="none" xmlns="http://www.w3.org/2000/svg">
<path d="M0.646521 5.64646L5.64652 0.64646C5.69296 0.599972 5.7481 0.563092 5.8088 0.53793C5.8695 0.512768 5.93456 0.499817 6.00027 0.499817C6.06598 0.499817 6.13104 0.512768 6.19174 0.53793C6.25244 0.563092 6.30759 0.599972 6.35402 0.64646L11.354 5.64646C11.4478 5.74028 11.5005 5.86753 11.5005 6.00021C11.5005 6.13289 11.4478 6.26014 11.354 6.35396C11.2602 6.44778 11.133 6.50049 11.0003 6.50049C10.8676 6.50049 10.7403 6.44778 10.6465 6.35396L6.00027 1.70709L1.35402 6.35396C1.30757 6.40042 1.25242 6.43727 1.19172 6.46241C1.13102 6.48755 1.06597 6.50049 1.00027 6.50049C0.934573 6.50049 0.869519 6.48755 0.808823 6.46241C0.748126 6.43727 0.692976 6.40042 0.646521 6.35396C0.600066 6.30751 0.563216 6.25236 0.538074 6.19166C0.512933 6.13096 0.499992 6.06591 0.499992 6.00021C0.499992 5.93451 0.512933 5.86946 0.538074 5.80876C0.563216 5.74807 0.600066 5.69292 0.646521 5.64646Z" fill="#9A93A5"/>
</svg>
