<svg width="30" height="30" viewBox="0 0 30 30" fill="none" xmlns="http://www.w3.org/2000/svg">
<g clip-path="url(#clip0_758_5641)">
<rect x="2" y="2" width="26" height="26" rx="13" fill="#7355A8"/>
<path d="M7.41797 18.7305V21.1087C7.41797 21.3277 7.59007 21.4998 7.80912 21.4998H10.1873C10.289 21.4998 10.3907 21.4607 10.4611 21.3825L19.0038 12.8476L16.0702 9.91399L7.53531 18.4489C7.45708 18.5271 7.41797 18.621 7.41797 18.7305ZM21.2725 10.5789C21.5776 10.2739 21.5776 9.781 21.2725 9.47591L19.4419 7.64533C19.1368 7.34023 18.644 7.34023 18.3389 7.64533L16.9073 9.07693L19.8409 12.0106L21.2725 10.5789Z" fill="#FCFCFC"/>
</g>
<rect x="1" y="1" width="28" height="28" rx="14" stroke="#FCFCFC" stroke-width="2"/>
<defs>
<clipPath id="clip0_758_5641">
<rect x="2" y="2" width="26" height="26" rx="13" fill="white"/>
</clipPath>
</defs>
</svg>
