<svg width="202" height="202" viewBox="0 0 202 202" fill="none" xmlns="http://www.w3.org/2000/svg">
<circle cx="101" cy="101" r="101" fill="#504B4B"/>
<path d="M113.414 94.1722L107.829 88.5859C107.643 88.4002 107.423 88.2528 107.18 88.1523C106.937 88.0517 106.677 88 106.414 88C106.152 88 105.892 88.0517 105.649 88.1523C105.406 88.2528 105.186 88.4002 105 88.5859L89.5863 104.001C89.3997 104.186 89.2519 104.406 89.1512 104.649C89.0506 104.892 88.9992 105.152 89 105.415V111.001C89 111.531 89.2107 112.04 89.5858 112.415C89.9609 112.79 90.4696 113.001 91 113.001H96.5863C96.849 113.002 97.1093 112.95 97.352 112.85C97.5947 112.749 97.815 112.601 98 112.415L113.414 97.0009C113.6 96.8152 113.747 96.5947 113.847 96.352C113.948 96.1094 114 95.8493 114 95.5866C114 95.3239 113.948 95.0638 113.847 94.8211C113.747 94.5784 113.6 94.3579 113.414 94.1722ZM96.5863 111.001H91V105.415L102 94.4147L107.586 100.001L96.5863 111.001ZM109 98.5859L103.414 93.0009L106.414 90.0009L112 95.5859L109 98.5859Z" fill="white" fill-opacity="0.7"/>
</svg>