<svg width="16" height="16" viewBox="0 0 16 16" fill="none" xmlns="http://www.w3.org/2000/svg">
<g id="vuesax/linear/filter">
<g id="filter">
<path id="Vector" d="M3.59896 1H12.399C13.1323 1 13.7323 1.6 13.7323 2.33333V3.8C13.7323 4.33333 13.399 5 13.0656 5.33333L10.199 7.86667C9.79896 8.2 9.53229 8.86667 9.53229 9.4V12.2667C9.53229 12.6667 9.26563 13.2 8.93229 13.4L7.99896 14C7.13229 14.5333 5.93229 13.9333 5.93229 12.8667V9.33333C5.93229 8.86667 5.66563 8.26667 5.39896 7.93333L2.86563 5.26667C2.53229 4.93333 2.26562 4.33333 2.26562 3.93333V2.4C2.26562 1.6 2.86563 1 3.59896 1Z" stroke="#787486" stroke-width="1.3" stroke-miterlimit="10" stroke-linecap="round" stroke-linejoin="round"/>
</g>
</g>
</svg>
