<svg width="16" height="16" viewBox="0 0 16 16" fill="none" xmlns="http://www.w3.org/2000/svg">
<g id="FingerprintSimple">
<path id="Vector" d="M11.4988 8C11.5022 10.0203 11.1085 12.0216 10.34 13.89C10.3027 13.9822 10.2388 14.0611 10.1564 14.1168C10.0741 14.1725 9.97696 14.2023 9.87753 14.2025C9.81323 14.2019 9.74962 14.1892 9.69003 14.165C9.62922 14.1401 9.57392 14.1034 9.52731 14.057C9.48069 14.0107 9.44367 13.9556 9.41836 13.8949C9.39305 13.8343 9.37995 13.7692 9.37981 13.7035C9.37967 13.6378 9.39248 13.5727 9.41753 13.5119C10.1358 11.7632 10.5032 9.89042 10.4988 8C10.4988 7.8674 10.5515 7.74022 10.6452 7.64645C10.739 7.55268 10.8662 7.5 10.9988 7.5C11.1314 7.5 11.2586 7.55268 11.3523 7.64645C11.4461 7.74022 11.4988 7.8674 11.4988 8ZM7.99878 5.5C8.35043 5.50025 8.69808 5.57457 9.01909 5.71811C9.3401 5.86166 9.62727 6.07121 9.86191 6.33313C9.90536 6.38325 9.95834 6.42422 10.0178 6.45366C10.0772 6.4831 10.1419 6.50042 10.2081 6.50462C10.2743 6.50881 10.3407 6.49978 10.4034 6.47808C10.466 6.45637 10.5238 6.4224 10.5732 6.37816C10.6226 6.33392 10.6627 6.28029 10.6912 6.22039C10.7197 6.1605 10.736 6.09553 10.7392 6.02927C10.7423 5.96301 10.7322 5.8968 10.7095 5.83447C10.6868 5.77215 10.6519 5.71497 10.6069 5.66625C10.1343 5.13812 9.51245 4.76592 8.82368 4.59888C8.13491 4.43184 7.41166 4.47784 6.7496 4.7308C6.08754 4.98375 5.51788 5.43174 5.11597 6.01549C4.71406 6.59925 4.49884 7.29127 4.49878 8C4.49872 9.4397 4.13313 10.8558 3.43628 12.1156C3.40444 12.1731 3.38422 12.2362 3.37679 12.3015C3.36935 12.3668 3.37484 12.4329 3.39295 12.496C3.41106 12.5592 3.44143 12.6181 3.48232 12.6695C3.52321 12.7209 3.57383 12.7638 3.63128 12.7956C3.68874 12.8275 3.7519 12.8477 3.81717 12.8551C3.88243 12.8626 3.94853 12.8571 4.01167 12.839C4.07481 12.8209 4.13377 12.7905 4.18518 12.7496C4.23659 12.7087 4.27944 12.6581 4.31128 12.6006C5.09006 11.1923 5.49865 9.60933 5.49878 8C5.49878 7.33696 5.76218 6.70108 6.23102 6.23224C6.69986 5.7634 7.33574 5.5 7.99878 5.5ZM7.99878 1.5C7.2607 1.49912 6.52788 1.62425 5.83191 1.87C5.70911 1.91592 5.60926 2.00822 5.55386 2.12703C5.49845 2.24584 5.49193 2.38166 5.53569 2.50524C5.57945 2.62882 5.66999 2.73027 5.78782 2.78774C5.90565 2.84521 6.04134 2.8541 6.16566 2.8125C6.99538 2.51994 7.88316 2.43057 8.75455 2.5519C9.62594 2.67322 10.4555 3.0017 11.1738 3.5098C11.892 4.01789 12.478 4.69079 12.8825 5.47206C13.2871 6.25333 13.4984 7.12021 13.4988 8C13.4994 9.30856 13.3539 10.6131 13.065 11.8894C13.0357 12.0184 13.0587 12.1538 13.1289 12.2659C13.1992 12.378 13.3111 12.4577 13.44 12.4875C13.4765 12.4959 13.5138 12.5001 13.5513 12.5C13.6646 12.5 13.7746 12.4614 13.8632 12.3907C13.9518 12.3199 14.0137 12.2212 14.0388 12.1106C14.3442 10.7617 14.4985 9.38304 14.4988 8C14.497 6.27666 13.8116 4.62441 12.593 3.40582C11.3744 2.18723 9.72213 1.50182 7.99878 1.5ZM4.33253 3.90125C4.38149 3.85747 4.42135 3.80447 4.44982 3.74528C4.4783 3.68608 4.49483 3.62187 4.49849 3.55628C4.50215 3.4907 4.49285 3.42504 4.47113 3.36306C4.44941 3.30107 4.4157 3.24396 4.37191 3.195C4.32812 3.14605 4.27512 3.10619 4.21593 3.07772C4.15674 3.04924 4.09252 3.0327 4.02694 3.02905C3.96136 3.02539 3.8957 3.03469 3.83371 3.05641C3.77172 3.07813 3.71462 3.11184 3.66566 3.15563C2.98452 3.76565 2.43953 4.51232 2.06618 5.34699C1.69283 6.18167 1.4995 7.08563 1.49878 8C1.50018 8.79097 1.32957 9.57278 0.998783 10.2913C0.97137 10.3509 0.955978 10.4154 0.953485 10.481C0.950993 10.5466 0.96145 10.6121 0.984258 10.6737C1.03032 10.798 1.1239 10.899 1.24441 10.9544C1.36492 11.0097 1.50248 11.015 1.62684 10.9689C1.7512 10.9228 1.85217 10.8293 1.90753 10.7088C2.2987 9.85939 2.50044 8.93511 2.49878 8C2.49945 7.22634 2.66308 6.4615 2.97903 5.75529C3.29499 5.04908 3.75617 4.41735 4.33253 3.90125ZM7.11878 12.5463C7.05911 12.5188 6.99463 12.5034 6.92901 12.5009C6.86339 12.4985 6.79792 12.5089 6.73635 12.5317C6.67477 12.5545 6.61829 12.5892 6.57012 12.6339C6.52196 12.6785 6.48307 12.7322 6.45566 12.7919C6.33566 13.0544 6.20566 13.3163 6.06253 13.5694C6.03056 13.6269 6.01024 13.6901 6.00274 13.7554C5.99524 13.8207 6.0007 13.8869 6.01882 13.9502C6.03693 14.0134 6.06734 14.0724 6.1083 14.1239C6.14927 14.1753 6.19998 14.2182 6.25753 14.25C6.33145 14.2913 6.41475 14.3128 6.49941 14.3125C6.58868 14.3125 6.67633 14.2887 6.75327 14.2434C6.8302 14.1981 6.89361 14.1331 6.93691 14.055C7.08941 13.7794 7.23316 13.4925 7.36441 13.21C7.39192 13.1503 7.4074 13.0858 7.40994 13.0201C7.41248 12.9544 7.40205 12.8888 7.37924 12.8272C7.35642 12.7655 7.32168 12.709 7.27698 12.6608C7.23229 12.6126 7.17853 12.5737 7.11878 12.5463ZM7.99878 7.5C7.86617 7.5 7.739 7.55268 7.64523 7.64645C7.55146 7.74022 7.49878 7.8674 7.49878 8C7.49915 8.96972 7.37757 9.93563 7.13691 10.875C7.10388 11.0034 7.12318 11.1396 7.19057 11.2538C7.25796 11.3679 7.36792 11.4507 7.49628 11.4838C7.53714 11.4941 7.57913 11.4994 7.62128 11.4994C7.73207 11.4993 7.83969 11.4624 7.92724 11.3946C8.0148 11.3267 8.07734 11.2316 8.10503 11.1244C8.36707 10.1034 8.49937 9.05345 8.49878 7.99938C8.49862 7.86688 8.44587 7.73986 8.35212 7.64623C8.25837 7.5526 8.13128 7.5 7.99878 7.5Z" fill="#635B73"/>
</g>
</svg>
