<svg width="16" height="17" viewBox="0 0 16 17" fill="none" xmlns="http://www.w3.org/2000/svg">
<g id="GraduationCap" clip-path="url(#clip0_1370_1610)">
<path id="Vector" d="M15.7348 6.55867L8.23484 2.55867C8.1625 2.52015 8.0818 2.5 7.99984 2.5C7.91789 2.5 7.83718 2.52015 7.76484 2.55867L0.264844 6.55867C0.184846 6.6013 0.117944 6.66488 0.0712937 6.7426C0.0246433 6.82033 0 6.90927 0 6.99992C0 7.09057 0.0246433 7.17951 0.0712937 7.25723C0.117944 7.33495 0.184846 7.39853 0.264844 7.44117L1.99984 8.36679V11.393C1.99932 11.6386 2.08971 11.8757 2.25359 12.0587C3.07234 12.9705 4.90672 14.4999 7.99984 14.4999C9.02544 14.5084 10.0434 14.3226 10.9998 13.9524V15.9999C10.9998 16.1325 11.0525 16.2597 11.1463 16.3535C11.2401 16.4472 11.3672 16.4999 11.4998 16.4999C11.6325 16.4999 11.7596 16.4472 11.8534 16.3535C11.9472 16.2597 11.9998 16.1325 11.9998 15.9999V13.4693C12.6518 13.0929 13.241 12.617 13.7461 12.0587C13.91 11.8757 14.0004 11.6386 13.9998 11.393V8.36679L15.7348 7.44117C15.8148 7.39853 15.8817 7.33495 15.9284 7.25723C15.975 7.17951 15.9997 7.09057 15.9997 6.99992C15.9997 6.90927 15.975 6.82033 15.9284 6.7426C15.8817 6.66488 15.8148 6.6013 15.7348 6.55867ZM7.99984 13.4999C5.29547 13.4999 3.70484 12.1787 2.99984 11.393V8.89992L7.76484 11.4412C7.83718 11.4797 7.91789 11.4998 7.99984 11.4998C8.0818 11.4998 8.1625 11.4797 8.23484 11.4412L10.9998 9.96679V12.863C10.2123 13.2305 9.21984 13.4999 7.99984 13.4999ZM12.9998 11.3905C12.7001 11.7231 12.3648 12.0218 11.9998 12.2812V9.43304L12.9998 8.89992V11.3905ZM11.7498 8.43367L11.7361 8.42554L8.23609 6.55867C8.11932 6.49902 7.98379 6.48764 7.8587 6.52696C7.73361 6.56629 7.62898 6.65318 7.56734 6.76891C7.50571 6.88464 7.492 7.01996 7.52917 7.1457C7.56635 7.27145 7.65143 7.37755 7.76609 7.44117L10.6873 8.99992L7.99984 10.433L1.56234 6.99992L7.99984 3.56679L14.4373 6.99992L11.7498 8.43367Z" fill="#06030D"/>
</g>
<defs>
<clipPath id="clip0_1370_1610">
<rect width="16" height="16" fill="white" transform="translate(0 0.5)"/>
</clipPath>
</defs>
</svg>
