<svg width="17" height="17" viewBox="0 0 17 17" fill="none" xmlns="http://www.w3.org/2000/svg">
<g id="Icon">
<path id="Vector" d="M15.1593 10.0562C15.0986 10.0908 15.0317 10.1131 14.9624 10.1218C14.8931 10.1306 14.8227 10.1255 14.7554 10.107C14.688 10.0885 14.625 10.0569 14.5698 10.014C14.5147 9.97111 14.4686 9.91776 14.4341 9.85702L13.1724 7.65233C12.4389 8.1483 11.6297 8.52194 10.7765 8.75866L11.1663 11.0975C11.1778 11.1663 11.1756 11.2368 11.1598 11.3048C11.1441 11.3728 11.1151 11.437 11.0745 11.4938C11.034 11.5506 10.9826 11.5989 10.9233 11.6358C10.8641 11.6728 10.7982 11.6976 10.7293 11.7091C10.701 11.7137 10.6723 11.7162 10.6436 11.7164C10.518 11.7162 10.3964 11.6715 10.3006 11.5901C10.2048 11.5088 10.1409 11.3961 10.1204 11.2721L9.7372 8.9758C8.92916 9.08825 8.10945 9.08825 7.30142 8.9758L6.91825 11.2721C6.89763 11.3963 6.83357 11.5092 6.73749 11.5906C6.64141 11.6719 6.51955 11.7165 6.39364 11.7164C6.36428 11.7163 6.33497 11.7138 6.30599 11.7091C6.23712 11.6976 6.17119 11.6728 6.11195 11.6358C6.05272 11.5989 6.00134 11.5506 5.96076 11.4938C5.92018 11.437 5.89119 11.3728 5.87545 11.3048C5.85971 11.2368 5.85753 11.1663 5.86903 11.0975L6.26083 8.75866C5.40793 8.52119 4.59921 8.14688 3.86622 7.65034L2.60849 9.85702C2.53804 9.97977 2.42171 10.0695 2.2851 10.1065C2.14848 10.1435 2.00277 10.1247 1.88001 10.0542C1.75725 9.98379 1.66751 9.86747 1.63052 9.73085C1.59354 9.59424 1.61234 9.44852 1.68278 9.32577L3.01091 7.00155C2.5444 6.59851 2.11543 6.15398 1.72927 5.67342C1.68111 5.61965 1.64441 5.55663 1.62142 5.48821C1.59843 5.41978 1.58962 5.34739 1.59554 5.27545C1.60145 5.20351 1.62197 5.13353 1.65583 5.06978C1.68969 5.00603 1.73619 4.94985 1.79248 4.90467C1.84878 4.85949 1.91369 4.82626 1.98326 4.807C2.05282 4.78774 2.12559 4.78286 2.1971 4.79266C2.26862 4.80245 2.33739 4.82672 2.39921 4.86398C2.46104 4.90124 2.51462 4.9507 2.55669 5.00936C3.65903 6.37334 5.58747 7.99764 8.51864 7.99764C11.4498 7.99764 13.3783 6.37135 14.4806 5.00936C14.5222 4.9495 14.5757 4.89885 14.6377 4.86054C14.6997 4.82223 14.7689 4.79709 14.841 4.78669C14.9132 4.77629 14.9867 4.78084 15.057 4.80006C15.1273 4.81929 15.1929 4.85278 15.2497 4.89844C15.3065 4.94411 15.3533 5.00098 15.3872 5.06551C15.4211 5.13004 15.4413 5.20085 15.4467 5.27355C15.452 5.34624 15.4424 5.41925 15.4183 5.48804C15.3942 5.55684 15.3562 5.61994 15.3067 5.67342C14.9205 6.15398 14.4916 6.59851 14.025 7.00155L15.3532 9.32577C15.3888 9.38635 15.4121 9.45341 15.4216 9.52306C15.4312 9.59271 15.4268 9.66355 15.4088 9.7315C15.3907 9.79944 15.3594 9.86313 15.3166 9.91888C15.2737 9.97462 15.2203 10.0213 15.1593 10.0562Z" fill="#614298"/>
</g>
</svg>
