<svg width="24" height="24" viewBox="0 0 24 24" fill="none" xmlns="http://www.w3.org/2000/svg">
<path id="Vector" d="M12 0C9.62663 0 7.30655 0.703788 5.33316 2.02236C3.35977 3.34094 1.8217 5.21508 0.913451 7.4078C0.00519938 9.60051 -0.232441 12.0133 0.230582 14.3411C0.693605 16.6689 1.83649 18.807 3.51472 20.4853C5.19295 22.1635 7.33115 23.3064 9.65892 23.7694C11.9867 24.2324 14.3995 23.9948 16.5922 23.0865C18.7849 22.1783 20.6591 20.6402 21.9776 18.6668C23.2962 16.6934 24 14.3734 24 12C23.9966 8.81843 22.7313 5.76814 20.4816 3.51843C18.2319 1.26872 15.1816 0.00335979 12 0ZM12 22.1538C9.99176 22.1538 8.02862 21.5583 6.35883 20.4426C4.68904 19.3269 3.38759 17.7411 2.61907 15.8857C1.85055 14.0303 1.64947 11.9887 2.04126 10.0191C2.43305 8.04943 3.40011 6.24019 4.82015 4.82015C6.24019 3.40011 8.04943 2.43305 10.0191 2.04126C11.9887 1.64947 14.0303 1.85055 15.8857 2.61907C17.7411 3.38759 19.3269 4.68903 20.4426 6.35882C21.5583 8.02861 22.1538 9.99176 22.1538 12C22.1508 14.692 21.08 17.2729 19.1765 19.1765C17.2729 21.08 14.692 22.1508 12 22.1538ZM17.5385 12C17.5385 12.2448 17.4412 12.4796 17.2681 12.6527C17.095 12.8258 16.8602 12.9231 16.6154 12.9231H9.6127L11.73 15.0392C11.8158 15.125 11.8838 15.2268 11.9302 15.3389C11.9766 15.4509 12.0005 15.571 12.0005 15.6923C12.0005 15.8136 11.9766 15.9337 11.9302 16.0457C11.8838 16.1578 11.8158 16.2596 11.73 16.3454C11.6442 16.4311 11.5424 16.4992 11.4304 16.5456C11.3183 16.592 11.1982 16.6159 11.0769 16.6159C10.9556 16.6159 10.8355 16.592 10.7235 16.5456C10.6114 16.4992 10.5096 16.4311 10.4238 16.3454L6.73154 12.6531C6.64572 12.5673 6.57763 12.4655 6.53118 12.3535C6.48473 12.2414 6.46082 12.1213 6.46082 12C6.46082 11.8787 6.48473 11.7586 6.53118 11.6465C6.57763 11.5345 6.64572 11.4326 6.73154 11.3469L10.4238 7.65461C10.5971 7.48141 10.832 7.3841 11.0769 7.3841C11.3219 7.3841 11.5568 7.48141 11.73 7.65461C11.9032 7.82782 12.0005 8.06274 12.0005 8.30769C12.0005 8.55264 11.9032 8.78756 11.73 8.96077L9.6127 11.0769H16.6154C16.8602 11.0769 17.095 11.1742 17.2681 11.3473C17.4412 11.5204 17.5385 11.7552 17.5385 12Z" fill="#7355A8"/>
</svg>
