<svg width="20" height="30" viewBox="0 0 20 30" fill="none" xmlns="http://www.w3.org/2000/svg">
<path d="M16.6667 0H3.33333C2.44928 0 1.60143 0.338647 0.976311 0.941443C0.35119 1.54424 0 2.3618 0 3.21429V26.7857C0 27.6382 0.35119 28.4558 0.976311 29.0586C1.60143 29.6614 2.44928 30 3.33333 30H16.6667C17.5507 30 18.3986 29.6614 19.0237 29.0586C19.6488 28.4558 20 27.6382 20 26.7857V3.21429C20 2.3618 19.6488 1.54424 19.0237 0.941443C18.3986 0.338647 17.5507 0 16.6667 0ZM2.22222 6.42857H17.7778V23.5714H2.22222V6.42857ZM3.33333 2.14286H16.6667C16.9614 2.14286 17.244 2.25574 17.4523 2.45667C17.6607 2.6576 17.7778 2.93012 17.7778 3.21429V4.28571H2.22222V3.21429C2.22222 2.93012 2.33929 2.6576 2.54766 2.45667C2.75603 2.25574 3.03865 2.14286 3.33333 2.14286ZM16.6667 27.8571H3.33333C3.03865 27.8571 2.75603 27.7443 2.54766 27.5433C2.33929 27.3424 2.22222 27.0699 2.22222 26.7857V25.7143H17.7778V26.7857C17.7778 27.0699 17.6607 27.3424 17.4523 27.5433C17.244 27.7443 16.9614 27.8571 16.6667 27.8571Z" fill="#9C81CC"/>
</svg>
