<svg width="176" height="175" viewBox="0 0 176 175" fill="none" xmlns="http://www.w3.org/2000/svg">
<path d="M95.8789 162.084C135.022 162.084 166.754 130.352 166.754 91.209C166.754 52.0658 135.022 20.334 95.8789 20.334C56.7357 20.334 25.0039 52.0658 25.0039 91.209C25.0039 130.352 56.7357 162.084 95.8789 162.084Z" fill="url(#paint0_linear_4_37364)"/>
<path d="M89.7994 19.2396L33.7539 64.3404V137.292C33.7539 143.736 38.9772 148.959 45.4206 148.959H148.432C154.875 148.959 160.099 143.736 160.099 137.292V64.3404L104.458 19.2637C100.187 15.804 94.0812 15.794 89.7994 19.2396Z" fill="#011625"/>
<rect x="51.9883" y="33.1357" width="90.3068" height="112.418" rx="14" fill="url(#paint1_linear_4_37364)"/>
<path d="M59.7578 50.0853C59.7578 48.7966 60.8025 47.752 62.0911 47.752H130.025C131.313 47.752 132.358 48.7966 132.358 50.0853V50.0853C132.358 51.374 131.313 52.4186 130.025 52.4186H62.0911C60.8025 52.4186 59.7578 51.374 59.7578 50.0853V50.0853Z" fill="#7965AF"/>
<path d="M59.7578 65.2513C59.7578 63.9626 60.8025 62.918 62.0911 62.918H130.025C131.313 62.918 132.358 63.9626 132.358 65.2513V65.2513C132.358 66.54 131.313 67.5846 130.025 67.5846H62.0911C60.8025 67.5846 59.7578 66.54 59.7578 65.2513V65.2513Z" fill="#D5D5D5"/>
<path d="M59.7578 80.4183C59.7578 79.1296 60.8025 78.085 62.0911 78.085H130.025C131.313 78.085 132.358 79.1296 132.358 80.4183V80.4183C132.358 81.707 131.313 82.7516 130.025 82.7516H62.0911C60.8025 82.7516 59.7578 81.707 59.7578 80.4183V80.4183Z" fill="#D5D5D5"/>
<path d="M59.7578 95.5853C59.7578 94.2966 60.8025 93.252 62.0911 93.252H130.025C131.313 93.252 132.358 94.2966 132.358 95.5853V95.5853C132.358 96.874 131.313 97.9186 130.025 97.9186H62.0911C60.8025 97.9186 59.7578 96.874 59.7578 95.5853V95.5853Z" fill="#D5D5D5"/>
<path fill-rule="evenodd" clip-rule="evenodd" d="M33.7539 64.2197V137.292C33.7539 143.735 38.9773 148.959 45.4206 148.959H116.042C127.394 148.959 132.059 134.392 122.82 127.796L33.7539 64.2197Z" fill="url(#paint2_linear_4_37364)"/>
<path fill-rule="evenodd" clip-rule="evenodd" d="M160.102 64.2197V137.292C160.102 143.735 154.878 148.959 148.435 148.959H44.6572L160.102 64.2197Z" fill="#E1DCEB"/>
<path fill-rule="evenodd" clip-rule="evenodd" d="M160.341 65.3178L49.0136 148.959H44.3672L158.972 63.4326L160.341 65.3178Z" fill="#011625"/>
<path d="M15.0174 123.72C15.1233 124.09 15.5105 124.304 15.881 124.196L15.0174 123.72ZM15.0174 123.72L14.7373 123.801C13.8483 120.735 12.1022 118.345 9.42179 116.615L9.42167 116.615C8.96382 116.319 8.82989 115.706 9.12512 115.245C9.41819 114.784 10.0313 114.649 10.4903 114.946C13.5842 116.943 15.6098 119.713 16.6346 123.245C16.7883 123.771 16.485 124.322 15.9633 124.475L15.9629 124.475C15.4372 124.629 14.8873 124.326 14.737 123.8L15.0174 123.72Z" fill="#011625" stroke="#011625" stroke-width="0.583333"/>
<path d="M47.7318 124.861L47.7319 124.861C48.4167 124.511 48.6631 123.843 48.6001 123.125C48.5445 122.466 48.1963 121.727 48.0067 121.39C47.6168 120.696 47.1641 120.042 46.6623 119.431C49.0741 114.809 54.4191 112.927 59.1409 115.095L59.1412 115.095C59.6402 115.323 60.2244 115.102 60.4524 114.605L60.4532 114.604L60.4532 114.604C60.6772 114.108 60.4621 113.519 59.9635 113.291C54.4712 110.769 48.2677 112.791 45.2335 117.93C44.7781 117.515 44.2969 117.128 43.7964 116.771L43.7963 116.771C38.1267 112.728 29.8407 114.074 23.5402 120.022L23.5402 120.022C22.5268 120.98 21.7368 122.378 21.1253 124.03C20.5127 125.685 20.0721 127.615 19.7694 129.653C19.1807 133.615 19.0787 138.017 19.1142 141.543C18.4453 139.953 17.6923 138.407 16.8903 136.865L16.8903 136.865C16.5836 136.276 16.2774 135.684 15.9703 135.09C12.3003 127.995 8.50863 120.665 2.44094 115.248L2.44011 115.248C2.03093 114.885 1.4059 114.92 1.04457 115.332C0.681572 115.742 0.721909 116.369 1.12755 116.731L1.12763 116.731C6.94333 121.924 10.5776 128.959 14.1538 135.882C14.4821 136.518 14.8099 137.152 15.1388 137.785L15.3975 137.65L15.1388 137.785C16.3638 140.138 17.4624 142.486 18.3109 144.988L18.3111 144.989C18.3439 145.085 18.3767 145.18 18.4095 145.276C18.6337 145.93 18.8544 146.573 19.0417 147.231M47.7318 124.861L20.9716 147.572C20.9855 148.108 20.9353 148.426 20.9075 148.49L21.1765 148.603C21.1763 148.603 21.1761 148.604 21.1759 148.604C20.9929 149.04 20.6532 149.16 20.4385 149.201L20.4354 149.202C20.1325 149.256 19.8806 149.198 19.6779 149.092L19.6764 149.091C19.4 148.945 19.181 148.689 19.0824 148.32L19.0819 148.317C19.0296 148.115 19.0196 147.857 19.0253 147.612L19.0254 147.609C19.0271 147.56 19.0307 147.512 19.0341 147.469C19.0377 147.424 19.041 147.387 19.0432 147.35C19.0454 147.314 19.046 147.286 19.0451 147.264C19.0446 147.253 19.0439 147.245 19.0431 147.239C19.0423 147.233 19.0416 147.23 19.0417 147.231M47.7318 124.861C46.927 125.271 46.2438 125.243 45.6998 124.97L47.7318 124.861ZM19.0417 147.231C19.0418 147.231 19.0419 147.231 19.042 147.232L19.3225 147.152L19.0417 147.231ZM46.5773 123.192C46.5813 123.192 46.5885 123.191 46.5999 123.189C46.6045 123.188 46.6094 123.187 46.6146 123.186C46.6137 123.179 46.6127 123.174 46.6118 123.169C46.5458 122.866 46.3854 122.543 46.2865 122.366C46.2822 122.359 46.2779 122.351 46.2736 122.344C46.3082 122.544 46.3559 122.732 46.418 122.897L46.4182 122.897C46.4557 122.997 46.4859 123.069 46.5186 123.123C46.546 123.168 46.566 123.185 46.5773 123.192Z" fill="#011625" stroke="#011625" stroke-width="0.583333"/>
<path fill-rule="evenodd" clip-rule="evenodd" d="M154.782 37.2167C155.488 34.3523 155.442 31.5939 155.527 28.6884C155.543 28.121 155.096 27.6493 154.529 27.6322C153.961 27.6151 153.487 28.0629 153.471 28.6303C153.39 31.3853 153.455 34.007 152.785 36.7279C152.649 37.2782 152.987 37.8354 153.538 37.9687C154.089 38.1054 154.647 37.767 154.782 37.2167Z" fill="#011625"/>
<path fill-rule="evenodd" clip-rule="evenodd" d="M160.783 42.7686C165.577 38.4002 170.093 32.7807 173.25 27.1066C173.525 26.611 173.346 25.9854 172.849 25.712C172.353 25.4385 171.726 25.6163 171.451 26.1119C168.398 31.5981 164.03 37.0329 159.395 41.2543C158.977 41.6372 158.947 42.2866 159.33 42.7036C159.713 43.1206 160.364 43.1514 160.783 42.7686Z" fill="#011625"/>
<path fill-rule="evenodd" clip-rule="evenodd" d="M161.998 47.5399C166.382 48.2612 170.901 47.0306 174.888 45.2908C175.408 45.0618 175.645 44.4568 175.418 43.9407C175.19 43.4211 174.583 43.1852 174.063 43.4108C170.432 44.9968 166.326 46.1727 162.333 45.5164C161.773 45.4241 161.243 45.8035 161.151 46.3607C161.059 46.9178 161.439 47.4476 161.998 47.5399Z" fill="#011625"/>
<path fill-rule="evenodd" clip-rule="evenodd" d="M35.3726 27.1092C35.9972 26.8866 36.6545 26.5908 37.1614 26.1626C37.7634 25.6539 38.0082 24.9988 38.1726 24.3092C38.3837 23.4232 38.468 22.4795 38.724 21.5921C38.8187 21.2626 39.0011 21.138 39.0794 21.0827C39.2772 20.9431 39.4771 20.9057 39.6652 20.9197C39.8881 20.9359 40.1943 21.0202 40.3957 21.3939C40.4244 21.4474 40.4618 21.5289 40.4869 21.6406C40.5052 21.7224 40.517 21.9783 40.5364 22.0839C40.5849 22.3438 40.6255 22.6037 40.6635 22.865C40.7902 23.7348 40.8631 24.4736 41.2634 25.2727C41.8065 26.3575 42.3507 27.0212 43.0888 27.3152C43.8024 27.5995 44.6557 27.5461 45.7459 27.3231C45.8496 27.298 45.9523 27.2765 46.0539 27.2589C46.5345 27.1749 46.994 27.4904 47.0884 27.9693C47.1828 28.4478 46.8774 28.9141 46.401 29.0193C46.3016 29.0412 46.2036 29.062 46.1066 29.081C44.6334 29.4457 42.9279 30.7474 41.9368 31.8871C41.6313 32.2386 41.184 33.2211 40.7278 33.8478C40.391 34.3102 40.0127 34.615 39.695 34.7227C39.4821 34.7952 39.3026 34.7841 39.1544 34.7474C38.939 34.6943 38.7602 34.5776 38.6231 34.392C38.5484 34.2904 38.4791 34.1544 38.4461 33.9807C38.4303 33.897 38.4285 33.6845 38.4289 33.5883C38.3359 33.2685 38.2221 32.9561 38.1392 32.6334C37.9414 31.8634 37.5534 31.3759 37.0924 30.7319C36.6613 30.1292 36.1982 29.7505 35.5194 29.4483C35.4311 29.4267 34.7185 29.2522 34.4669 29.1521C34.0993 29.0053 33.9241 28.7594 33.8606 28.6269C33.7525 28.4022 33.7414 28.2058 33.763 28.0422C33.7949 27.8006 33.9033 27.5938 34.0957 27.4269C34.2149 27.3231 34.393 27.2222 34.6313 27.1731C34.8155 27.1347 35.304 27.1124 35.3726 27.1092ZM39.5528 25.8542C39.5859 25.9278 39.621 26.0017 39.6584 26.0764C40.4539 27.6652 41.3434 28.5523 42.4246 28.9827L42.4609 28.9967C41.7376 29.5337 41.0828 30.1339 40.5824 30.7093C40.3763 30.9463 40.1035 31.4384 39.8088 31.9431C39.541 31.0726 39.1031 30.4573 38.5524 29.6873C38.1317 29.0997 37.6908 28.6574 37.1492 28.297C37.5695 28.0813 37.9705 27.8286 38.3198 27.5335C38.9013 27.0421 39.2858 26.4727 39.5528 25.8542Z" fill="#417BA4"/>
<defs>
<linearGradient id="paint0_linear_4_37364" x1="95.3326" y1="-2.74466" x2="96.7845" y2="246.158" gradientUnits="userSpaceOnUse">
<stop stop-color="#F2F2F2"/>
<stop offset="1" stop-color="#EFEFEF"/>
</linearGradient>
<linearGradient id="paint1_linear_4_37364" x1="97.1417" y1="33.1357" x2="97.1417" y2="145.553" gradientUnits="userSpaceOnUse">
<stop stop-color="white"/>
<stop offset="0.71875" stop-color="#EAEAEA"/>
</linearGradient>
<linearGradient id="paint2_linear_4_37364" x1="33.7539" y1="64.0837" x2="120.671" y2="161.5" gradientUnits="userSpaceOnUse">
<stop stop-color="#E1DCEB"/>
<stop offset="1" stop-color="#B3AFBA"/>
</linearGradient>
</defs>
</svg>
