<svg width="55" height="62" viewBox="0 0 55 62" fill="none" xmlns="http://www.w3.org/2000/svg">
<g id="Frame" clip-path="url(#clip0_583_9830)">
<g id="shel_1_">
<g id="Group">
<g id="Group_2">
<path id="Vector" d="M10.0263 60.2513L11.225 60.1225L10.8828 59.0469C10.8828 59.0469 12.5097 53.8006 16.4024 51.3512L17.3273 51.4376C17.3291 51.4112 17.3308 51.3865 17.3343 51.3601C17.6976 47.7415 20.962 47.0326 20.962 47.0326C21.843 46.9656 28.5087 46.0186 27.7575 53.709C26.7168 64.3724 17.215 84.8882 17.215 84.8882L15.0317 85.7911C15.0317 85.7911 9.298 80.6736 8.74166 76.0745L9.89647 75.1717L8.74166 74.5703C8.74341 74.5703 6.64614 65.8837 10.0263 60.2513Z" fill="url(#paint0_linear_583_9830)"/>
<path id="Vector_2" opacity="0.19" d="M18.9601 48.6544C18.9601 48.6544 18.2037 50.5977 19.1549 52.34L18.4423 53.3046C18.4423 53.3046 15.1534 55.2708 12.7332 61.1431C12.7332 61.1431 11.8767 62.6332 11.5222 65.8426C11.1677 69.0538 11.8346 74.7391 11.8346 74.7391C11.8346 74.7391 12.8525 80.703 15.5676 83.0943C15.5676 83.0943 16.4083 84.4539 14.6339 85.4202L15.0341 85.7923L17.5578 84.5385L18.0597 82.2937C18.0597 82.2937 15.0112 81.2656 13.6107 75.2858C12.212 69.306 13.2983 63.2839 14.0495 60.6387C14.8006 57.9953 19.8025 54.2886 20.5747 53.7419C21.3469 53.197 20.1675 51.6364 20.1675 51.6364L20.4396 50.0828L20.6818 47.1396C20.6818 47.1414 19.6638 47.2331 18.9601 48.6544Z" fill="#010101"/>
<path id="Vector_3" opacity="0.71" d="M16.5236 51.5244C16.5236 51.5244 13.4681 52.854 11.0163 58.9661L11.4269 60.1741L12.9784 61.0963C12.9784 61.0963 13.9314 54.8344 16.9834 51.5385L16.5236 51.5244Z" fill="url(#paint1_linear_583_9830)"/>
<path id="Vector_4" opacity="0.71" d="M12.8574 61.3654L11.2744 60.459L10.1722 60.5489C10.1722 60.5489 8.76116 62.2947 8.41542 66.3259C7.94858 71.3147 8.94368 74.3037 8.94368 74.3037L10.0494 74.9949L12.3836 74.6987C12.3836 74.6987 10.8672 68.1652 12.8574 61.3654Z" fill="url(#paint2_linear_583_9830)"/>
<g id="Group_3">
<path id="Vector_5" d="M46.4421 58.6412L45.2592 58.6024L45.5172 57.525C45.5172 57.525 43.5463 52.508 39.5571 50.3937L38.6585 50.5471C38.655 50.5206 38.6515 50.4977 38.6462 50.4712C38.0302 46.955 34.7816 46.5 34.7816 46.5C34.8659 46.6622 31.4014 46.2108 32.3491 51.651C34.2481 62.5508 41.1875 83.2869 41.1875 83.2869L43.3901 84.0117C43.3901 84.0117 48.6342 78.5839 48.8448 74.0395L47.6478 73.2407L48.736 72.567C48.7342 72.5653 50.1593 63.9086 46.4421 58.6412Z" fill="url(#paint3_linear_583_9830)"/>
<path id="Vector_6" opacity="0.19" d="M35.9731 47.9408C35.9731 47.9408 36.8542 49.7872 36.0486 51.5629L36.8156 52.4552C36.8156 52.4552 40.1765 54.1393 42.9705 59.7118C42.9705 59.7118 43.9164 61.1084 44.4956 64.2244C45.0748 67.3421 44.8326 72.9569 44.8326 72.9569C44.8326 72.9569 44.2675 78.8697 41.7823 81.409C41.7823 81.409 41.0575 82.8021 42.8652 83.6168L42.5001 84.0101L39.9395 82.9679L39.2866 80.8059C39.2866 80.8059 34.8324 78.6228 35.7695 72.6659C36.7067 66.7091 32.2051 65.3724 31.2784 62.8383C30.3517 60.3043 35.5554 53.5168 34.7586 53.0389C33.9636 52.561 35.0044 50.9475 35.0044 50.9475L34.627 49.4468L34.1777 46.583C34.1795 46.5848 35.1816 46.6024 35.9731 47.9408Z" fill="#010101"/>
<path id="Vector_7" opacity="0.71" d="M39.4496 50.5713C39.4496 50.5713 42.5367 51.6505 45.3799 57.454L45.064 58.6672L43.6126 59.6829C43.6126 59.6829 42.2261 53.622 39.0003 50.6189L39.4496 50.5713Z" fill="url(#paint4_linear_583_9830)"/>
<path id="Vector_8" opacity="0.71" d="M43.7515 59.9391L45.2345 58.9375L46.3191 58.9463C46.3191 58.9463 47.8267 60.5528 48.4568 64.4729C49.2746 69.3223 48.5182 72.3202 48.5182 72.3202L47.4863 73.0785L45.1784 72.9585C45.1801 72.9585 46.1928 66.4497 43.7515 59.9391Z" fill="url(#paint5_linear_583_9830)"/>
</g>
</g>
<path id="Vector_9" d="M15.1463 58.1364C14.518 59.4167 12.3927 61.9877 12.2716 68.7717C12.1505 75.5556 14.1758 81.2762 17.7333 84.3516C17.9561 84.2299 23.2739 83.8032 25.0202 88.7602C25.0202 88.7602 28.5338 89.9981 33.3303 88.3528C33.3303 88.3528 33.748 81.7188 41.077 82.1067C41.077 82.1067 49.4626 64.0651 35.0274 52.4493C27.9967 57.886 20.7554 51.4883 20.7554 51.4883C20.7554 51.4883 16.166 56.0556 15.1463 58.1364Z" fill="#593417"/>
<path id="Vector_10" d="M35.1868 54.4076C35.1868 54.4076 38.6355 57.0721 40.1782 60.8441C41.7209 64.6161 43.0828 71.1531 40.4063 80.1872C40.4063 80.1872 32.7263 80.9595 31.9102 87.0681C30.0112 88.3712 26.3221 87.486 26.3221 87.486C26.3221 87.486 25.4464 83.4619 18.2121 82.0599C18.2121 82.0599 12.2379 78.3938 13.4156 65.7305C14.3001 57.9185 20.2251 54.1201 20.2251 54.1201C20.2251 54.1201 27.1189 60.5355 35.1868 54.4076Z" fill="url(#paint6_linear_583_9830)"/>
<g id="Group_4" opacity="0.51">
<g id="Group_5">
<path id="Vector_11" d="M28.3772 58.0996C28.2982 60.3533 28.2526 62.6052 28.2403 64.8588C28.228 65.9857 28.2333 67.1107 28.2298 68.2376L28.2491 71.6163L28.2965 74.995C28.3228 76.1219 28.3386 77.247 28.3737 78.3738C28.4316 80.6257 28.5229 82.8776 28.6475 85.1295C28.7265 82.8758 28.7739 80.6239 28.7844 78.3703C28.7967 77.2434 28.7914 76.1184 28.7949 74.9915L28.7739 71.6128L28.7247 68.2341C28.6984 67.1072 28.6826 65.9821 28.6475 64.8553C28.5931 62.6034 28.5018 60.3515 28.3772 58.0996Z" fill="#9C6527"/>
</g>
<g id="Group_6">
<path id="Vector_12" d="M34.6885 59.6846C34.2076 59.9738 33.7057 60.2171 33.1897 60.4234C32.6754 60.6333 32.1472 60.8079 31.6136 60.9525C31.0784 61.0936 30.5378 61.2082 29.9902 61.2822C29.4444 61.3616 28.8933 61.4039 28.3423 61.4057C27.7912 61.4145 27.2383 61.3898 26.6908 61.3246C26.4152 61.3016 26.1432 61.2523 25.8694 61.2117C25.7325 61.1888 25.5991 61.157 25.4622 61.1324C25.3271 61.1077 25.1902 61.0812 25.0568 61.0459C23.9792 60.792 22.9209 60.4323 21.8942 59.9844C22.8595 60.5557 23.9002 61.0089 24.9901 61.314C26.0765 61.6226 27.2138 61.7725 28.3458 61.7584C29.4795 61.746 30.6115 61.5609 31.6891 61.217C32.765 60.8714 33.8022 60.3758 34.6885 59.6846Z" fill="#9C6527"/>
</g>
</g>
</g>
<g id="Group_7">
<path id="Vector_13" d="M34.1343 46.0623C34.1343 46.0623 36.4913 47.57 36.8546 49.3952C37.2179 51.2203 35.2312 54.5285 30.4048 55.5831C25.5785 56.6376 21.2347 54.6414 20.1782 51.8605C19.1217 49.0778 20.9452 47.7005 21.8894 46.9617C22.8336 46.2245 31.091 45.1136 34.1343 46.0623Z" fill="url(#paint7_linear_583_9830)"/>
<path id="Vector_14" opacity="0.19" d="M21.8896 46.9619C22.8338 46.2231 31.0913 45.1139 34.1345 46.0626C34.1345 46.0626 35.6895 47.0589 36.4688 48.4097C35.9633 48.0306 35.2385 47.7096 34.2592 47.7608C34.2592 47.7608 29.6697 45.5882 26.2211 46.6146C22.7724 47.6426 22.8005 48.4944 22.8005 48.4944C22.8005 48.4944 20.2311 48.7483 19.8713 50.5435C19.7257 48.6231 21.1086 47.5739 21.8896 46.9619Z" fill="#010101"/>
<path id="Vector_15" d="M32.8832 46.7768C33.0078 46.7733 34.9682 47.558 34.6558 49.3743C34.3434 51.1907 32.5831 52.6525 29.0502 53.208C25.5173 53.7635 22.6548 52.1553 22.0546 50.5223C21.4544 48.8894 22.6846 47.5351 23.6499 47.0025C24.6169 46.4682 32.5181 46.7891 32.8832 46.7768Z" fill="#4A5F2B"/>
<path id="Vector_16" opacity="0.19" d="M24.0887 52.5133C23.0515 51.9843 22.3249 51.256 22.0546 50.5224C21.4544 48.8895 22.6846 47.5352 23.6499 47.0026C24.6152 46.4701 32.5181 46.7892 32.8832 46.7787C33.0078 46.7751 34.9682 47.5599 34.6558 49.3762C34.5943 49.7306 34.4768 50.071 34.303 50.3955C34.3486 50.1398 34.3557 49.8805 34.31 49.6178C33.9538 47.5211 30.5384 47.4011 27.0705 47.9425C23.6025 48.4839 20.6541 50.2544 23.7026 52.2435C23.8482 52.3388 23.9764 52.4287 24.0887 52.5133Z" fill="#38451C"/>
</g>
</g>
<g id="nak_1_">
<g id="Group_8">
<path id="Vector_17" d="M24.3464 46.8352C26.0856 46.606 30.231 46.71 32.0335 46.7576C31.786 47.8175 31.4719 49.9671 32.2932 52.1255C32.3037 52.1555 32.3125 52.1872 32.3213 52.2155C31.4578 52.6687 30.389 53.0072 29.0481 53.2189C27.1966 53.5098 25.4714 53.2083 24.2762 52.6052C24.5851 51.034 24.8501 48.7468 24.3464 46.8352Z" fill="url(#paint8_linear_583_9830)"/>
</g>
<path id="Vector_18" opacity="0.25" d="M24.6269 48.5334C24.6217 47.7363 24.5427 47.5829 24.3461 46.8352C26.0854 46.606 30.2308 46.71 32.0332 46.7576C31.9665 47.0398 31.8472 48.0538 31.7945 48.4682C31.3136 48.3871 30.5309 49.1242 29.1672 49.3076C27.342 49.5544 25.443 48.4735 24.6269 48.5334Z" fill="#4A5F2B"/>
<g id="Group_9" opacity="0.65">
<path id="Vector_19" d="M25.5997 53.0884C25.7453 53.1254 25.8945 53.1571 26.0472 53.1871C26.0963 52.979 26.1437 52.718 26.1858 52.3883C26.3701 50.8999 26.3315 50.3039 26.2087 49.0783C26.0858 47.8527 25.9314 47.4824 25.9314 47.4824C25.9314 47.4824 26.2297 49.6426 25.9945 51.7834C25.9208 52.4359 25.8068 52.8062 25.5997 53.0884Z" fill="#4A5F2B"/>
<path id="Vector_20" d="M31.235 52.6863C31.3386 52.6493 31.4369 52.6123 31.5352 52.5735C31.3544 52.2349 31.1859 51.9281 31.0876 51.2685C30.8805 49.8772 30.884 47.6764 30.8753 47.5371C30.8717 47.6729 30.8314 49.8754 30.9209 51.064C30.9735 51.794 31.1245 52.353 31.235 52.6863Z" fill="#4A5F2B"/>
<path id="Vector_21" d="M29.4996 53.1412C29.5698 53.1288 29.6417 53.1147 29.7119 53.1006C29.668 52.9507 29.6154 52.7426 29.5557 52.4446C29.4048 51.704 29.1608 48.2847 29.145 48.0713C29.0994 48.8983 29.1872 51.2172 29.3556 52.3511C29.3978 52.635 29.4522 52.9154 29.4996 53.1412Z" fill="#4A5F2B"/>
<path id="Vector_22" d="M27.7792 53.328C27.8372 53.328 27.8968 53.328 27.9547 53.3227C28.0004 53.0265 28.0355 52.5627 28.0425 51.7956C28.0565 50.1239 27.9653 49.8276 27.9003 48.3975C27.8968 48.6461 27.8705 52.5609 27.7792 53.328Z" fill="#4A5F2B"/>
</g>
<path id="Vector_23" opacity="0.54" d="M24.4326 51.7055C24.6765 52.3086 25.4312 53.0651 28.234 53.0175C30.8034 52.9734 31.8266 51.9929 32.1319 51.6455C32.1811 51.806 32.2337 51.9647 32.2952 52.1252C32.3057 52.1551 32.3145 52.1869 32.3232 52.2151C31.4598 52.6683 30.3909 53.0069 29.0501 53.2185C27.1985 53.5095 25.4733 53.2079 24.2781 52.6048C24.3325 52.3262 24.3852 52.0229 24.4326 51.7055Z" fill="#4A5F2B"/>
<path id="Vector_24" d="M30.9312 47.7344C30.9312 47.7344 30.9873 50.2314 31.0803 50.9209C31.1734 51.6104 31.3155 52.1729 31.498 52.4304C31.498 52.4304 31.1821 51.5787 31.0821 50.1238C30.9856 48.669 30.9312 47.7344 30.9312 47.7344Z" fill="#D1DF51"/>
<path id="Vector_25" opacity="0.49" d="M29.2293 48.0576C29.2099 48.077 29.4048 50.3695 29.4416 50.9814C29.4785 51.5933 29.6276 52.6161 29.6943 52.8277C29.6943 52.8277 29.5715 51.4346 29.4469 50.2284C29.3223 49.0222 29.2293 48.0576 29.2293 48.0576Z" fill="#D1DF51"/>
<path id="Vector_26" opacity="0.49" d="M27.9674 48.3027C27.9727 48.3309 28.0341 49.5989 28.0727 50.3977C28.1113 51.1965 28.092 52.2951 28.0569 52.9917C28.0569 52.9917 28.1745 51.7679 28.1341 50.4559C28.0938 49.1439 27.9674 48.3027 27.9674 48.3027Z" fill="#D1DF51"/>
</g>
<path id="hat2_2_" d="M52.8444 20.366C53.3078 20.4366 53.8606 20.5441 54.0607 20.9691C54.1747 21.2142 54.0905 21.5334 53.8992 21.7503C53.4201 22.2882 50.3014 24.4519 37.558 25.5487C24.8147 26.6456 10.3549 26.6844 5.36534 25.8221C0.377522 24.9598 0.330135 24.7481 0.486336 23.4555C0.642532 22.163 8.17165 20.8086 14.2511 19.9869C20.1463 19.1898 46.2437 19.3591 52.8444 20.366Z" fill="url(#paint9_linear_583_9830)"/>
<g id="face_1_">
<path id="Vector_27" d="M37.2469 48.6525C37.7752 48.6525 38.3666 48.5732 39.0493 48.3915C41.2414 47.8078 42.3558 46.2683 42.9069 45.0798C43.702 43.3604 43.716 41.5759 43.4211 40.9498C42.9017 39.8477 38.2771 39.1229 37.7506 39.0436L37.7313 39.04L37.712 39.0418L12.0446 40.9551L12.0059 41.0556C11.9814 41.1209 11.3882 42.6657 11.5724 44.7888C11.6935 46.1908 12.5149 47.3299 13.8856 47.9965C16.3163 49.178 19.9738 48.7054 22.7819 46.8468L22.7889 46.8415C25.0301 45.1891 29.0404 44.8664 31.7273 46.1237C32.4469 46.4606 33.0401 46.8591 33.614 47.2453C34.7214 47.9859 35.713 48.6525 37.2469 48.6525ZM37.719 39.3839C39.6373 39.6749 42.7823 40.3926 43.114 41.0962C43.3422 41.5811 43.365 43.2776 42.598 44.937C42.0785 46.0603 41.0273 47.5151 38.9633 48.0635C36.4414 48.7336 35.2198 47.9119 33.8053 46.9614C33.2209 46.5681 32.6154 46.1625 31.873 45.8134C29.3896 44.653 25.2389 44.616 22.5941 46.5628C19.8808 48.3562 16.3619 48.82 14.0365 47.6879C12.7606 47.0672 12.027 46.0532 11.9147 44.7571C11.7637 43.0166 12.1656 41.6482 12.2903 41.2778L37.719 39.3839Z" fill="#676767"/>
<path id="Vector_28" d="M8.75579 38.5853C8.68734 36.4886 9.03133 32.639 9.3367 30.0768C9.64033 27.5145 8.40829 21.935 10.1809 17.5811C11.1672 15.1617 23.5876 13.1461 23.5876 13.1461C23.5876 13.1461 24.6424 12.8022 26.3009 12.4901V12.4795C26.3097 12.4813 26.3185 12.483 26.3272 12.4848C26.3325 12.4848 26.336 12.483 26.3413 12.483V12.4883C27.9998 12.7987 29.0546 13.1443 29.0546 13.1443C29.0546 13.1443 41.31 14.9924 42.2963 17.4118C44.0689 21.7657 43.1686 27.511 43.4722 30.0732C43.7758 32.6355 43.925 34.9791 44.2216 37.0564C44.7358 40.6627 42.8702 44.0696 35.8553 45.9459C34.6321 46.2721 32.1259 48.2842 27.8559 48.1608C24.4055 48.0602 20.0231 46.4467 17.9013 46.2633C10.667 45.6373 8.87162 42.1351 8.75579 38.5853Z" fill="url(#paint10_linear_583_9830)"/>
<path id="Vector_29" opacity="0.47" d="M9.61043 41.9113C9.03127 40.8233 8.79609 39.6189 8.75748 38.4092C8.68904 36.3125 9.03303 32.4629 9.3384 29.9006C9.60692 27.6417 8.68026 23.0338 9.67362 18.992C9.69468 18.955 9.71574 18.918 9.73504 18.8809C9.95618 18.4718 10.2967 18.0168 10.7301 17.5372C14.7071 14.4829 20.3214 17.5407 22.6416 23.8662C25.3338 31.2038 24.086 39.7 18.6542 42.4474C17.5906 42.987 12.9784 43.7665 9.61043 41.9113Z" fill="#9EBA44"/>
<g id="Group_10" opacity="0.1">
<path id="Vector_30" d="M27.0838 21.0116C27.0838 21.0116 27.6822 22.7222 26.2098 23.1383C24.7373 23.5545 23.4017 23.1842 23.586 22.075C23.7703 20.9658 24.3687 21.2427 25.1041 20.8723C25.8395 20.502 26.4397 19.9483 26.7152 20.271C26.9908 20.5955 27.175 20.6889 27.0838 21.0116Z" fill="#4A5F2B"/>
<g id="Group_11">
<path id="Vector_31" d="M21.1922 14.7687C21.1922 14.7687 25.564 15.5552 26.8066 16.7579C28.0492 17.9605 24.6426 21.9371 21.9732 19.6711C19.3038 17.4051 21.6047 16.7579 20.5464 15.8321C19.4881 14.908 19.6724 14.3984 20.3165 14.4443C20.9623 14.4919 21.1922 14.7687 21.1922 14.7687Z" fill="#4A5F2B"/>
<path id="Vector_32" d="M31.0869 17.2197C31.0869 17.2197 32.3751 17.9604 31.4098 19.394C30.4445 20.8277 29.2458 21.2897 28.5561 20.4115C27.8664 19.5334 28.4174 19.163 28.5105 18.3765C28.6017 17.5901 28.2349 16.666 28.786 16.666C29.3371 16.666 30.9026 16.8494 31.0869 17.2197Z" fill="#4A5F2B"/>
<path id="Vector_33" d="M30.2585 21.8892C30.3971 21.8892 30.8569 22.8608 30.3971 23.8783C29.9373 24.8958 28.786 25.1727 28.0962 24.3862C27.4065 23.5997 27.0836 22.7215 27.8663 22.2595C28.6491 21.7975 29.4318 21.6123 29.4318 21.6123L30.2585 21.8892Z" fill="#4A5F2B"/>
<path id="Vector_34" d="M25.794 24.896C25.794 24.896 26.2082 25.6825 25.1043 26.0052C24.0003 26.3297 23.3545 25.6807 23.4931 25.0336C23.6318 24.3864 24.7357 24.2471 24.7357 24.2471C24.7357 24.2471 25.7027 24.5257 25.794 24.896Z" fill="#4A5F2B"/>
<path id="Vector_35" d="M28.8313 26.0053C28.8313 26.0053 29.8896 27.3473 29.0612 27.9469C28.2328 28.5482 26.7603 27.3914 26.7147 26.8377C26.6691 26.2822 27.0376 25.3581 27.4044 25.404C27.773 25.4516 28.8313 26.0053 28.8313 26.0053Z" fill="#4A5F2B"/>
<path id="Vector_36" d="M25.6093 27.0702C25.6093 27.0702 25.9322 28.1336 25.1951 28.3646C24.458 28.5956 23.9069 27.9026 24.1368 27.4864C24.3667 27.0702 25.1951 26.9785 25.1951 26.9785L25.6093 27.0702Z" fill="#4A5F2B"/>
</g>
</g>
<path id="Vector_37" opacity="0.47" d="M34.4917 42.4381C29.0599 39.6889 27.812 31.1945 30.5043 23.8568C32.8227 17.5367 38.43 14.4771 42.4052 17.5208C44.0286 21.8359 43.1739 27.3907 43.4705 29.8966C43.7741 32.4589 43.9233 34.8025 44.2199 36.8798C44.5007 38.8478 44.069 40.7558 42.4842 42.387C39.2742 43.6037 35.4482 42.9231 34.4917 42.4381Z" fill="#9EBA44"/>
<path id="Vector_38" opacity="0.25" d="M23.0193 31.4643C23.0193 31.4643 23.9337 28.1173 20.7009 24.2784C17.4681 20.4394 12.8945 21.4569 11.5887 24.4424C10.283 27.4278 10.1198 32.5471 14.5284 34.6156C18.9371 36.6841 22.8877 34.1553 23.0193 31.4643Z" fill="#4A5F2B"/>
<path id="hat-shadow_1_" opacity="0.5" d="M18.9714 13.8748L31.2216 13.3369C34.7878 13.9929 41.5728 15.4618 42.2959 17.2359C43.0453 19.0751 43.3156 21.1613 43.4033 23.1522C42.1485 22.0906 39.6124 20.8809 34.5176 20.6675C25.1316 20.2743 14.6505 20.1967 11.8354 21.6109C10.4191 22.3234 9.63636 23.3532 9.20813 24.1997C9.16777 21.9742 9.31343 19.5407 10.1839 17.4034C10.7631 15.9768 15.328 14.6895 18.9714 13.8748Z" fill="#4A5F2B"/>
<path id="Vector_39" opacity="0.25" d="M30.1272 31.4556C30.1272 31.4556 29.2128 28.1086 32.4456 24.2696C35.6784 20.4306 40.252 21.4481 41.5578 24.4336C42.8635 27.4191 43.0268 32.5383 38.6181 34.6068C34.2094 36.6753 30.2571 34.1465 30.1272 31.4556Z" fill="#4A5F2B"/>
</g>
<g id="hate_1_">
<path id="Vector_40" d="M26.0183 0.00895689C26.0183 0.00895689 26.6729 -0.119774 27.5031 0.573255C39.3391 10.452 50.0202 17.6345 52.0684 18.8036C52.0684 18.8036 53.6742 19.8528 51.426 19.5707C49.1778 19.2886 35.0094 17.3523 22.1256 18.562C9.24189 19.7717 0.129723 23.281 0.129723 23.281C0.129723 23.281 0.210457 22.4751 1.33368 21.4258C2.45691 20.3766 14.9036 10.5772 19.6001 5.93938C24.2966 1.30155 24.8547 0.25231 26.0183 0.00895689Z" fill="url(#paint11_linear_583_9830)"/>
<path id="Vector_41" opacity="0.32" d="M10.7183 20.3182C10.7007 20.3218 10.6849 20.3253 10.6674 20.3288C10.1057 20.3376 4.03857 20.4805 0.295073 22.7818C0.451271 22.4467 0.751387 21.9688 1.33582 21.4239C2.45904 20.3747 14.9058 10.5753 19.6023 5.93746C24.2988 1.29964 24.8569 0.250395 26.0204 0.00880483C26.0204 0.00880483 26.1363 -0.00882949 26.2275 0.0105683L10.7183 20.3182Z" fill="#F7CC60"/>
<path id="Vector_42" opacity="0.32" d="M26.6504 0.111444L31.1152 18.1707L22.0259 18.5763L26.417 0.0444336C26.417 0.0444336 26.4995 0.0550142 26.5258 0.0620679C26.5574 0.0708851 26.6504 0.111444 26.6504 0.111444Z" fill="#F7CC60"/>
<path id="Vector_43" opacity="0.32" d="M25.7779 0.0742038C25.8551 0.0477524 25.9358 0.0265912 26.0183 0.00895689C26.0183 0.00895689 26.6729 -0.119774 27.5031 0.573255C39.3391 10.452 50.0202 17.6345 52.0684 18.8036C52.0684 18.8036 53.6742 19.8529 51.426 19.5707C51.3909 19.5654 51.3523 19.5619 51.3102 19.5566L44.0075 18.5691C44.0075 18.5691 42.4788 16.7616 36.8311 10.8223C31.9451 5.68368 30.0725 3.71216 28.5736 2.04219C27.0292 0.317557 26.8309 -0.103903 25.7779 0.0742038Z" fill="#F7CC60"/>
<g id="Group_12" opacity="0.49">
<path id="Vector_44" d="M26.666 0.0901704L26.6362 0.0795898L26.6731 0.120149L28.8423 2.45493L29.0038 2.62951L32.5261 6.42089L32.6893 6.59723L36.6768 10.8894H36.6785L36.84 11.0658L40.8977 15.4303L41.0661 15.6119H41.0679L43.9936 18.7614C44.076 18.7684 44.1568 18.7755 44.2393 18.7825L41.3154 15.6348L41.1469 15.4514H41.1451L37.0857 11.0816H37.084L36.9207 10.9035L32.935 6.61487L32.7718 6.43852L29.246 2.64538L29.0827 2.46904H29.081L27.0048 0.234772C26.8837 0.171288 26.7696 0.123676 26.666 0.0901704Z" fill="#93682C"/>
<path id="Vector_45" d="M26.4891 0.0422908C26.4856 0.0422908 26.4839 0.0405273 26.4821 0.0405273L26.4856 0.0546348V0.0563982L27.0683 2.42292L27.1104 2.58692L28.0266 6.31482L28.0687 6.48058L29.0936 10.644L29.1357 10.8116L30.173 15.0297L30.2151 15.1937L30.9469 18.1686C31.0049 18.1668 31.061 18.1668 31.1172 18.1668L30.3853 15.1919L30.3432 15.0262L29.306 10.8116L29.2639 10.644L28.2389 6.47705L28.1968 6.31129L27.2789 2.58516L27.2386 2.4194L26.6717 0.119882L26.6647 0.0899034L26.6348 0.0793228H26.6331C26.5822 0.0652154 26.5348 0.0528714 26.4891 0.0422908Z" fill="#93682C"/>
<path id="Vector_46" d="M21.8509 18.5937C21.9088 18.5866 21.9667 18.5813 22.0264 18.5778L22.76 15.5306L22.8021 15.3613L23.878 10.891L23.9201 10.7252L24.9134 6.59529L24.9538 6.42776L25.8682 2.62933L25.9085 2.4618H25.9103L26.4877 0.0564825V0.0529557L26.4912 0.0406116C26.4877 0.0406116 26.4859 0.0388482 26.4842 0.0388482C26.4263 0.0265042 26.3754 0.0194505 26.3262 0.0141602L25.7348 2.46886L25.6944 2.63638L24.7783 6.43658L24.7379 6.6041L23.7446 10.7288L23.7042 10.8945L22.6266 15.3719L22.5862 15.5412H22.5845L21.8509 18.5937Z" fill="#93682C"/>
<path id="Vector_47" d="M10.7091 20.3289C10.7916 20.3113 10.8741 20.2919 10.9584 20.276L13.7138 16.6239H13.7155L13.8594 16.4317L17.7082 11.3336L17.8451 11.1502H17.8469L20.9937 6.98325L21.1341 6.79456L24.165 2.78099L24.3037 2.59583H24.3054L26.2588 0.00887751C26.1552 0.00182378 26.085 0.00887751 26.0517 0.0124044H26.0499L24.0773 2.62581L23.9386 2.81097L20.9042 6.82807L20.762 7.01852L17.6222 11.1767L17.4853 11.3601L13.6243 16.4723L13.4803 16.6645H13.4786L10.7091 20.3289Z" fill="#93682C"/>
<g id="Group_13">
<path id="Vector_48" d="M22.4802 3.04903C22.9734 2.95028 23.4613 2.87269 23.9387 2.8092C24.0141 2.79862 24.0913 2.78981 24.1651 2.78099C24.6863 2.71574 25.197 2.66989 25.6919 2.63815C25.7499 2.63462 25.8078 2.6311 25.8639 2.62757C26.2904 2.60288 26.7046 2.59054 27.1083 2.58525C27.1644 2.58525 27.2223 2.58349 27.2767 2.58525C27.8857 2.58172 28.4631 2.59936 29.0019 2.62933C29.0827 2.63462 29.1634 2.63991 29.2441 2.64344C29.546 2.66284 29.8356 2.68753 30.1094 2.71574C30.0339 2.65226 29.9549 2.59054 29.8795 2.52529H29.8777C29.6232 2.50413 29.3582 2.48297 29.0809 2.4671H29.0792C29.0019 2.46181 28.9212 2.45828 28.8405 2.45299C28.3368 2.4283 27.7997 2.4142 27.2364 2.41772C27.1802 2.41596 27.1241 2.41772 27.0661 2.41949C26.6906 2.42301 26.3027 2.43359 25.9043 2.45828H25.9025C25.8446 2.46004 25.7885 2.46357 25.7306 2.46886C25.2672 2.49708 24.7899 2.53764 24.3037 2.59583H24.3019C24.2265 2.60465 24.151 2.6117 24.0756 2.62404C23.6175 2.68047 23.1489 2.75277 22.6768 2.84095C22.6154 2.90972 22.5487 2.97849 22.4802 3.04903Z" fill="#93682C"/>
</g>
<g id="Group_14">
<path id="Vector_49" d="M17.9562 7.51084C18.8934 7.31334 19.8324 7.14934 20.7625 7.01884C20.8398 7.0065 20.9187 6.99592 20.9942 6.98534C22.2684 6.80899 23.525 6.68732 24.7377 6.60796C24.7956 6.60444 24.8535 6.59915 24.9115 6.59562C26.0048 6.52685 27.0631 6.49158 28.067 6.48276C28.1249 6.48276 28.1811 6.481 28.2373 6.481C29.9028 6.46865 31.4139 6.52332 32.6915 6.59915C32.7723 6.6062 32.853 6.61149 32.9337 6.61502C33.8481 6.67321 34.6326 6.74551 35.2539 6.80723C35.1714 6.74022 35.0924 6.6785 35.0082 6.61502C34.3887 6.5533 33.634 6.48805 32.7688 6.43691C32.6898 6.42986 32.6073 6.42457 32.5266 6.42104C31.2735 6.34874 29.8028 6.30113 28.1951 6.31347C28.139 6.31523 28.0828 6.31523 28.0249 6.31523C27.0456 6.32758 26.0154 6.35932 24.9501 6.42633C24.8922 6.42986 24.8342 6.43338 24.7763 6.43867C23.5952 6.51274 22.3754 6.63089 21.1346 6.79665C21.0591 6.80899 20.9819 6.81781 20.9047 6.82839C20.0079 6.95536 19.1023 7.10701 18.1967 7.29041C18.1177 7.36271 18.0387 7.43501 17.9562 7.51084Z" fill="#93682C"/>
</g>
<g id="Group_15">
<path id="Vector_50" d="M12.6572 12.1115C14.1964 11.794 15.8198 11.5454 17.4836 11.3567C17.5573 11.3461 17.6345 11.3391 17.7082 11.332C19.6791 11.1134 21.7009 10.9758 23.7034 10.8965C23.7613 10.8947 23.8175 10.8929 23.8754 10.8894C25.6673 10.8224 27.4381 10.8012 29.1335 10.8136C29.1897 10.8136 29.2476 10.8136 29.3038 10.8153C32.1136 10.8347 34.711 10.9423 36.8417 11.0675C36.9224 11.0728 37.0031 11.0781 37.0821 11.0816C38.9144 11.1892 40.3833 11.3091 41.3223 11.3937C41.2363 11.3303 41.152 11.2668 41.0643 11.2015C40.0902 11.1169 38.6616 11.0058 36.9189 10.9018C36.8399 10.8965 36.7592 10.8929 36.6802 10.8876C34.5671 10.7677 32.0153 10.6655 29.2634 10.6443C29.2055 10.6443 29.1493 10.6443 29.0932 10.6425C27.4241 10.6337 25.6814 10.6549 23.9193 10.7201C23.8614 10.7219 23.8035 10.7236 23.7455 10.7272C21.7799 10.803 19.7897 10.937 17.8486 11.1469C17.7749 11.1557 17.6977 11.1627 17.624 11.1716C16.0076 11.3514 14.428 11.5842 12.924 11.884L12.9222 11.8857C12.8327 11.9633 12.745 12.0374 12.6572 12.1115Z" fill="#93682C"/>
</g>
<g id="Group_16">
<path id="Vector_51" d="M4.92674 18.4811C7.84186 17.7228 10.7061 17.125 13.479 16.6612H13.4808C13.558 16.6471 13.6388 16.6348 13.716 16.6224H13.7177C16.8084 16.111 19.7849 15.7672 22.5859 15.5414H22.5877C22.6474 15.5379 22.7035 15.5326 22.7614 15.5273C25.4203 15.3192 27.9213 15.2205 30.2133 15.194C30.2695 15.194 30.3257 15.194 30.3836 15.1923C32.2141 15.1764 33.9095 15.2046 35.4451 15.2593C37.5055 15.3334 39.3904 15.4603 41.0665 15.6084H41.0683C41.1508 15.6173 41.2332 15.6226 41.3157 15.6314C44.8416 15.9523 47.411 16.3702 48.6729 16.5995C48.5623 16.5254 48.45 16.4478 48.3341 16.372C46.9441 16.1269 44.4572 15.7442 41.1455 15.448H41.1437C41.063 15.4409 40.9805 15.4339 40.8963 15.4268C39.2641 15.2857 37.4388 15.1641 35.4539 15.0918C33.9042 15.0353 32.1913 15.0071 30.3415 15.0248C30.2836 15.0265 30.2274 15.0265 30.1712 15.0283C27.902 15.053 25.4309 15.1517 22.8018 15.3563C22.7439 15.3616 22.686 15.3651 22.6263 15.3704C19.8569 15.5908 16.9172 15.9294 13.8616 16.4267C13.7844 16.4408 13.7037 16.4531 13.6247 16.4672C10.9044 16.9169 8.09634 17.4936 5.23563 18.2271C5.13033 18.3153 5.02678 18.3982 4.92674 18.4811Z" fill="#93682C"/>
</g>
</g>
<path id="Vector_52" d="M53.9708 21.5949C53.9708 21.5949 55.0642 20.2758 52.8774 19.3077C50.6889 18.3396 44.4129 17.6836 31.4115 17.6836C15.6091 17.6836 5.95467 19.7468 2.40949 21.3304C-1.13569 22.9139 0.177078 24.1448 0.528088 24.4093C0.528088 24.4093 0.571964 22.7817 5.60542 21.7271C10.6389 20.6726 17.9837 19.1772 33.837 19.3765C43.2089 19.4946 51.7893 20.0819 53.0529 20.4063C54.1042 20.6779 54.1024 21.1981 53.9708 21.5949Z" fill="#E3B169"/>
<g id="Group_17">
<path id="Vector_53" d="M52.7336 19.4334C50.5451 18.4653 44.2691 17.8093 31.2677 17.8093C15.4654 17.8093 5.81089 19.8725 2.26571 21.4561C1.75499 21.6836 1.34782 21.904 1.02139 22.1156C1.37064 21.874 1.82344 21.6183 2.41665 21.3538C5.96183 19.7702 15.6145 17.707 31.4187 17.707C44.42 17.707 50.696 18.363 52.8846 19.3312C55.0731 20.2993 53.9779 21.6183 53.9779 21.6183C54.0095 21.5231 54.0324 21.4208 54.0376 21.3168C54.1921 20.8512 54.1675 20.0665 52.7336 19.4334Z" fill="#FEE473"/>
</g>
</g>
<g id="eye1_2_">
<g id="Group_18">
<path id="Vector_54" d="M29.9797 32.8033C29.9797 32.8033 29.0109 29.317 31.6943 25.9559C34.5059 22.4361 39.6991 22.5084 41.2944 25.836C42.7423 28.855 42.2246 31.3661 40.5573 32.9937C38.89 34.6232 31.7909 35.2456 29.9797 32.8033Z" fill="#4A5F2B"/>
<path id="Vector_55" d="M30.6119 34.5759C30.6119 34.5759 29.5344 33.2092 30.3715 29.9116C30.6049 28.9893 30.8682 28.2663 31.2525 27.6191C32.2406 25.9545 33.5534 25.0657 35.0803 24.5349C37.2004 23.7978 40.7736 24.6354 41.4054 28.9981C42.0373 33.3609 38.4096 35.1225 36.7774 35.6145C36.4913 35.7009 36.1421 35.7715 35.7577 35.8191C33.9518 36.0466 31.4351 35.775 30.6119 34.5759Z" fill="url(#paint12_radial_583_9830)"/>
<path id="Vector_56" opacity="0.18" d="M41.4046 28.9981C40.7728 24.6354 37.1978 23.7978 35.0795 24.5349C33.5526 25.0657 32.2398 25.9545 31.2517 27.6191C30.8674 28.2663 30.6041 28.9876 30.3707 29.9116C29.881 31.8443 30.0478 33.1122 30.2707 33.8317C30.1847 33.3732 30.1267 32.7983 30.1373 32.0877C30.1741 29.7582 31.9485 25.5154 35.6095 24.8788C39.2687 24.2422 40.385 26.4147 40.9115 28.3086C41.3888 30.0262 41.3783 32.2746 39.4355 34.2144C40.7096 33.1739 41.7697 31.5216 41.4046 28.9981Z" fill="#010101"/>
</g>
<g id="Group_19">
<path id="Vector_57" d="M38.4021 34.9371C38.4969 34.8789 39.6271 33.6321 39.2568 30.9447C38.8847 28.259 36.275 26.9928 33.7618 27.8851C31.7487 28.5993 30.0288 32.0221 31.5557 34.7184C31.8856 35.3021 32.4876 35.6548 33.1475 35.7624C34.9885 36.0604 36.9454 35.8206 38.4021 34.9371Z" fill="url(#paint13_radial_583_9830)"/>
<path id="Vector_58" d="M34.6929 33.7795C33.7225 33.5746 33.1034 32.6074 33.3101 31.619C33.5167 30.6307 34.4709 29.9955 35.4413 30.2004C36.4116 30.4052 37.0307 31.3725 36.8241 32.3608C36.6174 33.3492 35.6632 33.9843 34.6929 33.7795Z" fill="#010101"/>
<path id="Vector_59" d="M35.0008 30.8249C34.5908 30.8249 34.2584 30.4909 34.2584 30.0789C34.2584 29.667 34.5908 29.333 35.0008 29.333C35.4108 29.333 35.7432 29.667 35.7432 30.0789C35.7432 30.4909 35.4108 30.8249 35.0008 30.8249Z" fill="white"/>
<path id="Vector_60" d="M36.9862 32.0384C36.7575 32.0384 36.572 31.8521 36.572 31.6222C36.572 31.3924 36.7575 31.2061 36.9862 31.2061C37.215 31.2061 37.4004 31.3924 37.4004 31.6222C37.4004 31.8521 37.215 32.0384 36.9862 32.0384Z" fill="white"/>
</g>
</g>
<g id="eye2_2_">
<g id="Group_20">
<path id="Vector_61" d="M23.1666 32.8121C23.1666 32.8121 24.1354 29.3258 21.4519 25.9647C18.6403 22.4449 13.4472 22.5172 11.8519 25.8448C10.4039 28.8638 10.9217 31.3749 12.589 33.0025C14.2545 34.6319 21.3554 35.2544 23.1666 32.8121Z" fill="#4A5F2B"/>
<path id="Vector_62" d="M22.5348 34.5847C22.5348 34.5847 23.6124 33.218 22.7752 29.9204C22.5418 28.9981 22.2785 28.2751 21.8942 27.6279C20.9061 25.9632 19.5933 25.0745 18.0664 24.5437C15.9463 23.8066 12.3731 24.6442 11.7413 29.0069C11.1095 33.3697 14.7371 35.1313 16.3693 35.6233C16.6554 35.7097 17.0046 35.7803 17.389 35.8279C19.1932 36.0554 21.7116 35.7838 22.5348 34.5847Z" fill="url(#paint14_radial_583_9830)"/>
<path id="Vector_63" opacity="0.18" d="M11.741 29.0069C12.3729 24.6442 15.9479 23.8066 18.0662 24.5437C19.5931 25.0745 20.9059 25.9632 21.8939 27.6279C22.2783 28.2751 22.5416 28.9964 22.775 29.9204C23.2646 31.8531 23.0979 33.121 22.875 33.8405C22.961 33.382 23.0189 32.8071 23.0084 32.0965C22.9715 29.767 21.1972 25.5242 17.5362 24.8876C13.8769 24.251 12.7607 26.4235 12.2342 28.3174C11.7568 30.035 11.7674 32.2834 13.7102 34.2232C12.436 33.1827 11.3742 31.5322 11.741 29.0069Z" fill="#010101"/>
</g>
<g id="Group_21">
<path id="Vector_64" d="M14.7445 34.9459C14.6497 34.8877 13.5195 33.6409 13.8898 30.9535C14.2619 28.2678 16.8716 27.0016 19.3848 27.8939C21.3979 28.6081 23.1178 32.0309 21.5909 34.7272C21.261 35.3109 20.659 35.6636 19.9991 35.7712C18.1563 36.0692 16.2012 35.8311 14.7445 34.9459Z" fill="url(#paint15_radial_583_9830)"/>
<path id="Vector_65" d="M16.3218 32.3751C16.1151 31.3868 16.7342 30.4195 17.7046 30.2147C18.675 30.0098 19.6291 30.645 19.8358 31.6333C20.0424 32.6216 19.4233 33.5889 18.453 33.7938C17.4826 33.9986 16.5285 33.3634 16.3218 32.3751Z" fill="#010101"/>
<path id="Vector_66" d="M18.1443 30.8337C17.7343 30.8337 17.402 30.4997 17.402 30.0877C17.402 29.6758 17.7343 29.3418 18.1443 29.3418C18.5543 29.3418 18.8867 29.6758 18.8867 30.0877C18.8867 30.4997 18.5543 30.8337 18.1443 30.8337Z" fill="white"/>
<path id="Vector_67" d="M16.1591 32.0472C15.9303 32.0472 15.7449 31.8609 15.7449 31.631C15.7449 31.4012 15.9303 31.2148 16.1591 31.2148C16.3878 31.2148 16.5732 31.4012 16.5732 31.631C16.5732 31.8609 16.3878 32.0472 16.1591 32.0472Z" fill="white"/>
</g>
</g>
<g id="gougles_1_">
<path id="Vector_68" d="M30.0645 31.255C30.0645 31.255 29.6959 31.6007 29.2326 31.3415C28.7692 31.0822 27.7759 30.1476 26.5438 30.1652C25.3118 30.1829 24.7028 30.719 24.4799 31.0293C24.257 31.3397 23.5252 31.4684 23.1882 31.2092L23.1443 30.652C23.1443 30.652 23.8727 30.8741 24.1605 30.5797C24.4483 30.2852 25.2644 29.4493 26.7264 29.5586C28.0163 29.6556 28.7938 30.5585 29.3537 30.7613C29.6819 30.8794 29.889 30.7243 30.003 30.6079C30.0329 30.9076 30.0645 31.255 30.0645 31.255Z" fill="url(#paint16_linear_583_9830)"/>
<path id="Vector_69" d="M45.624 30.9893L41.4418 30.7266L41.619 31.1851L45.5433 31.4743L45.624 30.9893Z" fill="url(#paint17_linear_583_9830)"/>
<path id="Vector_70" d="M45.068 30.7933C45.068 30.7933 45.5998 30.7509 45.7349 30.8321C45.87 30.9132 45.8191 31.8813 45.7753 32.033C45.7314 32.1846 45.2347 32.1881 45.1241 32.1776C45.0101 32.1687 45.1434 31.0648 45.068 30.7933Z" fill="url(#paint18_linear_583_9830)"/>
<path id="Vector_71" d="M7.99805 30.7933C7.99805 30.7933 7.46627 30.7509 7.33113 30.8321C7.196 30.9132 7.24689 31.8813 7.29077 32.033C7.33464 32.1846 7.83132 32.1881 7.94188 32.1776C8.05421 32.1687 7.92083 31.0648 7.99805 30.7933Z" fill="url(#paint19_linear_583_9830)"/>
<path id="Vector_72" d="M15.6114 24.6758C19.9358 24.6758 23.4424 28.1991 23.4424 32.5442C23.4424 36.8893 19.9358 40.4126 15.6114 40.4126C11.287 40.4126 7.78041 36.8893 7.78041 32.5442C7.78041 28.1991 11.2852 24.6758 15.6114 24.6758ZM15.6114 39.9982C19.7094 39.9982 23.0299 36.6601 23.0299 32.5442C23.0299 28.4266 19.7077 25.0902 15.6114 25.0902C11.5134 25.0902 8.19284 28.4284 8.19284 32.5442C8.19109 36.6601 11.5134 39.9982 15.6114 39.9982Z" fill="url(#paint20_linear_583_9830)"/>
<path id="Vector_73" opacity="0.25" d="M8.12481 32.4292C8.15114 36.4128 11.3716 39.6346 15.3433 39.6346C19.3307 39.6346 22.5618 36.3864 22.5618 32.3816C22.5618 28.3769 19.329 25.1286 15.3433 25.1286C14.8624 25.1286 14.3938 25.1763 13.9393 25.2662C14.4552 25.1516 14.9905 25.0898 15.5416 25.0898C19.6396 25.0898 22.9619 28.428 22.9619 32.5456C22.9619 36.6632 19.6396 40.0014 15.5416 40.0014C11.4436 40.0014 8.1213 36.6632 8.1213 32.5456C8.12306 32.5051 8.12481 32.468 8.12481 32.4292Z" fill="#010101"/>
<path id="Vector_74" d="M45.3662 32.5354C45.3662 36.8805 41.8596 40.4039 37.5352 40.4039C33.2108 40.4039 29.7042 36.8805 29.7042 32.5354C29.7042 28.1903 33.2108 24.667 37.5352 24.667C41.8596 24.667 45.3662 28.1886 45.3662 32.5354ZM44.9538 32.5354C44.9538 28.4178 41.6315 25.0814 37.5352 25.0814C33.4372 25.0814 30.1167 28.4196 30.1167 32.5354C30.1167 36.653 33.439 39.9895 37.5352 39.9895C41.6332 39.9895 44.9538 36.6513 44.9538 32.5354Z" fill="url(#paint21_linear_583_9830)"/>
<path id="Vector_75" opacity="0.25" d="M45.0209 32.4205C44.9946 36.404 41.7741 39.6258 37.8024 39.6258C33.815 39.6258 30.5839 36.3776 30.5839 32.3728C30.5839 28.3681 33.8167 25.1199 37.8024 25.1199C38.2833 25.1199 38.7519 25.1675 39.2065 25.2574C38.6905 25.1428 38.1552 25.0811 37.6041 25.0811C33.5061 25.0811 30.1838 28.4192 30.1838 32.5368C30.1838 36.6545 33.5061 39.9926 37.6041 39.9926C41.7021 39.9926 45.0244 36.6545 45.0244 32.5368C45.0244 32.4963 45.0227 32.4593 45.0209 32.4205Z" fill="#010101"/>
<g id="Group_22">
<path id="Vector_76" opacity="0.17" d="M15.5678 40.0262C11.4706 40.0262 8.14922 36.6889 8.14922 32.5722C8.14922 28.4554 11.4706 25.1182 15.5678 25.1182C19.6649 25.1182 22.9863 28.4554 22.9863 32.5722C22.9863 36.6889 19.6649 40.0262 15.5678 40.0262Z" fill="white"/>
<path id="Vector_77" opacity="0.07" d="M19.5869 38.2855C19.5869 38.2855 14.3709 39.3048 11.0539 35.1061C7.73689 30.9073 9.88154 27.9307 9.88154 27.9307C9.88154 27.9307 7.80182 30.1138 8.35642 33.5719C9.00052 37.5872 11.9578 38.9221 13.6637 39.4441C16.8859 40.4316 19.5869 38.2855 19.5869 38.2855Z" fill="white"/>
</g>
<g id="Group_23">
<path id="Vector_78" opacity="0.17" d="M37.5775 40.0155C33.4804 40.0155 30.159 36.6782 30.159 32.5614C30.159 28.4447 33.4804 25.1074 37.5775 25.1074C41.6747 25.1074 44.9961 28.4447 44.9961 32.5614C44.9961 36.6782 41.6747 40.0155 37.5775 40.0155Z" fill="white"/>
<path id="Vector_79" opacity="0.07" d="M33.5583 38.2767C33.5583 38.2767 38.7743 39.296 42.0913 35.0973C45.4083 30.8985 43.2637 27.9219 43.2637 27.9219C43.2637 27.9219 45.3434 30.105 44.7888 33.5631C44.1447 37.5784 41.1874 38.9133 39.4815 39.4353C36.261 40.4228 33.5583 38.2767 33.5583 38.2767Z" fill="white"/>
</g>
<path id="Vector_80" d="M7.54723 30.9854L11.7295 30.7227L11.5522 31.1794L7.62796 31.4686L7.54723 30.9854Z" fill="url(#paint22_linear_583_9830)"/>
</g>
<g id="mouth_2_">
<path id="Vector_81" opacity="0.39" d="M31.154 40.7382L30.5765 41.008C30.5765 41.008 30.301 43.1118 28.2301 43.6567C26.1591 44.2034 23.9899 43.3022 23.4283 41.9656C22.8667 40.6289 22.8632 40.5513 22.8632 40.5513L22.4279 40.3079L22.5595 40.1475C22.5595 40.1475 25.1377 41.7822 26.8366 41.9109C28.5354 42.0414 28.7285 41.2126 28.7285 41.2126L31.1855 40.5389L31.154 40.7382Z" fill="#C5DA4E"/>
<path id="Vector_82" d="M31.0766 40.5092C31.0766 40.5092 30.7046 40.6538 30.0833 40.809C28.6336 41.2216 25.6097 41.5673 23.3053 40.4369C23.0596 40.3276 22.8139 40.2059 22.5717 40.0684L22.5243 40.2412L22.9508 40.4528C22.9508 40.4528 23.214 43.2178 26.5276 43.5441C29.8411 43.8703 30.3535 40.913 30.3535 40.913L31.1152 40.6432L31.0766 40.5092Z" fill="url(#paint23_radial_583_9830)"/>
<path id="Vector_83" d="M29.7033 41.8876C29.7033 41.8876 25.7843 42.7217 23.7309 41.4485C23.7309 41.4485 23.4185 40.9371 23.308 40.4346C25.9002 41.579 28.6468 41.1664 30.0771 40.8102C30.014 41.0923 29.8771 41.639 29.7033 41.8876Z" fill="white"/>
<path id="Vector_84" d="M31.1789 40.0205L30.9156 40.0769C30.9156 40.0769 31.0666 41.0133 31.5439 41.3642C31.5422 41.3625 31.1087 40.5636 31.1789 40.0205Z" fill="#7A1217"/>
<path id="Vector_85" d="M22.665 39.7314L22.8809 39.8937C22.8809 39.8937 22.3561 40.6819 21.7769 40.8001C21.7769 40.7983 22.5035 40.2552 22.665 39.7314Z" fill="#7A1217"/>
<path id="Vector_86" opacity="0.5" d="M26.0212 42.5371C27.4147 42.486 28.3747 42.7311 29.0381 42.9727C28.4677 43.38 27.6639 43.6534 26.5301 43.5423C25.6614 43.4576 25.005 43.2037 24.5048 42.8774C24.6891 42.7205 25.2086 42.5671 26.0212 42.5371Z" fill="#E22E2B"/>
</g>
<g id="Group_24">
<path id="Vector_87" d="M16.8963 60.9071C16.8963 60.9071 19.3938 57.7417 18.1986 54.9961C16.9683 52.1693 13.2968 54.0791 10.6554 58.6058C8.01409 63.1326 5.8396 69.8424 6.03265 75.1962C6.22571 80.55 10.694 79.9469 12.686 79.6735C14.678 79.4002 16.1715 78.8077 16.1557 75.8734C16.1382 72.9372 13.0598 67.7633 16.8963 60.9071Z" fill="url(#paint24_linear_583_9830)"/>
</g>
<g id="Group_25">
<path id="Vector_88" d="M39.1527 60.9208C39.1527 60.9208 36.6553 57.7554 37.8504 55.0098C39.0807 52.183 42.7523 54.0928 45.3936 58.6195C48.0349 63.1462 50.2094 69.8561 50.0164 75.2099C49.8233 80.5636 45.355 79.9606 43.363 79.6872C41.3711 79.4139 39.8775 78.8214 39.8933 75.887C39.9091 72.9527 42.9892 67.777 39.1527 60.9208Z" fill="url(#paint25_linear_583_9830)"/>
</g>
</g>
<defs>
<linearGradient id="paint0_linear_583_9830" x1="6.78607" y1="63.5477" x2="24.7272" y2="67.629" gradientUnits="userSpaceOnUse">
<stop stop-color="#B8802B"/>
<stop offset="0.1154" stop-color="#AD7529"/>
<stop offset="0.4384" stop-color="#945E24"/>
<stop offset="0.7173" stop-color="#855120"/>
<stop offset="0.9188" stop-color="#7F4C1F"/>
</linearGradient>
<linearGradient id="paint1_linear_583_9830" x1="12.6313" y1="55.0731" x2="15.0348" y2="56.3351" gradientUnits="userSpaceOnUse">
<stop stop-color="#F0EB50"/>
<stop offset="0.0248" stop-color="#EAE14E" stop-opacity="0.9752"/>
<stop offset="0.2662" stop-color="#C9AE3D" stop-opacity="0.7338"/>
<stop offset="0.4924" stop-color="#B38B31" stop-opacity="0.5076"/>
<stop offset="0.6971" stop-color="#A5752B" stop-opacity="0.3029"/>
<stop offset="0.873" stop-color="#9D6928" stop-opacity="0.127"/>
<stop offset="1" stop-color="#9A6427" stop-opacity="0"/>
</linearGradient>
<linearGradient id="paint2_linear_583_9830" x1="14.4764" y1="67.9789" x2="5.29802" y2="67.3798" gradientUnits="userSpaceOnUse">
<stop offset="0.051" stop-color="#9A6427" stop-opacity="0"/>
<stop offset="0.1988" stop-color="#AC7C28" stop-opacity="0.1893"/>
<stop offset="0.4978" stop-color="#D2B127" stop-opacity="0.5723"/>
<stop offset="0.7172" stop-color="#EFD71F" stop-opacity="0.8533"/>
<stop offset="0.8317" stop-color="#FEEA17"/>
</linearGradient>
<linearGradient id="paint3_linear_583_9830" x1="49.5839" y1="62.0085" x2="35.9312" y2="66.1935" gradientUnits="userSpaceOnUse">
<stop stop-color="#B8802B"/>
<stop offset="0.1154" stop-color="#AD7529"/>
<stop offset="0.4384" stop-color="#945E24"/>
<stop offset="0.7173" stop-color="#855120"/>
<stop offset="0.9188" stop-color="#7F4C1F"/>
</linearGradient>
<linearGradient id="paint4_linear_583_9830" x1="43.5364" y1="53.7835" x2="41.274" y2="55.1936" gradientUnits="userSpaceOnUse">
<stop stop-color="#F0EB50"/>
<stop offset="0.0248" stop-color="#EAE14E" stop-opacity="0.9752"/>
<stop offset="0.2662" stop-color="#C9AE3D" stop-opacity="0.7338"/>
<stop offset="0.4924" stop-color="#B38B31" stop-opacity="0.5076"/>
<stop offset="0.6971" stop-color="#A5752B" stop-opacity="0.3029"/>
<stop offset="0.873" stop-color="#9D6928" stop-opacity="0.127"/>
<stop offset="1" stop-color="#9A6427" stop-opacity="0"/>
</linearGradient>
<linearGradient id="paint5_linear_583_9830" x1="42.6635" y1="66.5544" x2="51.6069" y2="65.3042" gradientUnits="userSpaceOnUse">
<stop offset="0.051" stop-color="#9A6427" stop-opacity="0"/>
<stop offset="0.1988" stop-color="#AC7C28" stop-opacity="0.1893"/>
<stop offset="0.4978" stop-color="#D2B127" stop-opacity="0.5723"/>
<stop offset="0.7172" stop-color="#EFD71F" stop-opacity="0.8533"/>
<stop offset="0.8317" stop-color="#FEEA17"/>
</linearGradient>
<linearGradient id="paint6_linear_583_9830" x1="41.9464" y1="70.3895" x2="11.2877" y2="71.3786" gradientUnits="userSpaceOnUse">
<stop offset="0.1061" stop-color="#FEE06F"/>
<stop offset="0.1313" stop-color="#FCDD6C"/>
<stop offset="0.3862" stop-color="#ECC353"/>
<stop offset="0.6064" stop-color="#E3B446"/>
<stop offset="0.7654" stop-color="#E0AF41"/>
<stop offset="0.8228" stop-color="#E4B546"/>
<stop offset="0.9091" stop-color="#EEC657"/>
<stop offset="1" stop-color="#FEE06F"/>
</linearGradient>
<linearGradient id="paint7_linear_583_9830" x1="36.7842" y1="49.0354" x2="20.1972" y2="52.3367" gradientUnits="userSpaceOnUse">
<stop stop-color="#F0EB50"/>
<stop offset="0.074" stop-color="#D7DB4E"/>
<stop offset="0.1745" stop-color="#BDCD4C"/>
<stop offset="0.2613" stop-color="#ACC54B"/>
<stop offset="0.324" stop-color="#A6C34B"/>
<stop offset="0.6177" stop-color="#799A3D"/>
<stop offset="0.6644" stop-color="#759844"/>
<stop offset="0.7497" stop-color="#699458"/>
<stop offset="0.8641" stop-color="#538E77"/>
<stop offset="1" stop-color="#29879A"/>
</linearGradient>
<linearGradient id="paint8_linear_583_9830" x1="33.1449" y1="50.594" x2="22.8643" y2="49.0629" gradientUnits="userSpaceOnUse">
<stop stop-color="#F0EB50"/>
<stop offset="0.074" stop-color="#D7DB4E"/>
<stop offset="0.1745" stop-color="#BDCD4C"/>
<stop offset="0.2613" stop-color="#ACC54B"/>
<stop offset="0.324" stop-color="#A6C34B"/>
<stop offset="0.6177" stop-color="#799A3D"/>
<stop offset="0.6644" stop-color="#759844"/>
<stop offset="0.7497" stop-color="#699458"/>
<stop offset="0.8641" stop-color="#538E77"/>
<stop offset="1" stop-color="#29879A"/>
</linearGradient>
<linearGradient id="paint9_linear_583_9830" x1="27.657" y1="29.6306" x2="27.0994" y2="19.3642" gradientUnits="userSpaceOnUse">
<stop offset="0.00262056" stop-color="#8F5926"/>
<stop offset="0.126" stop-color="#855224"/>
<stop offset="0.591" stop-color="#643C1C"/>
<stop offset="0.8261" stop-color="#593417"/>
</linearGradient>
<linearGradient id="paint10_linear_583_9830" x1="53.7213" y1="37.3058" x2="0.920281" y2="24.0804" gradientUnits="userSpaceOnUse">
<stop offset="0.1428" stop-color="#F0EB50"/>
<stop offset="0.2216" stop-color="#CDD64D"/>
<stop offset="0.3003" stop-color="#B1C84B"/>
<stop offset="0.3443" stop-color="#A6C34B"/>
<stop offset="0.5914" stop-color="#799A3D"/>
<stop offset="0.6689" stop-color="#6B9555"/>
<stop offset="0.8544" stop-color="#428A88"/>
<stop offset="0.9381" stop-color="#29879A"/>
</linearGradient>
<linearGradient id="paint11_linear_583_9830" x1="52.6231" y1="11.64" x2="0.129334" y2="11.64" gradientUnits="userSpaceOnUse">
<stop offset="0.0194" stop-color="#DCA755"/>
<stop offset="0.0847" stop-color="#D9A553"/>
<stop offset="0.8261" stop-color="#C69448"/>
</linearGradient>
<radialGradient id="paint12_radial_583_9830" cx="0" cy="0" r="1" gradientUnits="userSpaceOnUse" gradientTransform="translate(32.3885 32.6813) scale(13.3462 13.41)">
<stop offset="0.098" stop-color="white"/>
<stop offset="0.2139" stop-color="#FCFAF7"/>
<stop offset="0.3275" stop-color="#F3EEE7"/>
<stop offset="0.4402" stop-color="#E9E0D2"/>
<stop offset="0.5524" stop-color="#DDCFB7"/>
<stop offset="0.6643" stop-color="#CFBA97"/>
<stop offset="0.7759" stop-color="#BFA275"/>
<stop offset="0.8873" stop-color="#AD8A4F"/>
<stop offset="0.9961" stop-color="#9A712B"/>
<stop offset="1" stop-color="#99702A"/>
</radialGradient>
<radialGradient id="paint13_radial_583_9830" cx="0" cy="0" r="1" gradientUnits="userSpaceOnUse" gradientTransform="translate(35.2784 32.1855) rotate(180) scale(5.82176 5.8496)">
<stop stop-color="#8F5926"/>
<stop offset="0.1919" stop-color="#8D5625"/>
<stop offset="0.3795" stop-color="#844F21"/>
<stop offset="0.5299" stop-color="#79451C"/>
<stop offset="0.7386" stop-color="#593417"/>
<stop offset="0.7981" stop-color="#5E3718"/>
<stop offset="0.8869" stop-color="#6D3F1A"/>
<stop offset="0.9419" stop-color="#79451C"/>
</radialGradient>
<radialGradient id="paint14_radial_583_9830" cx="0" cy="0" r="1" gradientUnits="userSpaceOnUse" gradientTransform="translate(20.7576 32.6902) rotate(180) scale(13.3462 13.41)">
<stop offset="0.098" stop-color="white"/>
<stop offset="0.2139" stop-color="#FCFAF7"/>
<stop offset="0.3275" stop-color="#F3EEE7"/>
<stop offset="0.4402" stop-color="#E9E0D2"/>
<stop offset="0.5524" stop-color="#DDCFB7"/>
<stop offset="0.6643" stop-color="#CFBA97"/>
<stop offset="0.7759" stop-color="#BFA275"/>
<stop offset="0.8873" stop-color="#AD8A4F"/>
<stop offset="0.9961" stop-color="#9A712B"/>
<stop offset="1" stop-color="#99702A"/>
</radialGradient>
<radialGradient id="paint15_radial_583_9830" cx="0" cy="0" r="1" gradientUnits="userSpaceOnUse" gradientTransform="translate(17.8676 32.1945) scale(5.82176 5.8496)">
<stop stop-color="#8F5926"/>
<stop offset="0.1919" stop-color="#8D5625"/>
<stop offset="0.3795" stop-color="#844F21"/>
<stop offset="0.5299" stop-color="#79451C"/>
<stop offset="0.7386" stop-color="#593417"/>
<stop offset="0.7981" stop-color="#5E3718"/>
<stop offset="0.8869" stop-color="#6D3F1A"/>
<stop offset="0.9419" stop-color="#79451C"/>
</radialGradient>
<linearGradient id="paint16_linear_583_9830" x1="30.0641" y1="30.4946" x2="23.1435" y2="30.4946" gradientUnits="userSpaceOnUse">
<stop offset="0.00262056" stop-color="#8F5926"/>
<stop offset="0.0766" stop-color="#855224"/>
<stop offset="0.3555" stop-color="#643C1C"/>
<stop offset="0.4965" stop-color="#593417"/>
<stop offset="0.674" stop-color="#5B3518"/>
<stop offset="0.8057" stop-color="#623919"/>
<stop offset="0.9223" stop-color="#6D3F1A"/>
<stop offset="1" stop-color="#79451C"/>
</linearGradient>
<linearGradient id="paint17_linear_583_9830" x1="45.624" y1="31.1006" x2="41.4424" y2="31.1006" gradientUnits="userSpaceOnUse">
<stop offset="0.00262056" stop-color="#8F5926"/>
<stop offset="0.0766" stop-color="#855224"/>
<stop offset="0.3555" stop-color="#643C1C"/>
<stop offset="0.4965" stop-color="#593417"/>
<stop offset="0.674" stop-color="#5B3518"/>
<stop offset="0.8057" stop-color="#623919"/>
<stop offset="0.9223" stop-color="#6D3F1A"/>
<stop offset="1" stop-color="#79451C"/>
</linearGradient>
<linearGradient id="paint18_linear_583_9830" x1="45.8317" y1="31.4463" x2="45.0311" y2="31.5101" gradientUnits="userSpaceOnUse">
<stop offset="0.00262056" stop-color="#8F5926"/>
<stop offset="0.0766" stop-color="#855224"/>
<stop offset="0.3555" stop-color="#643C1C"/>
<stop offset="0.4965" stop-color="#593417"/>
<stop offset="0.674" stop-color="#5B3518"/>
<stop offset="0.8057" stop-color="#623919"/>
<stop offset="0.9223" stop-color="#6D3F1A"/>
<stop offset="1" stop-color="#79451C"/>
</linearGradient>
<linearGradient id="paint19_linear_583_9830" x1="7.22789" y1="31.4334" x2="8.02847" y2="31.4972" gradientUnits="userSpaceOnUse">
<stop offset="0.00262056" stop-color="#8F5926"/>
<stop offset="0.0766" stop-color="#855224"/>
<stop offset="0.3555" stop-color="#643C1C"/>
<stop offset="0.4965" stop-color="#593417"/>
<stop offset="0.674" stop-color="#5B3518"/>
<stop offset="0.8057" stop-color="#623919"/>
<stop offset="0.9223" stop-color="#6D3F1A"/>
<stop offset="1" stop-color="#79451C"/>
</linearGradient>
<linearGradient id="paint20_linear_583_9830" x1="15.3988" y1="23.7518" x2="15.818" y2="40.9744" gradientUnits="userSpaceOnUse">
<stop offset="0.00262056" stop-color="#8F5926"/>
<stop offset="0.0766" stop-color="#855224"/>
<stop offset="0.3555" stop-color="#643C1C"/>
<stop offset="0.4965" stop-color="#593417"/>
<stop offset="0.674" stop-color="#5B3518"/>
<stop offset="0.8057" stop-color="#623919"/>
<stop offset="0.9223" stop-color="#6D3F1A"/>
<stop offset="1" stop-color="#79451C"/>
</linearGradient>
<linearGradient id="paint21_linear_583_9830" x1="37.7472" y1="23.7429" x2="37.3281" y2="40.9655" gradientUnits="userSpaceOnUse">
<stop offset="0.00262056" stop-color="#8F5926"/>
<stop offset="0.0766" stop-color="#855224"/>
<stop offset="0.3555" stop-color="#643C1C"/>
<stop offset="0.4965" stop-color="#593417"/>
<stop offset="0.674" stop-color="#5B3518"/>
<stop offset="0.8057" stop-color="#623919"/>
<stop offset="0.9223" stop-color="#6D3F1A"/>
<stop offset="1" stop-color="#79451C"/>
</linearGradient>
<linearGradient id="paint22_linear_583_9830" x1="7.54734" y1="31.0957" x2="11.7289" y2="31.0957" gradientUnits="userSpaceOnUse">
<stop offset="0.00262056" stop-color="#8F5926"/>
<stop offset="0.0766" stop-color="#855224"/>
<stop offset="0.3555" stop-color="#643C1C"/>
<stop offset="0.4965" stop-color="#593417"/>
<stop offset="0.674" stop-color="#5B3518"/>
<stop offset="0.8057" stop-color="#623919"/>
<stop offset="0.9223" stop-color="#6D3F1A"/>
<stop offset="1" stop-color="#79451C"/>
</linearGradient>
<radialGradient id="paint23_radial_583_9830" cx="0" cy="0" r="1" gradientUnits="userSpaceOnUse" gradientTransform="translate(26.7335 43.5368) rotate(178.44) scale(3.83753 2.47914)">
<stop offset="0.3624" stop-color="#A91E23"/>
<stop offset="1" stop-color="#7A1217"/>
</radialGradient>
<linearGradient id="paint24_linear_583_9830" x1="20.0324" y1="69.7479" x2="6.10813" y2="63.8228" gradientUnits="userSpaceOnUse">
<stop offset="0.0444" stop-color="#F0EB50"/>
<stop offset="0.1102" stop-color="#D7DB4E"/>
<stop offset="0.1957" stop-color="#BCCD4C"/>
<stop offset="0.2701" stop-color="#ACC54B"/>
<stop offset="0.3243" stop-color="#A6C34B"/>
<stop offset="0.6365" stop-color="#799A3D"/>
<stop offset="0.6756" stop-color="#759844"/>
<stop offset="0.7471" stop-color="#699458"/>
<stop offset="0.8432" stop-color="#538E77"/>
<stop offset="0.9572" stop-color="#29879A"/>
</linearGradient>
<linearGradient id="paint25_linear_583_9830" x1="36.0152" y1="69.7613" x2="49.9395" y2="63.8362" gradientUnits="userSpaceOnUse">
<stop offset="0.0444" stop-color="#F0EB50"/>
<stop offset="0.1102" stop-color="#D7DB4E"/>
<stop offset="0.1957" stop-color="#BCCD4C"/>
<stop offset="0.2701" stop-color="#ACC54B"/>
<stop offset="0.3243" stop-color="#A6C34B"/>
<stop offset="0.6365" stop-color="#799A3D"/>
<stop offset="0.6756" stop-color="#759844"/>
<stop offset="0.7471" stop-color="#699458"/>
<stop offset="0.8432" stop-color="#538E77"/>
<stop offset="0.9572" stop-color="#29879A"/>
</linearGradient>
<clipPath id="clip0_583_9830">
<rect width="54.2535" height="62" fill="white" transform="matrix(-1 0 0 1 54.2539 0)"/>
</clipPath>
</defs>
</svg>
