<svg width="128" height="128" viewBox="0 0 128 128" fill="none" xmlns="http://www.w3.org/2000/svg">
<g id="Frame 1451">
<path id="Ellipse 5" d="M128 64C128 99.3462 99.3462 128 64 128C28.6538 128 0 99.3462 0 64C0 28.6538 28.6538 0 64 0C99.3462 0 128 28.6538 128 64ZM6.36518 64C6.36518 95.8308 32.1692 121.635 64 121.635C95.8308 121.635 121.635 95.8308 121.635 64C121.635 32.1692 95.8308 6.36518 64 6.36518C32.1692 6.36518 6.36518 32.1692 6.36518 64Z" fill="#D5D2D9"/>
<path id="Ellipse 4" d="M64 0C74.285 1.22647e-07 84.4185 2.47874 93.5423 7.22628C102.666 11.9738 110.511 18.8503 116.413 27.2733C122.315 35.6962 126.101 45.4176 127.448 55.6139C128.796 65.8103 127.666 76.1812 124.155 85.8483C120.644 95.5155 114.855 104.194 107.278 111.149C99.7009 118.104 90.5594 123.13 80.6275 125.802C70.6957 128.474 60.2662 128.714 50.2223 126.499C40.1785 124.285 30.8162 119.683 22.9284 113.083L27.0132 108.201C34.1165 114.145 42.5477 118.29 51.5926 120.283C60.6375 122.277 70.0298 122.062 78.9738 119.656C87.9179 117.249 96.1503 112.723 102.974 106.46C109.797 100.196 115.011 92.3811 118.172 83.6754C121.334 74.9697 122.352 65.6302 121.138 56.448C119.924 47.2657 116.516 38.5112 111.2 30.926C105.885 23.3407 98.8204 17.1481 90.6041 12.8728C82.3878 8.5974 73.2621 6.36518 64 6.36518V0Z" fill="#43E05A"/>
</g>
</svg>
