<svg width="16" height="17" viewBox="0 0 16 17" fill="none" xmlns="http://www.w3.org/2000/svg">
<g id="Translate">
<path id="Vector" d="M14.9469 13.7762L11.4469 6.77625C11.4053 6.69321 11.3415 6.62338 11.2625 6.57457C11.1835 6.52576 11.0925 6.49991 10.9997 6.49991C10.9068 6.49991 10.8158 6.52576 10.7368 6.57457C10.6579 6.62338 10.594 6.69321 10.5525 6.77625L9.19563 9.49063C8.13206 9.43082 7.10875 9.06344 6.25 8.43313C7.25755 7.35716 7.86803 5.96976 7.98063 4.5H9.5C9.63261 4.5 9.75979 4.44732 9.85355 4.35355C9.94732 4.25979 10 4.13261 10 4C10 3.86739 9.94732 3.74021 9.85355 3.64645C9.75979 3.55268 9.63261 3.5 9.5 3.5H6V2.5C6 2.36739 5.94732 2.24021 5.85355 2.14645C5.75979 2.05268 5.63261 2 5.5 2C5.36739 2 5.24021 2.05268 5.14645 2.14645C5.05268 2.24021 5 2.36739 5 2.5V3.5H1.5C1.36739 3.5 1.24021 3.55268 1.14645 3.64645C1.05268 3.74021 1 3.86739 1 4C1 4.13261 1.05268 4.25979 1.14645 4.35355C1.24021 4.44732 1.36739 4.5 1.5 4.5H6.97687C6.86551 5.72541 6.34535 6.87778 5.5 7.77187C4.97322 7.21604 4.56871 6.55604 4.3125 5.83437C4.29143 5.77141 4.25804 5.71327 4.21426 5.66335C4.17048 5.61343 4.1172 5.57273 4.05753 5.54363C3.99785 5.51452 3.93298 5.49759 3.86669 5.49383C3.8004 5.49006 3.73402 5.49954 3.67144 5.5217C3.60885 5.54386 3.5513 5.57827 3.50216 5.62291C3.45301 5.66755 3.41324 5.72154 3.38518 5.78171C3.35712 5.84189 3.34133 5.90705 3.33872 5.97339C3.33612 6.03974 3.34675 6.10593 3.37 6.16813C3.66829 7.01179 4.13817 7.78449 4.75 8.4375C3.80798 9.12974 2.66902 9.50209 1.5 9.5C1.36739 9.5 1.24021 9.55268 1.14645 9.64645C1.05268 9.74021 1 9.86739 1 10C1 10.1326 1.05268 10.2598 1.14645 10.3536C1.24021 10.4473 1.36739 10.5 1.5 10.5C2.95037 10.5016 4.35916 10.0156 5.5 9.12C6.43098 9.84742 7.54235 10.3078 8.715 10.4519L7.0525 13.7762C6.99316 13.8949 6.98336 14.0322 7.02526 14.158C7.06717 14.2838 7.15734 14.3878 7.27594 14.4472C7.39454 14.5065 7.53186 14.5163 7.65768 14.4744C7.78351 14.4325 7.88753 14.3424 7.94688 14.2238L8.80875 12.5H13.1906L14.0525 14.2238C14.0941 14.3068 14.158 14.3767 14.237 14.4255C14.316 14.4743 14.4071 14.5001 14.5 14.5C14.5852 14.5 14.669 14.4781 14.7434 14.4366C14.8178 14.3951 14.8804 14.3352 14.9252 14.2627C14.9699 14.1902 14.9954 14.1074 14.9992 14.0223C15.003 13.9372 14.985 13.8525 14.9469 13.7762ZM9.30875 11.5L11 8.11812L12.6906 11.5H9.30875Z" fill="#06030D"/>
</g>
</svg>
