<svg width="16" height="16" viewBox="0 0 16 16" fill="none" xmlns="http://www.w3.org/2000/svg">
<g id="UserSwitch" clip-path="url(#clip0_351_15078)">
<path id="Vector" d="M15.854 8.35334L14.354 9.85334C14.3076 9.89983 14.2524 9.93671 14.1917 9.96187C14.131 9.98704 14.066 9.99999 14.0003 9.99999C13.9346 9.99999 13.8695 9.98704 13.8088 9.96187C13.7481 9.93671 13.693 9.89983 13.6465 9.85334L12.1465 8.35334C12.0527 8.25952 12 8.13228 12 7.99959C12 7.86691 12.0527 7.73966 12.1465 7.64584C12.2403 7.55202 12.3676 7.49932 12.5003 7.49932C12.633 7.49932 12.7602 7.55202 12.854 7.64584L13.5003 8.29272V7.99959C13.5009 6.83499 13.1317 5.70026 12.4461 4.75888C11.7605 3.81749 10.7937 3.11804 9.68508 2.76129C8.57646 2.40454 7.38322 2.4089 6.27724 2.77375C5.17126 3.1386 4.20964 3.84509 3.5309 4.79147C3.45349 4.89921 3.33645 4.97179 3.20553 4.99324C3.0746 5.01469 2.94052 4.98325 2.83278 4.90584C2.72503 4.82843 2.65245 4.71139 2.631 4.58047C2.60955 4.44955 2.64099 4.31546 2.7184 4.20772C3.52058 3.08929 4.65708 2.25437 5.96417 1.82323C7.27126 1.39209 8.68147 1.38698 9.99164 1.80865C11.3018 2.23032 12.4443 3.05699 13.2546 4.16958C14.0648 5.28216 14.501 6.62323 14.5003 7.99959V8.29272L15.1465 7.64584C15.2403 7.55202 15.3676 7.49932 15.5003 7.49932C15.633 7.49932 15.7602 7.55202 15.854 7.64584C15.9478 7.73966 16.0006 7.86691 16.0006 7.99959C16.0006 8.13228 15.9478 8.25952 15.854 8.35334ZM13.2803 11.7908C12.4779 12.9084 11.3415 13.7426 10.0349 14.1732C8.72819 14.6039 7.31858 14.6088 6.00892 14.1873C4.69927 13.7658 3.55714 12.9396 2.74693 11.8277C1.93672 10.7157 1.50022 9.3754 1.50028 7.99959V7.70647L0.854028 8.35334C0.760208 8.44716 0.63296 8.49987 0.500278 8.49987C0.367596 8.49987 0.240348 8.44716 0.146528 8.35334C0.0527077 8.25952 0 8.13228 0 7.99959C0 7.86691 0.0527077 7.73966 0.146528 7.64584L1.64653 6.14584C1.69296 6.09936 1.74811 6.06248 1.80881 6.03731C1.86951 6.01215 1.93457 5.9992 2.00028 5.9992C2.06599 5.9992 2.13105 6.01215 2.19175 6.03731C2.25245 6.06248 2.30759 6.09936 2.35403 6.14584L3.85403 7.64584C3.94785 7.73966 4.00056 7.86691 4.00056 7.99959C4.00056 8.13228 3.94785 8.25952 3.85403 8.35334C3.76021 8.44716 3.63296 8.49987 3.50028 8.49987C3.3676 8.49987 3.24035 8.44716 3.14653 8.35334L2.50028 7.70647V7.99959C2.49909 9.34596 2.99393 10.6456 3.89028 11.6502C4.44792 10.8421 5.23204 10.217 6.14403 9.85334C5.65414 9.4675 5.29667 8.93858 5.12132 8.34015C4.94597 7.74172 4.96147 7.10353 5.16564 6.51431C5.36982 5.92509 5.75254 5.41415 6.26057 5.05252C6.7686 4.6909 7.37669 4.49658 8.00028 4.49658C8.62387 4.49658 9.23196 4.6909 9.73999 5.05252C10.248 5.41415 10.6307 5.92509 10.8349 6.51431C11.0391 7.10353 11.0546 7.74172 10.8792 8.34015C10.7039 8.93858 10.3464 9.4675 9.85653 9.85334C10.7694 10.217 11.554 10.8429 12.1115 11.6521C12.2379 11.5101 12.3571 11.3618 12.4684 11.2077C12.5458 11.1 12.6629 11.0274 12.7938 11.0059C12.9247 10.9845 13.0588 11.0159 13.1665 11.0933C13.2743 11.1708 13.3469 11.2878 13.3683 11.4187C13.3898 11.5496 13.3583 11.6837 13.2809 11.7915L13.2803 11.7908ZM8.00028 9.49959C8.39584 9.49959 8.78252 9.3823 9.11142 9.16253C9.44032 8.94277 9.69666 8.63041 9.84804 8.26496C9.99941 7.89951 10.039 7.49738 9.96185 7.10941C9.88468 6.72145 9.6942 6.36509 9.41449 6.08538C9.13479 5.80568 8.77842 5.61519 8.39046 5.53802C8.0025 5.46085 7.60036 5.50046 7.23491 5.65183C6.86946 5.80321 6.5571 6.05956 6.33734 6.38845C6.11758 6.71735 6.00028 7.10403 6.00028 7.49959C6.00028 8.03003 6.21099 8.53873 6.58606 8.91381C6.96114 9.28888 7.46985 9.49959 8.00028 9.49959ZM8.00028 13.4996C9.22056 13.498 10.4058 13.0916 11.3703 12.344C11.0086 11.7783 10.5103 11.3127 9.92133 10.9903C9.33238 10.6678 8.67173 10.4988 8.00028 10.4988C7.32883 10.4988 6.66818 10.6678 6.07923 10.9903C5.49028 11.3127 4.99199 11.7783 4.63028 12.344C5.59329 13.0942 6.7795 13.501 8.00028 13.4996Z" fill="#635B73"/>
</g>
<defs>
<clipPath id="clip0_351_15078">
<rect width="16" height="16" fill="white"/>
</clipPath>
</defs>
</svg>
