<svg width="24" height="25" viewBox="0 0 24 25" fill="none" xmlns="http://www.w3.org/2000/svg">
<g id="Group 121">
<rect id="Rectangle 193" x="24" y="0.5" width="24" height="24" rx="4" transform="rotate(90 24 0.5)" fill="#F2F2F2"/>
<g id="Group 115">
<path id="Vector" d="M13.501 12.75C13.501 12.0596 12.9413 11.5 12.251 11.5C11.5606 11.5 11.001 12.0596 11.001 12.75C11.001 13.4404 11.5606 14 12.251 14C12.9413 14 13.501 13.4404 13.501 12.75Z" fill="#4A4159"/>
<path id="Vector_2" d="M13.5 7.75C13.5 7.05964 12.9404 6.5 12.25 6.5C11.5596 6.5 11 7.05964 11 7.75C11 8.44036 11.5596 9 12.25 9C12.9404 9 13.5 8.44036 13.5 7.75Z" fill="#4A4159"/>
<path id="Vector_3" d="M13.501 17.75C13.501 17.0596 12.9413 16.5 12.251 16.5C11.5606 16.5 11.001 17.0596 11.001 17.75C11.001 18.4404 11.5606 19 12.251 19C12.9413 19 13.501 18.4404 13.501 17.75Z" fill="#4A4159"/>
</g>
</g>
</svg>
