<svg width="21" height="20" viewBox="0 0 21 20" fill="none" xmlns="http://www.w3.org/2000/svg">
<g id="Icon" clip-path="url(#clip0_101_15061)">
<path id="Vector" d="M19.8211 9.74688C19.7937 9.68516 19.132 8.21719 17.6609 6.74609C15.7008 4.78594 13.225 3.75 10.5 3.75C7.77499 3.75 5.29921 4.78594 3.33905 6.74609C1.86796 8.21719 1.20312 9.6875 1.1789 9.74688C1.14336 9.82681 1.125 9.91331 1.125 10.0008C1.125 10.0883 1.14336 10.1748 1.1789 10.2547C1.20624 10.3164 1.86796 11.7836 3.33905 13.2547C5.29921 15.2141 7.77499 16.25 10.5 16.25C13.225 16.25 15.7008 15.2141 17.6609 13.2547C19.132 11.7836 19.7937 10.3164 19.8211 10.2547C19.8566 10.1748 19.875 10.0883 19.875 10.0008C19.875 9.91331 19.8566 9.82681 19.8211 9.74688ZM10.5 15C8.0953 15 5.99452 14.1258 4.25546 12.4023C3.5419 11.6927 2.93483 10.8836 2.45312 10C2.9347 9.11636 3.54179 8.30717 4.25546 7.59766C5.99452 5.87422 8.0953 5 10.5 5C12.9047 5 15.0055 5.87422 16.7445 7.59766C17.4595 8.307 18.0679 9.11619 18.5508 10C17.9875 11.0516 15.5336 15 10.5 15ZM10.5 6.25C9.75831 6.25 9.03329 6.46993 8.4166 6.88199C7.79992 7.29404 7.31927 7.87971 7.03544 8.56494C6.75162 9.25016 6.67735 10.0042 6.82205 10.7316C6.96674 11.459 7.32389 12.1272 7.84834 12.6517C8.37279 13.1761 9.04097 13.5333 9.7684 13.6779C10.4958 13.8226 11.2498 13.7484 11.9351 13.4645C12.6203 13.1807 13.2059 12.7001 13.618 12.0834C14.0301 11.4667 14.25 10.7417 14.25 10C14.249 9.00576 13.8535 8.05253 13.1505 7.34949C12.4475 6.64645 11.4942 6.25103 10.5 6.25ZM10.5 12.5C10.0055 12.5 9.52219 12.3534 9.11107 12.0787C8.69994 11.804 8.37951 11.4135 8.19029 10.9567C8.00107 10.4999 7.95157 9.99723 8.04803 9.51227C8.14449 9.02732 8.38259 8.58186 8.73222 8.23223C9.08186 7.8826 9.52731 7.6445 10.0123 7.54804C10.4972 7.45157 10.9999 7.50108 11.4567 7.6903C11.9135 7.87952 12.304 8.19995 12.5787 8.61107C12.8534 9.0222 13 9.50555 13 10C13 10.663 12.7366 11.2989 12.2678 11.7678C11.7989 12.2366 11.163 12.5 10.5 12.5Z" fill="#614298"/>
<path id="Vector_2" d="M35.8344 26.2059C35.763 26.2466 35.6843 26.2728 35.6028 26.2831C35.5213 26.2933 35.4385 26.2874 35.3593 26.2656C35.28 26.2438 35.2059 26.2067 35.141 26.1562C35.0761 26.1057 35.0219 26.043 34.9813 25.9715L33.4969 23.3777C32.634 23.9612 31.682 24.4008 30.6782 24.6793L31.1368 27.4309C31.1503 27.5119 31.1477 27.5947 31.1292 27.6748C31.1107 27.7548 31.0766 27.8303 31.0289 27.8972C30.9811 27.964 30.9207 28.0208 30.851 28.0642C30.7813 28.1077 30.7037 28.1369 30.6227 28.1504C30.5894 28.1558 30.5557 28.1587 30.5219 28.159C30.3741 28.1588 30.2311 28.1061 30.1184 28.0104C30.0057 27.9147 29.9305 27.7822 29.9063 27.6363L29.4555 24.9348C28.5049 25.0671 27.5405 25.0671 26.5899 24.9348L26.1391 27.6363C26.1149 27.7825 26.0395 27.9152 25.9265 28.0109C25.8134 28.1067 25.6701 28.1591 25.5219 28.159C25.4874 28.1588 25.4529 28.156 25.4188 28.1504C25.3378 28.1369 25.2602 28.1077 25.1905 28.0642C25.1208 28.0208 25.0604 27.964 25.0127 27.8972C24.9649 27.8303 24.9308 27.7548 24.9123 27.6748C24.8938 27.5947 24.8912 27.5119 24.9047 27.4309L25.3657 24.6793C24.3623 24.3999 23.4108 23.9596 22.5485 23.3754L21.0688 25.9715C20.9859 26.1159 20.8491 26.2215 20.6883 26.265C20.5276 26.3085 20.3562 26.2864 20.2118 26.2035C20.0674 26.1206 19.9618 25.9838 19.9183 25.8231C19.8747 25.6623 19.8969 25.4909 19.9797 25.3465L21.5422 22.6121C20.9934 22.138 20.4887 21.615 20.0344 21.0496C19.9778 20.9864 19.9346 20.9122 19.9076 20.8317C19.8805 20.7512 19.8701 20.6661 19.8771 20.5814C19.8841 20.4968 19.9082 20.4144 19.948 20.3394C19.9879 20.2645 20.0426 20.1984 20.1088 20.1452C20.175 20.092 20.2514 20.053 20.3332 20.0303C20.4151 20.0076 20.5007 20.0019 20.5848 20.0134C20.669 20.0249 20.7499 20.0535 20.8226 20.0973C20.8953 20.1412 20.9584 20.1994 21.0079 20.2684C22.3047 21.8731 24.5735 23.784 28.0219 23.784C31.4704 23.784 33.7391 21.8707 35.036 20.2684C35.0849 20.1979 35.1478 20.1383 35.2208 20.0933C35.2937 20.0482 35.3752 20.0186 35.46 20.0064C35.5449 19.9942 35.6314 19.9995 35.7141 20.0221C35.7968 20.0448 35.874 20.0842 35.9408 20.1379C36.0077 20.1916 36.0627 20.2585 36.1026 20.3344C36.1425 20.4103 36.1663 20.4937 36.1726 20.5792C36.1789 20.6647 36.1675 20.7506 36.1391 20.8315C36.1108 20.9125 36.0661 20.9867 36.0079 21.0496C35.5536 21.615 35.0489 22.138 34.5001 22.6121L36.0626 25.3465C36.1045 25.4178 36.1319 25.4967 36.1431 25.5786C36.1543 25.6605 36.1492 25.7439 36.128 25.8238C36.1068 25.9038 36.0699 25.9787 36.0195 26.0443C35.9691 26.1098 35.9062 26.1648 35.8344 26.2059Z" fill="black"/>
</g>
<defs>
<clipPath id="clip0_101_15061">
<rect width="20" height="20" fill="white" transform="translate(0.5)"/>
</clipPath>
</defs>
</svg>
