<svg width="20" height="20" viewBox="0 0 20 20" fill="none" xmlns="http://www.w3.org/2000/svg">
<g id="Icon" clip-path="url(#clip0_381_7579)">
<path id="Vector" d="M19.3211 9.74688C19.2937 9.68516 18.632 8.21719 17.1609 6.74609C15.2008 4.78594 12.725 3.75 9.99999 3.75C7.27499 3.75 4.79921 4.78594 2.83905 6.74609C1.36796 8.21719 0.703118 9.6875 0.678899 9.74688C0.643362 9.82681 0.625 9.91331 0.625 10.0008C0.625 10.0883 0.643362 10.1748 0.678899 10.2547C0.706243 10.3164 1.36796 11.7836 2.83905 13.2547C4.79921 15.2141 7.27499 16.25 9.99999 16.25C12.725 16.25 15.2008 15.2141 17.1609 13.2547C18.632 11.7836 19.2937 10.3164 19.3211 10.2547C19.3566 10.1748 19.375 10.0883 19.375 10.0008C19.375 9.91331 19.3566 9.82681 19.3211 9.74688ZM9.99999 15C7.5953 15 5.49452 14.1258 3.75546 12.4023C3.0419 11.6927 2.43483 10.8836 1.95312 10C2.4347 9.11636 3.04179 8.30717 3.75546 7.59766C5.49452 5.87422 7.5953 5 9.99999 5C12.4047 5 14.5055 5.87422 16.2445 7.59766C16.9595 8.307 17.5679 9.11619 18.0508 10C17.4875 11.0516 15.0336 15 9.99999 15ZM9.99999 6.25C9.25831 6.25 8.53329 6.46993 7.9166 6.88199C7.29992 7.29404 6.81927 7.87971 6.53544 8.56494C6.25162 9.25016 6.17735 10.0042 6.32205 10.7316C6.46674 11.459 6.82389 12.1272 7.34834 12.6517C7.87279 13.1761 8.54097 13.5333 9.2684 13.6779C9.99583 13.8226 10.7498 13.7484 11.4351 13.4645C12.1203 13.1807 12.7059 12.7001 13.118 12.0834C13.5301 11.4667 13.75 10.7417 13.75 10C13.749 9.00576 13.3535 8.05253 12.6505 7.34949C11.9475 6.64645 10.9942 6.25103 9.99999 6.25ZM9.99999 12.5C9.50554 12.5 9.02219 12.3534 8.61107 12.0787C8.19994 11.804 7.87951 11.4135 7.69029 10.9567C7.50107 10.4999 7.45157 9.99723 7.54803 9.51227C7.64449 9.02732 7.88259 8.58186 8.23222 8.23223C8.58186 7.8826 9.02731 7.6445 9.51227 7.54804C9.99722 7.45157 10.4999 7.50108 10.9567 7.6903C11.4135 7.87952 11.804 8.19995 12.0787 8.61107C12.3534 9.0222 12.5 9.50555 12.5 10C12.5 10.663 12.2366 11.2989 11.7678 11.7678C11.2989 12.2366 10.663 12.5 9.99999 12.5Z" fill="#614298"/>
<path id="Vector_2" d="M35.3344 26.2059C35.263 26.2466 35.1843 26.2728 35.1028 26.2831C35.0213 26.2933 34.9385 26.2874 34.8593 26.2656C34.78 26.2438 34.7059 26.2067 34.641 26.1562C34.5761 26.1057 34.5219 26.043 34.4813 25.9715L32.9969 23.3777C32.134 23.9612 31.182 24.4008 30.1782 24.6793L30.6368 27.4309C30.6503 27.5119 30.6477 27.5947 30.6292 27.6748C30.6107 27.7548 30.5766 27.8303 30.5289 27.8972C30.4811 27.964 30.4207 28.0208 30.351 28.0642C30.2813 28.1077 30.2037 28.1369 30.1227 28.1504C30.0894 28.1558 30.0557 28.1587 30.0219 28.159C29.8741 28.1588 29.7311 28.1061 29.6184 28.0104C29.5057 27.9147 29.4305 27.7822 29.4063 27.6363L28.9555 24.9348C28.0049 25.0671 27.0405 25.0671 26.0899 24.9348L25.6391 27.6363C25.6149 27.7825 25.5395 27.9152 25.4265 28.0109C25.3134 28.1067 25.1701 28.1591 25.0219 28.159C24.9874 28.1588 24.9529 28.156 24.9188 28.1504C24.8378 28.1369 24.7602 28.1077 24.6905 28.0642C24.6208 28.0208 24.5604 27.964 24.5127 27.8972C24.4649 27.8303 24.4308 27.7548 24.4123 27.6748C24.3938 27.5947 24.3912 27.5119 24.4047 27.4309L24.8657 24.6793C23.8623 24.3999 22.9108 23.9596 22.0485 23.3754L20.5688 25.9715C20.4859 26.1159 20.3491 26.2215 20.1883 26.265C20.0276 26.3085 19.8562 26.2864 19.7118 26.2035C19.5674 26.1206 19.4618 25.9838 19.4183 25.8231C19.3747 25.6623 19.3969 25.4909 19.4797 25.3465L21.0422 22.6121C20.4934 22.138 19.9887 21.615 19.5344 21.0496C19.4778 20.9864 19.4346 20.9122 19.4076 20.8317C19.3805 20.7512 19.3701 20.6661 19.3771 20.5814C19.3841 20.4968 19.4082 20.4144 19.448 20.3394C19.4879 20.2645 19.5426 20.1984 19.6088 20.1452C19.675 20.092 19.7514 20.053 19.8332 20.0303C19.9151 20.0076 20.0007 20.0019 20.0848 20.0134C20.169 20.0249 20.2499 20.0535 20.3226 20.0973C20.3953 20.1412 20.4584 20.1994 20.5079 20.2684C21.8047 21.8731 24.0735 23.784 27.5219 23.784C30.9704 23.784 33.2391 21.8707 34.536 20.2684C34.5849 20.1979 34.6478 20.1383 34.7208 20.0933C34.7937 20.0482 34.8752 20.0186 34.96 20.0064C35.0449 19.9942 35.1314 19.9995 35.2141 20.0221C35.2968 20.0448 35.374 20.0842 35.4408 20.1379C35.5077 20.1916 35.5627 20.2585 35.6026 20.3344C35.6425 20.4103 35.6663 20.4937 35.6726 20.5792C35.6789 20.6647 35.6675 20.7506 35.6391 20.8315C35.6108 20.9125 35.5661 20.9867 35.5079 21.0496C35.0536 21.615 34.5489 22.138 34.0001 22.6121L35.5626 25.3465C35.6045 25.4178 35.6319 25.4967 35.6431 25.5786C35.6543 25.6605 35.6492 25.7439 35.628 25.8238C35.6068 25.9038 35.5699 25.9787 35.5195 26.0443C35.4691 26.1098 35.4062 26.1648 35.3344 26.2059Z" fill="black"/>
</g>
<defs>
<clipPath id="clip0_381_7579">
<rect width="20" height="20" fill="white"/>
</clipPath>
</defs>
</svg>
