<svg width="147" height="141" viewBox="0 0 147 141" fill="none" xmlns="http://www.w3.org/2000/svg">
<g id="OBJECTS">
<g id="Group">
<path id="Vector" d="M144.261 98.689C141.563 92.7587 136.873 87.5775 134.194 81.0273C132.913 77.8942 132.342 74.5287 132.824 71.1521C133.358 67.3991 135.217 64.1295 137.186 60.9853C144.85 48.7373 149.19 28.9278 134.466 20.1671C129.534 17.2296 123.423 15.3623 117.758 14.5394C114.004 13.9933 110.095 14.1999 106.454 13.0043C95.6139 9.44682 77.4338 -7.8274 66.5235 4.92991C58.6684 14.115 60.7445 32.3967 46.433 34.9061C42.2625 35.6368 37.9926 35.6737 33.8 36.2826C29.0958 36.9653 24.4358 38.0281 19.9965 39.7847C11.2911 43.2314 2.6704 50.3979 0.609082 60.155C-1.24243 68.9084 4.49983 76.6248 8.03352 84.0533C9.62736 87.3967 10.912 90.9099 11.258 94.637C11.6666 99.0506 10.6396 103.475 11.0077 107.9C11.4089 112.727 10.22 114.376 10.22 118.325C10.22 121.694 12.1267 125.045 12.1267 125.045H141.71C149.926 115.328 146.039 102.601 144.261 98.6927V98.689Z" fill="#F4EDFF"/>
<g id="Group_2">
<path id="Vector_2" d="M84.2951 117.83C90.5049 110.76 98.3526 104.649 99.3796 94.707C99.6814 91.7806 100.598 86.9537 98.5587 84.4111C96.2324 81.5032 91.5576 83.9314 89.0398 85.2525C87.4938 86.0607 86.4006 87.4002 85.6092 88.8284C88.5355 68.2809 88.911 54.66 81.6191 47.357C72.9468 38.67 67.8119 52.0215 65.0586 62.262C64.3371 43.4858 36.1485 23.0491 28.2051 29.4148C20.6886 35.4373 36.5019 48.0729 44.1693 73.772C19.6101 49.8294 1.66555 64.3027 28.356 83.972C33.1044 88.8247 38.9718 91.8249 49.0907 106.807C36.8773 97.2496 19.6138 107.295 38.4344 116.351C41.1583 117.661 52.8342 123.897 53.3532 125.883C54.579 130.554 58.3666 132.68 62.9457 132.968C66.1113 133.167 69.3763 133.204 72.5235 132.728C77.2572 132.016 78.0707 126.562 80.224 123.155C81.4093 121.281 82.8043 119.528 84.2951 117.83Z" fill="#B3FCE4"/>
<g id="Group_3">
<path id="Vector_3" d="M34.6539 34.3483C37.3778 36.1381 39.579 38.5294 41.6256 41.0241C41.9974 41.4743 42.7777 42.467 43.1274 42.8914C43.3888 43.2678 45.1151 45.7144 45.4206 46.1536C45.9397 46.8806 46.628 48.0762 47.1139 48.8512C47.6145 49.6852 48.3102 50.7443 48.7556 51.582L50.2574 54.3866C51.1482 55.9476 52.315 58.4311 53.0733 60.0918L54.4168 62.9739L55.6168 65.9187C56.2868 67.6347 57.3726 70.1072 57.9469 71.8343C58.6462 73.8971 60.4536 78.82 61.0241 80.8533C61.7713 83.3553 62.7836 86.7283 63.5271 89.2192C64.3222 92.3891 65.6805 97.6109 66.4498 100.759C66.7112 101.977 67.8265 107.243 68.0989 108.519C68.4449 110.198 69.0964 113.04 69.3577 114.741L71.5369 127.248C71.6105 127.661 71.3344 128.052 70.9221 128.126C70.4988 128.2 70.1013 127.904 70.0424 127.48C69.586 124.956 67.8412 114.125 67.3406 111.907C66.5786 108.39 65.5664 103.028 64.7198 99.5409C64.1308 97.1828 62.8425 91.9795 62.2351 89.5771C61.8413 88.2376 61.0793 85.647 60.6744 84.2742C60.3726 83.2409 59.629 80.7205 59.3346 79.7315C58.3407 76.9527 56.7726 72.0225 55.65 69.3212C55.0684 67.8635 53.8905 64.9224 53.3015 63.4647L51.9801 60.601C51.2402 58.9662 50.0954 56.4901 49.2157 54.9401C48.7298 54.0508 47.5077 51.6373 46.9482 50.7996C46.1826 49.5818 45.2808 47.9729 44.471 46.7883C43.9225 46.0318 42.3544 43.67 41.7434 42.9541C40.179 40.9281 38.4195 38.8763 36.5275 37.153C35.7472 36.4629 34.9189 35.7691 34.0871 35.2488C33.8404 35.0938 33.7668 34.7654 33.9214 34.5181C34.076 34.2709 34.3999 34.197 34.6466 34.352L34.6539 34.3483Z" fill="#86C2C2"/>
<path id="Vector_4" d="M76.6791 64.6758C76.6791 64.6758 67.6241 77.47 65.2314 98.6043" stroke="#86C2C2" stroke-width="2.87" stroke-linecap="round" stroke-linejoin="round"/>
<path id="Vector_5" d="M24.3105 68.4585C24.3105 68.4585 47.7986 76.2671 67.2707 107.793" stroke="#86C2C2" stroke-width="2.87" stroke-linecap="round" stroke-linejoin="round"/>
<path id="Vector_6" d="M39.001 110.646C39.001 110.646 53.5738 110.86 69.5858 123.189" stroke="#86C2C2" stroke-width="2.87" stroke-linecap="round" stroke-linejoin="round"/>
<path id="Vector_7" d="M91.5022 92.1016C91.5022 92.1016 79.2115 101.814 70.7859 125.476" stroke="#86C2C2" stroke-width="2.87" stroke-linecap="round" stroke-linejoin="round"/>
</g>
</g>
<path id="Vector_8" d="M13.5291 127.326C17.35 132.437 22.2272 135.706 28.7388 136.068C35.4049 136.437 42.0085 135.179 48.6379 136.245C54.185 137.135 58.4402 140.648 64.1015 140.699C69.575 140.747 75.2989 136.729 79.6718 133.692C83.5184 131.016 95.3305 128.496 106.336 131.695C110.128 132.795 119.113 134.983 124.594 134.983C135.269 134.983 141.471 125.075 141.471 125.075H11.8875C12.4285 125.828 12.9733 126.584 13.5291 127.329V127.326Z" fill="#86C2C2"/>
<g id="Group_4">
<g id="Group_5">
<path id="Vector_9" d="M37.7344 115.193C44.0607 113.241 47.6104 106.517 45.663 100.174C43.7156 93.8321 37.0085 90.2733 30.6822 92.2257C24.356 94.178 20.8062 100.902 22.7536 107.245C24.7011 113.587 31.4082 117.146 37.7344 115.193Z" fill="#FFAA00"/>
<path id="Vector_10" d="M37.4585 114.904C43.6271 113.106 47.174 106.635 45.3807 100.451C43.5873 94.2663 37.1329 90.7104 30.9642 92.5083C24.7956 94.3062 21.2487 100.777 23.042 106.961C24.8354 113.146 31.2898 116.702 37.4585 114.904Z" fill="#FFCA39"/>
<path id="Vector_11" d="M34.2086 112.863C39.2522 112.863 43.341 108.764 43.341 103.707C43.341 98.6509 39.2522 94.5518 34.2086 94.5518C29.1649 94.5518 25.0762 98.6509 25.0762 103.707C25.0762 108.764 29.1649 112.863 34.2086 112.863Z" fill="#FFAA00"/>
<path id="Vector_12" d="M38.688 107.964L39.6819 109.443L38.1543 110.477L37.2046 109.063C36.0672 109.716 34.7715 110.063 33.7924 110.012L33.0783 107.163C34.1421 107.2 35.32 106.89 36.1556 106.325C36.8807 105.834 37.0169 105.473 36.8034 105.152C36.0157 103.978 32.4562 107.757 30.1188 104.277C29.1066 102.771 29.1471 100.904 30.7188 99.3984L29.7434 97.9444L31.271 96.9111L32.228 98.3356C33.093 97.8891 34.0427 97.6123 34.9482 97.6234L35.7102 100.421C34.65 100.457 33.7924 100.708 33.1298 101.155C32.3826 101.661 32.3237 102.089 32.5372 102.406C33.2881 103.524 36.8586 99.76 39.1666 103.199C40.1346 104.639 40.1273 106.462 38.688 107.956V107.964Z" fill="#C99914"/>
<path id="Vector_13" d="M38.3162 107.889L39.3101 109.369L37.7825 110.402L36.8328 108.989C35.6954 109.642 34.3997 109.989 33.4206 109.937L32.7065 107.088C33.7703 107.125 34.9482 106.815 35.7837 106.25C36.5089 105.76 36.6451 105.398 36.4316 105.077C35.6439 103.903 32.0844 107.682 29.747 104.202C28.7347 102.697 28.7752 100.829 30.347 99.3237L29.3715 97.8697L30.8991 96.8364L31.8562 98.2646C32.7212 97.818 33.6709 97.5413 34.5764 97.5523L35.3383 100.35C34.2782 100.386 33.4206 100.637 32.758 101.084C32.0108 101.59 31.9519 102.018 32.1654 102.335C32.9163 103.453 36.4868 99.689 38.7947 103.128C39.7628 104.568 39.7555 106.391 38.3162 107.885V107.889Z" fill="#FFCA39"/>
</g>
<g id="Group_6">
<path id="Vector_14" d="M50.4416 58.8138C56.5538 56.2668 59.4492 49.2345 56.9087 43.1067C54.3682 36.979 47.3537 34.0762 41.2415 36.6231C35.1293 39.1701 32.2338 46.2024 34.7743 52.3302C37.3149 58.4579 44.3293 61.3607 50.4416 58.8138Z" fill="#FFAA00"/>
<path id="Vector_15" d="M56.2525 52.9063C59.1118 47.1391 56.7664 40.14 51.0138 37.2734C45.2612 34.4067 38.2799 36.7581 35.4205 42.5253C32.5611 48.2925 34.9066 55.2916 40.6591 58.1583C46.4117 61.0249 53.3931 58.6735 56.2525 52.9063Z" fill="#FFCA39"/>
<path id="Vector_16" d="M54.8789 49.0061C55.5887 43.9999 52.1161 39.3647 47.1226 38.6531C42.1291 37.9416 37.5057 41.423 36.7959 46.4292C36.0861 51.4353 39.5588 56.0705 44.5523 56.7821C49.5457 57.4937 54.1692 54.0123 54.8789 49.0061Z" fill="#FFAA00"/>
<path id="Vector_17" d="M48.9285 53.0728L49.4623 54.7741L47.7028 55.3276L47.1948 53.7039C45.9175 54.0065 44.5813 53.9733 43.6538 53.6411L43.7752 50.7074C44.7875 51.0469 46.0022 51.0838 46.9629 50.7812C47.7985 50.5192 48.0304 50.2092 47.9163 49.8401C47.493 48.4895 43.0096 51.0985 41.7544 47.0983C41.2133 45.3675 41.7765 43.5888 43.7127 42.5924L43.19 40.9207L44.9494 40.3672L45.4648 42.0057C46.4218 41.8212 47.412 41.8322 48.2733 42.0979L48.2107 44.9985C47.1838 44.7328 46.2893 44.7291 45.531 44.969C44.6697 45.2384 44.493 45.6332 44.6071 46.0023C45.012 47.2902 49.4991 44.6959 50.7395 48.6519C51.2586 50.3088 50.7396 52.0543 48.9359 53.0765L48.9285 53.0728Z" fill="#C99914"/>
<path id="Vector_18" d="M48.5936 52.9L49.1273 54.6012L47.3678 55.1547L46.8599 53.531C45.5826 53.8299 44.2464 53.8004 43.3188 53.4683L43.4403 50.5345C44.4525 50.874 45.6672 50.9109 46.628 50.6083C47.4635 50.3463 47.6954 50.0363 47.5813 49.6673C47.158 48.3167 42.6746 50.9257 41.4194 46.9254C40.8783 45.1947 41.4415 43.416 43.3777 42.4196L42.855 40.7479L44.6145 40.1943L45.1298 41.8365C46.0869 41.652 47.077 41.6631 47.9384 41.9288L47.8758 44.8293C46.8488 44.5636 45.9543 44.5599 45.1961 44.7998C44.3347 45.0692 44.158 45.4641 44.2722 45.8331C44.6771 47.121 49.1641 44.5267 50.4046 48.4827C50.9236 50.1397 50.4046 51.8852 48.6009 52.9074L48.5936 52.9Z" fill="#FFCA39"/>
</g>
<g id="Group_7">
<path id="Vector_19" d="M107.285 26.7559C108.492 21.8422 105.498 16.8776 100.596 15.667C95.6952 14.4565 90.7432 17.4584 89.5357 22.3721C88.3282 27.2857 91.3226 32.2504 96.2238 33.4609C101.125 34.6715 106.077 31.6695 107.285 26.7559Z" fill="#FFAA00"/>
<path id="Vector_20" d="M104.69 30.8576C108.154 27.3844 108.154 21.7533 104.69 18.2801C101.225 14.807 95.6085 14.807 92.1441 18.2801C88.6798 21.7533 88.6798 27.3844 92.1441 30.8576C95.6085 34.3307 101.225 34.3307 104.69 30.8576Z" fill="#FFCA39"/>
<path id="Vector_21" d="M102.032 30.5299C105.319 28.5271 106.364 24.2323 104.366 20.9371C102.368 17.6419 98.0844 16.5942 94.7975 18.5969C91.5107 20.5996 90.4656 24.8944 92.4633 28.1896C94.4609 31.4848 98.7448 32.5326 102.032 30.5299Z" fill="#FFAA00"/>
<path id="Vector_22" d="M98.345 29.2852L98.0284 30.61L96.6628 30.2816L96.9646 29.0195C96.0113 28.7169 95.1499 28.167 94.6714 27.5876L95.8971 25.713C96.4272 26.3293 97.2076 26.8348 97.9548 27.012C98.6026 27.167 98.875 27.0562 98.945 26.7721C99.1953 25.7241 95.2419 25.6724 95.9818 22.5615C96.302 21.2145 97.3658 20.2735 99.0223 20.3805L99.3314 19.0815L100.697 19.41L100.392 20.6868C101.087 20.9414 101.731 21.3363 102.195 21.8493L101.021 23.7239C100.45 23.1482 99.8689 22.794 99.2799 22.65C98.61 22.4914 98.3413 22.6759 98.2713 22.9637C98.0321 23.9638 101.982 24.0302 101.249 27.1042C100.944 28.3921 99.9204 29.3295 98.3413 29.2926L98.345 29.2852Z" fill="#C99914"/>
<path id="Vector_23" d="M98.1941 29.0381L97.8775 30.3629L96.5119 30.0345L96.8137 28.7724C95.8604 28.4698 94.999 27.92 94.5205 27.3406L95.7463 25.4659C96.2763 26.0859 97.0567 26.5878 97.8039 26.7649C98.4517 26.9199 98.7241 26.8092 98.7941 26.525C99.0444 25.477 95.0911 25.4253 95.8309 22.3144C96.1512 20.9675 97.215 20.0264 98.8714 20.1335L99.1806 18.8345L100.546 19.1629L100.241 20.4397C100.936 20.6944 101.581 21.0892 102.044 21.6022L100.87 23.4769C100.3 22.9012 99.718 22.5469 99.129 22.403C98.4591 22.2443 98.1904 22.4288 98.1205 22.7167C97.8812 23.7167 101.831 23.7831 101.098 26.8572C100.793 28.1451 99.7695 29.0824 98.1904 29.0455L98.1941 29.0381Z" fill="#FFCA39"/>
</g>
</g>
<g id="Group_8">
<path id="Vector_24" d="M109.123 29.1465H57.8402C55.8459 29.1465 54.2292 30.7673 54.2292 32.7667V64.1488C54.2292 66.1482 55.8459 67.769 57.8402 67.769H109.123C111.117 67.769 112.734 66.1482 112.734 64.1488V32.7667C112.734 30.7673 111.117 29.1465 109.123 29.1465Z" fill="#006BB3"/>
<path id="Vector_25" d="M108.42 29.8545H57.1371C55.1428 29.8545 53.5261 31.4753 53.5261 33.4747V64.8568C53.5261 66.8562 55.1428 68.477 57.1371 68.477H108.42C110.414 68.477 112.031 66.8562 112.031 64.8568V33.4747C112.031 31.4753 110.414 29.8545 108.42 29.8545Z" fill="#0089E5"/>
<g id="Group_9">
<g id="Group_10">
<path id="Vector_26" d="M67.6059 43.5127H58.0354C57.2406 43.5127 56.5962 44.1587 56.5962 44.9556V50.7567C56.5962 51.5536 57.2406 52.1996 58.0354 52.1996H67.6059C68.4007 52.1996 69.0451 51.5536 69.0451 50.7567V44.9556C69.0451 44.1587 68.4007 43.5127 67.6059 43.5127Z" fill="#FFE05E"/>
<g id="Group_11">
<g id="Group_12">
<path id="Vector_27" d="M56.5959 46.3125H69.0449" stroke="#FCFEFF" stroke-width="0.82" stroke-miterlimit="10"/>
<path id="Vector_28" d="M56.5959 49.3945H69.0449" stroke="#FCFEFF" stroke-width="0.82" stroke-miterlimit="10"/>
</g>
<g id="Group_13">
<path id="Vector_29" d="M60.3767 49.3939V46.3125" stroke="#FCFEFF" stroke-width="0.82" stroke-miterlimit="10"/>
<path id="Vector_30" d="M65.2649 49.3939V46.3125" stroke="#FCFEFF" stroke-width="0.82" stroke-miterlimit="10"/>
</g>
</g>
</g>
<g id="Group_14">
<path id="Vector_31" d="M67.3295 55.4316H57.288C56.9058 55.4316 56.5959 55.7423 56.5959 56.1254V57.8894C56.5959 58.2725 56.9058 58.5831 57.288 58.5831H67.3295C67.7117 58.5831 68.0216 58.2725 68.0216 57.8894V56.1254C68.0216 55.7423 67.7117 55.4316 67.3295 55.4316Z" fill="#E0FEFD"/>
<path id="Vector_32" d="M80.9746 55.4316H70.933C70.5508 55.4316 70.241 55.7423 70.241 56.1254V57.8894C70.241 58.2725 70.5508 58.5831 70.933 58.5831H80.9746C81.3568 58.5831 81.6666 58.2725 81.6666 57.8894V56.1254C81.6666 55.7423 81.3568 55.4316 80.9746 55.4316Z" fill="#E0FEFD"/>
<path id="Vector_33" d="M94.6237 55.4316H84.5822C84.2 55.4316 83.8901 55.7423 83.8901 56.1254V57.8894C83.8901 58.2725 84.2 58.5831 84.5822 58.5831H94.6237C95.0059 58.5831 95.3157 58.2725 95.3157 57.8894V56.1254C95.3157 55.7423 95.0059 55.4316 94.6237 55.4316Z" fill="#E0FEFD"/>
<path id="Vector_34" d="M108.269 55.4316H98.2272C97.845 55.4316 97.5352 55.7423 97.5352 56.1254V57.8894C97.5352 58.2725 97.845 58.5831 98.2272 58.5831H108.269C108.651 58.5831 108.961 58.2725 108.961 57.8894V56.1254C108.961 55.7423 108.651 55.4316 108.269 55.4316Z" fill="#E0FEFD"/>
</g>
</g>
<path id="Vector_35" d="M108.225 62.6689H76.867C76.4625 62.6689 76.1345 62.9977 76.1345 63.4033V65.1119C76.1345 65.5175 76.4625 65.8463 76.867 65.8463H108.225C108.629 65.8463 108.957 65.5175 108.957 65.1119V63.4033C108.957 62.9977 108.629 62.6689 108.225 62.6689Z" fill="#0071BD"/>
<g id="Group_15">
<path id="Vector_36" d="M101.003 59.7422H98.069C97.8698 59.7422 97.7083 59.9041 97.7083 60.1038V61.0707C97.7083 61.2704 97.8698 61.4323 98.069 61.4323H101.003C101.202 61.4323 101.363 61.2704 101.363 61.0707V60.1038C101.363 59.9041 101.202 59.7422 101.003 59.7422Z" fill="#0071BD"/>
<path id="Vector_37" d="M108.46 59.7422H105.526C105.327 59.7422 105.166 59.9041 105.166 60.1038V61.0707C105.166 61.2704 105.327 61.4323 105.526 61.4323H108.46C108.659 61.4323 108.821 61.2704 108.821 61.0707V60.1038C108.821 59.9041 108.659 59.7422 108.46 59.7422Z" fill="#0071BD"/>
</g>
</g>
<g id="Group_16">
<g id="Group_17">
<g id="Group_18">
<path id="Vector_38" d="M117.689 90.63C117.751 90.6079 117.814 90.5968 117.873 90.5783L118.068 90.5267C118.245 90.4972 118.425 90.4676 118.609 90.4639C121.005 90.4012 122.96 93.1468 123.004 96.6489C123.048 100.132 121.186 103.118 118.789 103.387V103.395L103.477 108.421L102.464 108V94.6782L117.689 90.63Z" fill="#5E93FF"/>
<path id="Vector_39" d="M103.48 95.1135L120.56 102.631C120.56 102.631 119.426 103.313 118.789 103.383V103.391L103.477 108.417L102.464 107.996V94.6743L103.477 95.1098L103.48 95.1135Z" fill="#3666C7"/>
<path id="Vector_40" d="M103.48 108.42V95.1169L117.689 91.338C117.751 91.3159 117.814 91.3048 117.873 91.2864L118.068 91.2347C118.244 91.2052 118.425 91.1756 118.609 91.172C121.005 91.1092 122.96 93.8548 123.004 97.3569C123.048 100.841 121.186 103.826 118.789 104.095V104.103L103.477 108.424L103.48 108.42Z" fill="#0A43B8"/>
</g>
<g id="Group_19">
<path id="Vector_41" d="M120.339 97.4601C120.269 99.1724 119.091 100.641 117.578 100.815C115.903 101.006 114.357 99.5709 114.295 97.5043C114.228 95.3345 115.815 93.6701 117.637 93.8657C119.268 94.0429 120.412 95.674 120.339 97.4601Z" fill="#BFA847"/>
<path id="Vector_42" d="M120.689 97.8146C120.619 99.5268 119.441 100.996 117.928 101.169C116.253 101.361 114.707 99.9254 114.645 97.8588C114.578 95.689 116.165 94.0246 117.987 94.2202C119.618 94.3974 120.762 96.0285 120.689 97.8146Z" fill="#FFE05E"/>
<path id="Vector_43" d="M119.595 97.7696C119.551 98.8619 118.8 99.7992 117.836 99.9063C116.768 100.028 115.782 99.1129 115.741 97.7954C115.701 96.4116 116.709 95.3488 117.873 95.4779C118.914 95.5923 119.643 96.633 119.595 97.7696Z" fill="#DBC151"/>
</g>
</g>
<g id="Group_20">
<path id="Vector_44" d="M106.381 75.385H40.135C38.2945 75.385 36.8037 76.8796 36.8037 78.7247V123.765C36.8037 125.61 38.2945 127.104 40.135 127.104H105.265L105.063 127.278L106.502 128.492L108.718 126.138C109.329 125.532 109.708 124.691 109.708 123.761V78.7211C109.708 76.8759 108.217 75.3813 106.377 75.3813L106.381 75.385Z" fill="#2D5DC2"/>
<path id="Vector_45" d="M106.616 78.6878L108.862 76.4995C108.251 75.8168 107.367 75.3813 106.381 75.3813H40.135C38.2945 75.3813 36.8037 76.8759 36.8037 78.7211V123.761C36.8037 125.606 38.2945 127.101 40.135 127.101H67.5064C73.2965 120.41 106.616 78.6878 106.616 78.6878Z" fill="#3D76EB"/>
<path id="Vector_46" d="M104.227 77.6763H37.9853C36.1455 77.6763 34.6541 79.1715 34.6541 81.016V126.056C34.6541 127.9 36.1455 129.396 37.9853 129.396H104.227C106.067 129.396 107.559 127.9 107.559 126.056V81.016C107.559 79.1715 106.067 77.6763 104.227 77.6763Z" fill="#0A43B8"/>
<path id="Vector_47" d="M46.0023 80.666H100.995C102.898 80.666 104.448 82.2159 104.448 84.1275V123.292C104.448 125.2 102.902 126.754 100.995 126.754H46.0023C44.0992 126.754 42.5496 125.204 42.5496 123.292V84.1275C42.5496 82.2196 44.0956 80.666 46.0023 80.666Z" fill="#2259C9"/>
<g id="Group_21">
<path id="Vector_48" d="M98.7172 82.2754H47.4345C45.4402 82.2754 43.8235 83.8962 43.8235 85.8956V117.278C43.8235 119.277 45.4402 120.898 47.4345 120.898H98.7172C100.712 120.898 102.328 119.277 102.328 117.278V85.8956C102.328 83.8962 100.712 82.2754 98.7172 82.2754Z" fill="#338EB3"/>
<path id="Vector_49" d="M98.0141 82.98H46.7314C44.7371 82.98 43.1204 84.6008 43.1204 86.6001V117.982C43.1204 119.982 44.7371 121.602 46.7314 121.602H98.0141C100.008 121.602 101.625 119.982 101.625 117.982V86.6001C101.625 84.6008 100.008 82.98 98.0141 82.98Z" fill="#1FC0E5"/>
<g id="Group_22">
<g id="Group_23">
<path id="Vector_50" d="M57.2001 96.6377H47.6297C46.8348 96.6377 46.1904 97.2837 46.1904 98.0806V103.882C46.1904 104.679 46.8348 105.325 47.6297 105.325H57.2001C57.995 105.325 58.6393 104.679 58.6393 103.882V98.0806C58.6393 97.2837 57.995 96.6377 57.2001 96.6377Z" fill="#7DA6FF"/>
<g id="Group_24">
<g id="Group_25">
<path id="Vector_51" d="M46.1904 99.4434H58.6393" stroke="#FFFCFC" stroke-width="0.82" stroke-miterlimit="10"/>
<path id="Vector_52" d="M46.1904 102.525H58.6393" stroke="#FFFCFC" stroke-width="0.82" stroke-miterlimit="10"/>
</g>
<g id="Group_26">
<path id="Vector_53" d="M49.9709 102.525V99.4434" stroke="#FFFCFC" stroke-width="0.82" stroke-miterlimit="10"/>
<path id="Vector_54" d="M54.8591 102.525V99.4434" stroke="#FFFCFC" stroke-width="0.82" stroke-miterlimit="10"/>
</g>
</g>
</g>
<g id="Group_27">
<path id="Vector_55" d="M56.924 108.557H46.8824C46.5003 108.557 46.1904 108.867 46.1904 109.25V111.014C46.1904 111.398 46.5003 111.708 46.8824 111.708H56.924C57.3062 111.708 57.616 111.398 57.616 111.014V109.25C57.616 108.867 57.3062 108.557 56.924 108.557Z" fill="#FEE1A8"/>
<path id="Vector_56" d="M70.569 108.557H60.5275C60.1453 108.557 59.8354 108.867 59.8354 109.25V111.014C59.8354 111.398 60.1453 111.708 60.5275 111.708H70.569C70.9512 111.708 71.2611 111.398 71.2611 111.014V109.25C71.2611 108.867 70.9512 108.557 70.569 108.557Z" fill="#FEE1A8"/>
<path id="Vector_57" d="M84.2182 108.557H74.1766C73.7944 108.557 73.4846 108.867 73.4846 109.25V111.014C73.4846 111.398 73.7944 111.708 74.1766 111.708H84.2182C84.6004 111.708 84.9102 111.398 84.9102 111.014V109.25C84.9102 108.867 84.6004 108.557 84.2182 108.557Z" fill="#FEE1A8"/>
<path id="Vector_58" d="M97.8632 108.557H87.8217C87.4395 108.557 87.1296 108.867 87.1296 109.25V111.014C87.1296 111.398 87.4395 111.708 87.8217 111.708H97.8632C98.2454 111.708 98.5553 111.398 98.5553 111.014V109.25C98.5553 108.867 98.2454 108.557 97.8632 108.557Z" fill="#FEE1A8"/>
</g>
</g>
<path id="Vector_59" d="M97.8191 115.798H66.4613C66.0567 115.798 65.7288 116.127 65.7288 116.532V118.241C65.7288 118.646 66.0567 118.975 66.4613 118.975H97.8191C98.2237 118.975 98.5516 118.646 98.5516 118.241V116.532C98.5516 116.127 98.2237 115.798 97.8191 115.798Z" fill="#9098BD"/>
<g id="Group_28">
<path id="Vector_60" d="M90.5972 112.871H87.6635C87.4642 112.871 87.3027 113.033 87.3027 113.232V114.199C87.3027 114.399 87.4642 114.561 87.6635 114.561H90.5972C90.7964 114.561 90.9579 114.399 90.9579 114.199V113.232C90.9579 113.033 90.7964 112.871 90.5972 112.871Z" fill="#9098BD"/>
<path id="Vector_61" d="M98.0544 112.871H95.1207C94.9215 112.871 94.76 113.033 94.76 113.232V114.199C94.76 114.399 94.9215 114.561 95.1207 114.561H98.0544C98.2537 114.561 98.4152 114.399 98.4152 114.199V113.232C98.4152 113.033 98.2537 112.871 98.0544 112.871Z" fill="#9098BD"/>
</g>
</g>
<path id="Vector_62" d="M42.5496 99.0518V123.293C42.5496 125.205 44.0956 126.755 46.0023 126.755H100.995C102.902 126.755 104.448 125.205 104.448 123.293V99.0518H42.5496Z" fill="#4377E0"/>
<path id="Vector_63" d="M42.5496 111.881V123.288C42.5496 125.2 44.0956 126.75 46.0023 126.75H100.995C102.902 126.75 104.448 125.2 104.448 123.288V111.881H42.5496Z" fill="#255AC4"/>
</g>
<g id="Group_29">
<path id="Vector_64" d="M83.596 136.765L79.6794 138.739L79.904 87.99L84.3174 87.2188V135.598C84.3174 136.093 84.0377 136.547 83.5996 136.768L83.596 136.765Z" fill="#2259C9"/>
<path id="Vector_65" d="M84.3172 87.2153C84.3172 87.2153 84.4791 86.2374 83.397 86.0012C82.6424 85.8351 38.7068 75.709 38.7068 75.709L34.6541 76.9637L79.4326 89.101L84.3135 87.2153H84.3172Z" fill="#3D76EB"/>
<path id="Vector_66" d="M79.2044 87.5874L34.6541 76.9668V125.97C34.6541 127.557 35.7436 128.933 37.2822 129.295L78.1958 138.912C79.5688 139.237 80.8866 138.189 80.8866 136.775V89.7241C80.8866 88.7056 80.1909 87.8236 79.2044 87.5874Z" fill="#2560D9"/>
<g id="Group_30">
<path id="Vector_67" d="M34.6541 79.8687L35.6847 80.1159" stroke="#E0FEFD" stroke-width="0.96" stroke-miterlimit="10"/>
<path id="Vector_68" d="M37.7423 80.6064L75.1664 89.5296C76.867 89.9355 78.067 91.4596 78.067 93.2125V131.193C78.067 133.636 75.7921 135.44 73.4179 134.876L36.708 126.148" stroke="#E0FEFD" stroke-width="0.96" stroke-miterlimit="10"/>
<path id="Vector_69" d="M35.6847 125.901L34.6541 125.658" stroke="#E0FEFD" stroke-width="0.96" stroke-miterlimit="10"/>
</g>
<path id="Vector_70" d="M40.569 75.3843H36.2329C35.3605 75.3843 34.6575 76.0928 34.6575 76.9637L40.5727 75.3843H40.569Z" fill="#4377E0"/>
</g>
<g id="Group_31">
<path id="Vector_71" d="M69.0341 108.508C69.3249 110.405 68.239 112.15 66.6084 112.401C64.9777 112.652 63.4133 111.32 63.1225 109.423C62.8317 107.526 63.9176 105.781 65.5483 105.53C67.1789 105.279 68.7433 106.611 69.0341 108.508Z" fill="#BAA445"/>
<path id="Vector_72" d="M68.6106 108.637C68.8977 110.504 67.8155 112.224 66.1959 112.475C64.5726 112.726 63.0266 111.416 62.7359 109.548C62.4487 107.681 63.5309 105.961 65.1506 105.71C66.7738 105.46 68.3198 106.77 68.6106 108.637Z" fill="#FFE05E"/>
<path id="Vector_73" d="M67.5063 108.811C67.6867 109.977 67.0094 111.051 65.9972 111.206C64.9849 111.364 64.0168 110.545 63.8365 109.379C63.6561 108.213 64.3334 107.139 65.3456 106.984C66.3579 106.825 67.326 107.645 67.5063 108.811Z" fill="#DBC151"/>
</g>
</g>
</g>
</g>
</svg>
